<svg width="881" height="273" viewBox="0 0 881 273" fill="none" xmlns="http://www.w3.org/2000/svg">
<style>
#Group_10 {
	animation: 1.96s linear 0s infinite normal forwards running Group_10;
}
@keyframes Group_10 {
	0% {
		opacity: 0;
	}
	17.35% {
		opacity: 1;
	}
	22.45% {
		opacity: 1;
	}
	25.51% {
		opacity: 0;
	}
	31.12% {
		opacity: 1;
	}
	100% {
		opacity: 1;
	}
	34.18% {
		opacity: 0;
	}
	38.27% {
		opacity: 1;
	}
	79.08% {
		opacity: 1;
	}
	87.24% {
		opacity: 0;
	}
	92.86% {
		opacity: 1;
	}
	95.92% {
		opacity: 0;
	}
}
</style>
<g id="Frame 26">
<g clip-path="url(#clip0_211_74)">
<rect width="881" height="273" fill="#161616"/>
<g id="Group_10">
<g id="riffy" filter="url(#filter0_d_211_74)">
<path d="M210.622 165.428C207.563 165.428 205.496 163.733 204.422 160.344C203.347 156.872 202.81 152.615 202.81 147.572C202.81 144.844 202.892 142.199 203.058 139.636C203.223 136.991 203.347 134.8 203.43 133.064C202.107 132.899 200.826 132.651 199.586 132.32C198.428 131.907 197.519 131.493 196.858 131.08C196.775 131.659 196.444 132.857 195.866 134.676C195.287 136.412 194.584 138.437 193.758 140.752C193.014 143.067 192.187 145.34 191.278 147.572C190.368 149.804 189.5 151.664 188.674 153.152C187.847 154.557 187.103 155.26 186.442 155.26C186.111 155.26 185.946 155.012 185.946 154.516C185.946 153.855 186.235 152.945 186.814 151.788C188.467 148.399 189.955 144.927 191.278 141.372C192.6 137.817 193.799 134.139 194.874 130.336C194.047 130.005 193.427 129.427 193.014 128.6C192.683 127.691 192.518 126.699 192.518 125.624C192.518 122.648 192.931 120.209 193.758 118.308C194.667 116.407 195.659 115.001 196.734 114.092C197.808 113.1 198.635 112.604 199.214 112.604C200.206 112.604 200.702 113.431 200.702 115.084C200.702 115.911 200.495 117.192 200.082 118.928C199.668 120.581 199.172 122.317 198.594 124.136C198.015 125.872 197.519 127.277 197.106 128.352C197.106 128.352 197.354 128.517 197.85 128.848C198.346 129.179 198.883 129.344 199.462 129.344C200.288 129.344 201.074 128.848 201.818 127.856C202.644 126.781 203.595 125.748 204.67 124.756C205.827 123.681 207.274 123.144 209.01 123.144C209.919 123.144 210.704 123.268 211.366 123.516C212.027 123.681 212.358 124.012 212.358 124.508V124.88C211.531 126.947 210.911 129.675 210.498 133.064C210.084 136.371 209.878 139.719 209.878 143.108C209.878 146.084 210.043 148.895 210.374 151.54C210.704 154.103 211.2 156.169 211.862 157.74C212.606 159.311 213.474 160.096 214.466 160.096C215.458 160.096 216.408 159.559 217.318 158.484C218.227 157.409 219.012 156.252 219.674 155.012C220.418 153.772 220.914 152.863 221.162 152.284C222.898 149.06 223.972 146.993 224.386 146.084C224.799 145.092 225.336 144.596 225.998 144.596C226.246 144.596 226.37 144.761 226.37 145.092C226.37 145.257 226.287 145.671 226.122 146.332C225.13 149.06 223.89 151.912 222.402 154.888C220.996 157.781 219.302 160.261 217.318 162.328C215.334 164.395 213.102 165.428 210.622 165.428ZM233.097 131.452C232.601 131.452 232.063 131.369 231.485 131.204C230.989 130.956 230.493 130.708 229.997 130.46C229.666 130.212 229.501 129.881 229.501 129.468C229.501 128.724 229.955 127.815 230.865 126.74C231.774 125.583 232.931 124.591 234.337 123.764C235.742 122.937 237.106 122.524 238.429 122.524C239.173 122.524 239.545 122.731 239.545 123.144C239.545 123.475 239.173 123.888 238.429 124.384C237.519 125.045 236.858 125.955 236.445 127.112C236.031 128.269 235.618 129.303 235.205 130.212C234.791 131.039 234.089 131.452 233.097 131.452ZM226.401 168.9C224.83 168.9 223.755 168.404 223.177 167.412C222.598 166.42 222.309 164.891 222.309 162.824C222.309 161.749 222.35 160.592 222.433 159.352C222.515 158.112 222.681 156.707 222.929 155.136C223.673 149.515 224.499 145.051 225.409 141.744C226.318 138.355 227.475 136.66 228.881 136.66C230.038 136.66 231.071 137.321 231.981 138.644C232.89 139.967 233.51 140.917 233.841 141.496C233.262 142.571 232.477 144.307 231.485 146.704C230.575 149.101 229.749 151.623 229.005 154.268C228.261 156.913 227.889 159.228 227.889 161.212C227.889 163.196 228.343 164.188 229.253 164.188C229.997 164.188 230.823 163.775 231.733 162.948C232.725 162.121 233.634 161.212 234.461 160.22C235.37 159.228 235.949 158.525 236.197 158.112C239.007 153.896 240.785 150.672 241.529 148.44C242.355 146.208 243.141 145.092 243.885 145.092C244.215 145.092 244.381 145.34 244.381 145.836C244.381 146.167 244.298 146.539 244.133 146.952C244.05 147.283 243.926 147.737 243.761 148.316C243.265 149.639 242.479 151.457 241.405 153.772C240.33 156.004 239.007 158.277 237.437 160.592C235.949 162.907 234.254 164.891 232.353 166.544C230.534 168.115 228.55 168.9 226.401 168.9ZM285.11 224.7C282.878 224.7 280.77 224.121 278.786 222.964C276.802 221.807 275.231 220.195 274.074 218.128C272.007 214.739 270.602 210.399 269.858 205.108C269.197 199.817 268.866 194.403 268.866 188.864C268.866 182.829 269.114 177.125 269.61 171.752C270.189 166.379 270.685 162.328 271.098 159.6C271.263 158.195 271.594 156.417 272.09 154.268C272.586 152.036 273.123 149.556 273.702 146.828L258.822 151.044C256.507 151.705 254.275 152.491 252.126 153.4C249.977 154.227 248.199 155.095 246.794 156.004L246.298 160.096C250.101 164.064 253.325 168.445 255.97 173.24C258.698 178.117 260.806 182.995 262.294 187.872C263.782 192.832 264.526 197.544 264.526 202.008C264.526 205.067 264.154 207.877 263.41 210.44C262.666 213.085 261.509 215.4 259.938 217.384C259.607 218.045 258.905 218.913 257.83 219.988C256.755 221.145 255.474 222.137 253.986 222.964C252.581 223.873 251.051 224.328 249.398 224.328C247.993 224.328 246.711 223.915 245.554 223.088C242.413 221.021 240.263 217.26 239.106 211.804C237.949 206.348 237.329 200.231 237.246 193.452C237.329 191.055 237.453 188.285 237.618 185.144C237.866 182.003 238.155 178.737 238.486 175.348C238.817 172.041 239.147 168.859 239.478 165.8C239.809 162.741 240.098 160.096 240.346 157.864C240.181 157.781 239.974 157.74 239.726 157.74C239.561 157.74 239.395 157.699 239.23 157.616C238.486 157.451 238.114 156.913 238.114 156.004C238.114 155.343 238.362 154.557 238.858 153.648C239.354 152.739 240.139 151.995 241.214 151.416C242.123 145.299 243.239 139.347 244.562 133.56C245.885 127.773 247.538 121.491 249.522 114.712C250.514 111.323 251.589 107.975 252.746 104.668C253.903 101.361 255.019 98.1787 256.094 95.12C256.755 93.5493 257.334 92.3093 257.83 91.4C258.326 90.408 259.07 90.036 260.062 90.284C262.046 91.028 263.575 92.1027 264.65 93.508C264.65 93.508 264.65 93.5493 264.65 93.632C264.65 93.632 264.691 93.632 264.774 93.632C266.758 96.112 267.75 99.5427 267.75 103.924C267.75 108.223 266.923 113.017 265.27 118.308C263.617 123.599 261.426 128.889 258.698 134.18C255.97 139.471 252.953 144.348 249.646 148.812C252.787 147.985 256.507 147.035 260.806 145.96C265.187 144.885 269.775 143.769 274.57 142.612C275.562 138.479 276.595 134.139 277.67 129.592C278.827 124.963 279.943 120.457 281.018 116.076C282.175 111.612 283.25 107.561 284.242 103.924C285.234 100.204 286.061 97.1867 286.722 94.872C287.383 92.4747 287.797 91.1107 287.962 90.78C288.21 90.3667 288.499 90.16 288.83 90.16C289.491 90.16 290.194 90.532 290.938 91.276C291.682 91.9373 292.385 92.7227 293.046 93.632C293.707 94.4587 294.079 95.12 294.162 95.616C294.327 95.9467 294.451 96.3187 294.534 96.732C294.617 97.0627 294.658 97.5587 294.658 98.22C294.658 99.1293 294.451 100.452 294.038 102.188C293.707 103.924 293.087 106.404 292.178 109.628C290.359 115.249 288.541 120.499 286.722 125.376C284.903 130.253 283.291 135.461 281.886 141C287.011 139.843 292.013 138.809 296.89 137.9C301.85 136.991 306.314 136.247 310.282 135.668C314.25 135.089 317.391 134.8 319.706 134.8C320.119 134.8 320.491 134.8 320.822 134.8C321.235 134.8 321.607 134.841 321.938 134.924C322.434 135.007 322.682 135.172 322.682 135.42C322.682 135.585 322.517 135.792 322.186 136.04C321.855 136.205 321.525 136.288 321.194 136.288C319.541 136.371 317.143 136.743 314.002 137.404C310.943 138.065 307.595 138.851 303.958 139.76C300.321 140.587 296.849 141.496 293.542 142.488C290.318 143.397 287.714 144.224 285.73 144.968C291.517 147.2 296.477 150.341 300.61 154.392C304.743 158.36 307.926 162.989 310.158 168.28C312.473 173.488 313.63 179.151 313.63 185.268C313.63 186.095 313.589 186.88 313.506 187.624C313.506 188.368 313.465 189.153 313.382 189.98C313.051 193.121 312.142 196.387 310.654 199.776C309.249 203.248 307.471 206.555 305.322 209.696C303.173 212.92 300.775 215.731 298.13 218.128C295.567 220.608 292.922 222.427 290.194 223.584C288.623 224.328 286.929 224.7 285.11 224.7ZM248.53 146.084C251.506 141.785 254.275 137.115 256.838 132.072C259.401 127.029 261.467 122.111 263.038 117.316C264.609 112.439 265.394 108.14 265.394 104.42C265.394 101.857 264.981 99.7493 264.154 98.096C262.914 101.072 261.633 104.131 260.31 107.272C258.987 110.413 257.747 113.596 256.59 116.82C253.366 125.583 250.679 135.337 248.53 146.084ZM288.954 220.98C291.021 220.98 293.005 220.071 294.906 218.252C296.807 216.516 298.543 214.284 300.114 211.556C301.685 208.911 302.966 206.183 303.958 203.372C305.033 200.561 305.777 198.164 306.19 196.18C307.182 191.716 307.678 187.376 307.678 183.16C307.678 177.208 306.686 171.711 304.702 166.668C302.718 161.543 299.701 157.161 295.65 153.524C291.682 149.887 286.681 147.324 280.646 145.836C280.315 147.324 279.985 148.895 279.654 150.548C279.406 152.119 279.158 153.731 278.91 155.384C278.249 160.179 277.67 165.345 277.174 170.884C276.678 176.423 276.43 181.879 276.43 187.252C276.43 193.783 276.885 199.735 277.794 205.108C278.703 210.564 280.274 214.615 282.506 217.26C284.655 219.74 286.805 220.98 288.954 220.98ZM252.994 219.492C253.903 219.492 254.771 219.203 255.598 218.624C255.763 218.459 255.846 218.376 255.846 218.376C257.747 216.64 259.111 214.449 259.938 211.804C260.847 209.241 261.302 206.389 261.302 203.248C261.302 199.28 260.682 195.064 259.442 190.6C258.202 186.136 256.425 181.631 254.11 177.084C251.795 172.537 249.026 168.239 245.802 164.188C245.471 167.412 245.182 170.636 244.934 173.86C244.686 177.084 244.521 180.391 244.438 183.78C244.438 184.772 244.397 185.723 244.314 186.632C244.314 187.624 244.314 188.616 244.314 189.608C244.314 194.155 244.521 198.495 244.934 202.628C245.347 206.761 246.05 210.275 247.042 213.168C248.117 216.061 249.481 218.004 251.134 218.996C251.713 219.327 252.333 219.492 252.994 219.492ZM312.547 230.032C311.638 230.032 311.183 229.66 311.183 228.916C311.183 228.42 311.348 227.965 311.679 227.552C312.836 224.989 314.2 221.724 315.771 217.756C317.424 213.871 319.16 209.531 320.979 204.736C322.798 199.941 324.575 194.94 326.311 189.732C328.047 184.524 329.618 179.357 331.023 174.232C328.791 176.051 326.518 177.952 324.203 179.936C321.888 181.92 319.656 184.317 317.507 187.128C314.779 190.517 312.671 194.527 311.183 199.156C309.778 203.868 309.075 208.208 309.075 212.176C309.075 216.971 310.067 220.567 312.051 222.964C312.299 223.212 312.423 223.377 312.423 223.46C312.423 223.46 312.382 223.46 312.299 223.46C312.299 223.543 312.258 223.584 312.175 223.584C311.844 223.584 311.431 223.46 310.935 223.212C310.522 222.964 310.108 222.592 309.695 222.096C308.042 220.36 306.843 218.252 306.099 215.772C305.272 213.375 304.859 210.771 304.859 207.96C304.859 204.736 305.479 201.471 306.719 198.164C307.959 194.857 309.778 191.757 312.175 188.864C315.564 184.731 318.995 181.135 322.467 178.076C325.939 175.017 329.204 172.124 332.263 169.396C333.09 166.172 333.792 163.031 334.371 159.972C334.95 156.913 335.363 154.02 335.611 151.292C335.859 148.316 336.024 145.629 336.107 143.232C336.19 140.752 336.231 138.52 336.231 136.536C336.231 134.304 336.107 132.403 335.859 130.832C334.536 132.651 333.214 135.007 331.891 137.9C330.568 140.793 329.328 143.811 328.171 146.952C327.096 150.093 326.228 153.069 325.567 155.88C324.906 158.608 324.575 160.757 324.575 162.328C324.575 162.659 324.575 162.948 324.575 163.196C324.658 163.444 324.699 163.692 324.699 163.94C324.699 164.436 324.12 164.684 322.963 164.684C320.4 164.684 318.582 164.229 317.507 163.32C316.432 162.411 315.895 161.047 315.895 159.228C315.895 157.492 315.978 155.301 316.143 152.656C316.308 149.928 316.432 147.076 316.515 144.1C316.68 141.041 316.763 138.148 316.763 135.42C316.763 130.708 316.474 127.36 315.895 125.376C315.316 123.392 314.324 122.4 312.919 122.4C312.258 122.4 311.472 122.689 310.563 123.268C309.654 123.764 308.62 124.012 307.463 124.012C307.05 124.012 306.76 123.888 306.595 123.64C306.678 123.805 307.05 123.557 307.711 122.896C308.455 122.235 309.654 121.532 311.307 120.788C313.043 120.044 315.399 119.672 318.375 119.672C319.863 119.672 320.979 119.879 321.723 120.292C322.55 120.623 323.087 121.615 323.335 123.268C323.583 124.921 323.707 127.691 323.707 131.576C323.707 134.469 323.624 137.693 323.459 141.248C323.294 144.72 323.087 148.027 322.839 151.168C322.591 154.309 322.302 156.913 321.971 158.98C322.467 157.409 323.17 155.343 324.079 152.78C324.988 150.217 325.98 147.448 327.055 144.472C328.212 141.413 329.287 138.479 330.279 135.668C331.354 132.775 332.304 130.295 333.131 128.228C333.958 126.161 334.495 124.756 334.743 124.012V123.888C334.743 123.805 334.743 123.764 334.743 123.764C334.826 123.764 334.867 123.723 334.867 123.64V123.764C335.115 123.516 335.611 123.392 336.355 123.392C338.091 123.392 339.29 124.177 339.951 125.748C340.695 127.319 341.15 129.261 341.315 131.576C341.48 133.891 341.563 136.164 341.563 138.396C341.563 142.199 341.315 146.208 340.819 150.424C340.406 154.557 339.868 158.773 339.207 163.072C340.86 161.419 342.39 159.683 343.795 157.864C345.2 156.045 346.399 154.103 347.391 152.036C347.804 151.044 348.342 150.217 349.003 149.556C349.664 148.895 350.16 148.564 350.491 148.564C350.656 148.564 350.739 148.729 350.739 149.06C350.739 149.639 350.45 150.548 349.871 151.788C348.3 155.591 346.482 158.815 344.415 161.46C342.431 164.023 340.364 166.337 338.215 168.404C336.892 174.769 335.404 180.969 333.751 187.004C332.098 193.039 330.444 198.495 328.791 203.372C327.138 208.332 325.691 212.383 324.451 215.524C323.211 218.748 322.384 220.732 321.971 221.476C320.318 224.535 318.582 226.725 316.763 228.048C315.027 229.371 313.622 230.032 312.547 230.032Z" fill="black"/>
</g>
<path id="riffy_2" d="M210.622 158.428C207.563 158.428 205.496 156.733 204.422 153.344C203.347 149.872 202.81 145.615 202.81 140.572C202.81 137.844 202.892 135.199 203.058 132.636C203.223 129.991 203.347 127.8 203.43 126.064C202.107 125.899 200.826 125.651 199.586 125.32C198.428 124.907 197.519 124.493 196.858 124.08C196.775 124.659 196.444 125.857 195.866 127.676C195.287 129.412 194.584 131.437 193.758 133.752C193.014 136.067 192.187 138.34 191.278 140.572C190.368 142.804 189.5 144.664 188.674 146.152C187.847 147.557 187.103 148.26 186.442 148.26C186.111 148.26 185.946 148.012 185.946 147.516C185.946 146.855 186.235 145.945 186.814 144.788C188.467 141.399 189.955 137.927 191.278 134.372C192.6 130.817 193.799 127.139 194.874 123.336C194.047 123.005 193.427 122.427 193.014 121.6C192.683 120.691 192.518 119.699 192.518 118.624C192.518 115.648 192.931 113.209 193.758 111.308C194.667 109.407 195.659 108.001 196.734 107.092C197.808 106.1 198.635 105.604 199.214 105.604C200.206 105.604 200.702 106.431 200.702 108.084C200.702 108.911 200.495 110.192 200.082 111.928C199.668 113.581 199.172 115.317 198.594 117.136C198.015 118.872 197.519 120.277 197.106 121.352C197.106 121.352 197.354 121.517 197.85 121.848C198.346 122.179 198.883 122.344 199.462 122.344C200.288 122.344 201.074 121.848 201.818 120.856C202.644 119.781 203.595 118.748 204.67 117.756C205.827 116.681 207.274 116.144 209.01 116.144C209.919 116.144 210.704 116.268 211.366 116.516C212.027 116.681 212.358 117.012 212.358 117.508V117.88C211.531 119.947 210.911 122.675 210.498 126.064C210.084 129.371 209.878 132.719 209.878 136.108C209.878 139.084 210.043 141.895 210.374 144.54C210.704 147.103 211.2 149.169 211.862 150.74C212.606 152.311 213.474 153.096 214.466 153.096C215.458 153.096 216.408 152.559 217.318 151.484C218.227 150.409 219.012 149.252 219.674 148.012C220.418 146.772 220.914 145.863 221.162 145.284C222.898 142.06 223.972 139.993 224.386 139.084C224.799 138.092 225.336 137.596 225.998 137.596C226.246 137.596 226.37 137.761 226.37 138.092C226.37 138.257 226.287 138.671 226.122 139.332C225.13 142.06 223.89 144.912 222.402 147.888C220.996 150.781 219.302 153.261 217.318 155.328C215.334 157.395 213.102 158.428 210.622 158.428ZM233.097 124.452C232.601 124.452 232.063 124.369 231.485 124.204C230.989 123.956 230.493 123.708 229.997 123.46C229.666 123.212 229.501 122.881 229.501 122.468C229.501 121.724 229.955 120.815 230.865 119.74C231.774 118.583 232.931 117.591 234.337 116.764C235.742 115.937 237.106 115.524 238.429 115.524C239.173 115.524 239.545 115.731 239.545 116.144C239.545 116.475 239.173 116.888 238.429 117.384C237.519 118.045 236.858 118.955 236.445 120.112C236.031 121.269 235.618 122.303 235.205 123.212C234.791 124.039 234.089 124.452 233.097 124.452ZM226.401 161.9C224.83 161.9 223.755 161.404 223.177 160.412C222.598 159.42 222.309 157.891 222.309 155.824C222.309 154.749 222.35 153.592 222.433 152.352C222.515 151.112 222.681 149.707 222.929 148.136C223.673 142.515 224.499 138.051 225.409 134.744C226.318 131.355 227.475 129.66 228.881 129.66C230.038 129.66 231.071 130.321 231.981 131.644C232.89 132.967 233.51 133.917 233.841 134.496C233.262 135.571 232.477 137.307 231.485 139.704C230.575 142.101 229.749 144.623 229.005 147.268C228.261 149.913 227.889 152.228 227.889 154.212C227.889 156.196 228.343 157.188 229.253 157.188C229.997 157.188 230.823 156.775 231.733 155.948C232.725 155.121 233.634 154.212 234.461 153.22C235.37 152.228 235.949 151.525 236.197 151.112C239.007 146.896 240.785 143.672 241.529 141.44C242.355 139.208 243.141 138.092 243.885 138.092C244.215 138.092 244.381 138.34 244.381 138.836C244.381 139.167 244.298 139.539 244.133 139.952C244.05 140.283 243.926 140.737 243.761 141.316C243.265 142.639 242.479 144.457 241.405 146.772C240.33 149.004 239.007 151.277 237.437 153.592C235.949 155.907 234.254 157.891 232.353 159.544C230.534 161.115 228.55 161.9 226.401 161.9ZM285.11 217.7C282.878 217.7 280.77 217.121 278.786 215.964C276.802 214.807 275.231 213.195 274.074 211.128C272.007 207.739 270.602 203.399 269.858 198.108C269.197 192.817 268.866 187.403 268.866 181.864C268.866 175.829 269.114 170.125 269.61 164.752C270.189 159.379 270.685 155.328 271.098 152.6C271.263 151.195 271.594 149.417 272.09 147.268C272.586 145.036 273.123 142.556 273.702 139.828L258.822 144.044C256.507 144.705 254.275 145.491 252.126 146.4C249.977 147.227 248.199 148.095 246.794 149.004L246.298 153.096C250.101 157.064 253.325 161.445 255.97 166.24C258.698 171.117 260.806 175.995 262.294 180.872C263.782 185.832 264.526 190.544 264.526 195.008C264.526 198.067 264.154 200.877 263.41 203.44C262.666 206.085 261.509 208.4 259.938 210.384C259.607 211.045 258.905 211.913 257.83 212.988C256.755 214.145 255.474 215.137 253.986 215.964C252.581 216.873 251.051 217.328 249.398 217.328C247.993 217.328 246.711 216.915 245.554 216.088C242.413 214.021 240.263 210.26 239.106 204.804C237.949 199.348 237.329 193.231 237.246 186.452C237.329 184.055 237.453 181.285 237.618 178.144C237.866 175.003 238.155 171.737 238.486 168.348C238.817 165.041 239.147 161.859 239.478 158.8C239.809 155.741 240.098 153.096 240.346 150.864C240.181 150.781 239.974 150.74 239.726 150.74C239.561 150.74 239.395 150.699 239.23 150.616C238.486 150.451 238.114 149.913 238.114 149.004C238.114 148.343 238.362 147.557 238.858 146.648C239.354 145.739 240.139 144.995 241.214 144.416C242.123 138.299 243.239 132.347 244.562 126.56C245.885 120.773 247.538 114.491 249.522 107.712C250.514 104.323 251.589 100.975 252.746 97.668C253.903 94.3613 255.019 91.1787 256.094 88.12C256.755 86.5493 257.334 85.3093 257.83 84.4C258.326 83.408 259.07 83.036 260.062 83.284C262.046 84.028 263.575 85.1027 264.65 86.508C264.65 86.508 264.65 86.5493 264.65 86.632C264.65 86.632 264.691 86.632 264.774 86.632C266.758 89.112 267.75 92.5427 267.75 96.924C267.75 101.223 266.923 106.017 265.27 111.308C263.617 116.599 261.426 121.889 258.698 127.18C255.97 132.471 252.953 137.348 249.646 141.812C252.787 140.985 256.507 140.035 260.806 138.96C265.187 137.885 269.775 136.769 274.57 135.612C275.562 131.479 276.595 127.139 277.67 122.592C278.827 117.963 279.943 113.457 281.018 109.076C282.175 104.612 283.25 100.561 284.242 96.924C285.234 93.204 286.061 90.1867 286.722 87.872C287.383 85.4747 287.797 84.1107 287.962 83.78C288.21 83.3667 288.499 83.16 288.83 83.16C289.491 83.16 290.194 83.532 290.938 84.276C291.682 84.9373 292.385 85.7227 293.046 86.632C293.707 87.4587 294.079 88.12 294.162 88.616C294.327 88.9467 294.451 89.3187 294.534 89.732C294.617 90.0627 294.658 90.5587 294.658 91.22C294.658 92.1293 294.451 93.452 294.038 95.188C293.707 96.924 293.087 99.404 292.178 102.628C290.359 108.249 288.541 113.499 286.722 118.376C284.903 123.253 283.291 128.461 281.886 134C287.011 132.843 292.013 131.809 296.89 130.9C301.85 129.991 306.314 129.247 310.282 128.668C314.25 128.089 317.391 127.8 319.706 127.8C320.119 127.8 320.491 127.8 320.822 127.8C321.235 127.8 321.607 127.841 321.938 127.924C322.434 128.007 322.682 128.172 322.682 128.42C322.682 128.585 322.517 128.792 322.186 129.04C321.855 129.205 321.525 129.288 321.194 129.288C319.541 129.371 317.143 129.743 314.002 130.404C310.943 131.065 307.595 131.851 303.958 132.76C300.321 133.587 296.849 134.496 293.542 135.488C290.318 136.397 287.714 137.224 285.73 137.968C291.517 140.2 296.477 143.341 300.61 147.392C304.743 151.36 307.926 155.989 310.158 161.28C312.473 166.488 313.63 172.151 313.63 178.268C313.63 179.095 313.589 179.88 313.506 180.624C313.506 181.368 313.465 182.153 313.382 182.98C313.051 186.121 312.142 189.387 310.654 192.776C309.249 196.248 307.471 199.555 305.322 202.696C303.173 205.92 300.775 208.731 298.13 211.128C295.567 213.608 292.922 215.427 290.194 216.584C288.623 217.328 286.929 217.7 285.11 217.7ZM248.53 139.084C251.506 134.785 254.275 130.115 256.838 125.072C259.401 120.029 261.467 115.111 263.038 110.316C264.609 105.439 265.394 101.14 265.394 97.42C265.394 94.8573 264.981 92.7493 264.154 91.096C262.914 94.072 261.633 97.1307 260.31 100.272C258.987 103.413 257.747 106.596 256.59 109.82C253.366 118.583 250.679 128.337 248.53 139.084ZM288.954 213.98C291.021 213.98 293.005 213.071 294.906 211.252C296.807 209.516 298.543 207.284 300.114 204.556C301.685 201.911 302.966 199.183 303.958 196.372C305.033 193.561 305.777 191.164 306.19 189.18C307.182 184.716 307.678 180.376 307.678 176.16C307.678 170.208 306.686 164.711 304.702 159.668C302.718 154.543 299.701 150.161 295.65 146.524C291.682 142.887 286.681 140.324 280.646 138.836C280.315 140.324 279.985 141.895 279.654 143.548C279.406 145.119 279.158 146.731 278.91 148.384C278.249 153.179 277.67 158.345 277.174 163.884C276.678 169.423 276.43 174.879 276.43 180.252C276.43 186.783 276.885 192.735 277.794 198.108C278.703 203.564 280.274 207.615 282.506 210.26C284.655 212.74 286.805 213.98 288.954 213.98ZM252.994 212.492C253.903 212.492 254.771 212.203 255.598 211.624C255.763 211.459 255.846 211.376 255.846 211.376C257.747 209.64 259.111 207.449 259.938 204.804C260.847 202.241 261.302 199.389 261.302 196.248C261.302 192.28 260.682 188.064 259.442 183.6C258.202 179.136 256.425 174.631 254.11 170.084C251.795 165.537 249.026 161.239 245.802 157.188C245.471 160.412 245.182 163.636 244.934 166.86C244.686 170.084 244.521 173.391 244.438 176.78C244.438 177.772 244.397 178.723 244.314 179.632C244.314 180.624 244.314 181.616 244.314 182.608C244.314 187.155 244.521 191.495 244.934 195.628C245.347 199.761 246.05 203.275 247.042 206.168C248.117 209.061 249.481 211.004 251.134 211.996C251.713 212.327 252.333 212.492 252.994 212.492ZM312.547 223.032C311.638 223.032 311.183 222.66 311.183 221.916C311.183 221.42 311.348 220.965 311.679 220.552C312.836 217.989 314.2 214.724 315.771 210.756C317.424 206.871 319.16 202.531 320.979 197.736C322.798 192.941 324.575 187.94 326.311 182.732C328.047 177.524 329.618 172.357 331.023 167.232C328.791 169.051 326.518 170.952 324.203 172.936C321.888 174.92 319.656 177.317 317.507 180.128C314.779 183.517 312.671 187.527 311.183 192.156C309.778 196.868 309.075 201.208 309.075 205.176C309.075 209.971 310.067 213.567 312.051 215.964C312.299 216.212 312.423 216.377 312.423 216.46C312.423 216.46 312.382 216.46 312.299 216.46C312.299 216.543 312.258 216.584 312.175 216.584C311.844 216.584 311.431 216.46 310.935 216.212C310.522 215.964 310.108 215.592 309.695 215.096C308.042 213.36 306.843 211.252 306.099 208.772C305.272 206.375 304.859 203.771 304.859 200.96C304.859 197.736 305.479 194.471 306.719 191.164C307.959 187.857 309.778 184.757 312.175 181.864C315.564 177.731 318.995 174.135 322.467 171.076C325.939 168.017 329.204 165.124 332.263 162.396C333.09 159.172 333.792 156.031 334.371 152.972C334.95 149.913 335.363 147.02 335.611 144.292C335.859 141.316 336.024 138.629 336.107 136.232C336.19 133.752 336.231 131.52 336.231 129.536C336.231 127.304 336.107 125.403 335.859 123.832C334.536 125.651 333.214 128.007 331.891 130.9C330.568 133.793 329.328 136.811 328.171 139.952C327.096 143.093 326.228 146.069 325.567 148.88C324.906 151.608 324.575 153.757 324.575 155.328C324.575 155.659 324.575 155.948 324.575 156.196C324.658 156.444 324.699 156.692 324.699 156.94C324.699 157.436 324.12 157.684 322.963 157.684C320.4 157.684 318.582 157.229 317.507 156.32C316.432 155.411 315.895 154.047 315.895 152.228C315.895 150.492 315.978 148.301 316.143 145.656C316.308 142.928 316.432 140.076 316.515 137.1C316.68 134.041 316.763 131.148 316.763 128.42C316.763 123.708 316.474 120.36 315.895 118.376C315.316 116.392 314.324 115.4 312.919 115.4C312.258 115.4 311.472 115.689 310.563 116.268C309.654 116.764 308.62 117.012 307.463 117.012C307.05 117.012 306.76 116.888 306.595 116.64C306.678 116.805 307.05 116.557 307.711 115.896C308.455 115.235 309.654 114.532 311.307 113.788C313.043 113.044 315.399 112.672 318.375 112.672C319.863 112.672 320.979 112.879 321.723 113.292C322.55 113.623 323.087 114.615 323.335 116.268C323.583 117.921 323.707 120.691 323.707 124.576C323.707 127.469 323.624 130.693 323.459 134.248C323.294 137.72 323.087 141.027 322.839 144.168C322.591 147.309 322.302 149.913 321.971 151.98C322.467 150.409 323.17 148.343 324.079 145.78C324.988 143.217 325.98 140.448 327.055 137.472C328.212 134.413 329.287 131.479 330.279 128.668C331.354 125.775 332.304 123.295 333.131 121.228C333.958 119.161 334.495 117.756 334.743 117.012V116.888C334.743 116.805 334.743 116.764 334.743 116.764C334.826 116.764 334.867 116.723 334.867 116.64V116.764C335.115 116.516 335.611 116.392 336.355 116.392C338.091 116.392 339.29 117.177 339.951 118.748C340.695 120.319 341.15 122.261 341.315 124.576C341.48 126.891 341.563 129.164 341.563 131.396C341.563 135.199 341.315 139.208 340.819 143.424C340.406 147.557 339.868 151.773 339.207 156.072C340.86 154.419 342.39 152.683 343.795 150.864C345.2 149.045 346.399 147.103 347.391 145.036C347.804 144.044 348.342 143.217 349.003 142.556C349.664 141.895 350.16 141.564 350.491 141.564C350.656 141.564 350.739 141.729 350.739 142.06C350.739 142.639 350.45 143.548 349.871 144.788C348.3 148.591 346.482 151.815 344.415 154.46C342.431 157.023 340.364 159.337 338.215 161.404C336.892 167.769 335.404 173.969 333.751 180.004C332.098 186.039 330.444 191.495 328.791 196.372C327.138 201.332 325.691 205.383 324.451 208.524C323.211 211.748 322.384 213.732 321.971 214.476C320.318 217.535 318.582 219.725 316.763 221.048C315.027 222.371 313.622 223.032 312.547 223.032Z" fill="#FFAE00"/>
</g>
<g id="Group 11">
<g id="simple and powerful lavalink client">
<path d="M539.578 134.346C538.829 134.346 538.178 134.245 537.625 134.042C537.072 133.839 536.607 133.573 536.229 133.244C535.851 132.908 535.543 132.554 535.305 132.183C535.067 131.805 534.947 131.616 534.947 131.616L536.701 130.598C536.701 130.598 536.799 130.748 536.995 131.049C537.191 131.35 537.405 131.599 537.636 131.795C537.867 131.991 538.157 132.155 538.507 132.288C538.857 132.421 539.274 132.488 539.757 132.488C540.373 132.488 540.877 132.369 541.269 132.131C541.661 131.886 541.895 131.553 541.972 131.133C542.042 130.748 541.941 130.437 541.668 130.199C541.402 129.954 540.719 129.681 539.62 129.38C538.199 129.002 537.265 128.529 536.817 127.962C536.376 127.395 536.229 126.702 536.376 125.883C536.537 124.973 537.016 124.252 537.814 123.72C538.619 123.181 539.617 122.912 540.807 122.912C541.5 122.912 542.098 122.999 542.602 123.174C543.106 123.349 543.519 123.566 543.841 123.825C544.163 124.084 544.433 124.364 544.65 124.665C544.867 124.959 544.975 125.106 544.975 125.106L543.243 126.114C543.243 126.114 543.162 126.009 543.001 125.799C542.84 125.589 542.658 125.411 542.455 125.264C542.259 125.117 542.014 124.998 541.72 124.907C541.433 124.816 541.097 124.77 540.712 124.77C540.152 124.77 539.669 124.886 539.263 125.117C538.864 125.341 538.63 125.645 538.56 126.03C538.504 126.352 538.577 126.625 538.78 126.849C538.99 127.073 539.617 127.325 540.66 127.605C542.221 128.018 543.232 128.512 543.694 129.086C544.163 129.653 544.324 130.356 544.177 131.196C544.002 132.169 543.491 132.939 542.644 133.506C541.797 134.066 540.775 134.346 539.578 134.346ZM545.686 134L547.576 123.258H549.865L547.964 134H545.686ZM549.34 121.232C548.948 121.232 548.612 121.095 548.332 120.822C548.059 120.542 547.922 120.206 547.922 119.814C547.922 119.408 548.059 119.076 548.332 118.817C548.612 118.551 548.948 118.418 549.34 118.418C549.746 118.418 550.082 118.551 550.348 118.817C550.614 119.076 550.747 119.408 550.747 119.814C550.747 120.206 550.614 120.542 550.348 120.822C550.082 121.095 549.746 121.232 549.34 121.232ZM550.697 134L552.597 123.258H554.771L554.424 125.169L554.288 124.833H554.55C554.963 124.238 555.499 123.769 556.157 123.426C556.822 123.083 557.483 122.912 558.141 122.912C558.932 122.912 559.59 123.104 560.115 123.489C560.647 123.874 560.997 124.368 561.165 124.97C561.648 124.333 562.243 123.832 562.95 123.468C563.664 123.097 564.406 122.912 565.176 122.912C566.317 122.912 567.182 123.293 567.77 124.056C568.358 124.812 568.54 125.813 568.316 127.059L567.077 134H564.798L565.953 127.479C566.1 126.653 566.02 126.016 565.712 125.568C565.404 125.113 564.903 124.886 564.21 124.886C563.454 124.886 562.786 125.169 562.205 125.736C561.631 126.296 561.263 127.038 561.102 127.962L560.031 134H557.753L558.908 127.458C559.055 126.576 558.985 125.929 558.698 125.516C558.418 125.096 557.903 124.886 557.154 124.886C556.426 124.886 555.765 125.176 555.17 125.757C554.582 126.331 554.211 127.049 554.057 127.91L552.986 134H550.697ZM568.818 138.526L571.495 123.258H573.69L573.322 125.327L572.818 124.718H573.49C573.945 124.144 574.498 123.699 575.149 123.384C575.807 123.069 576.528 122.912 577.312 122.912C578.789 122.912 579.927 123.479 580.725 124.613C581.523 125.747 581.775 127.171 581.481 128.886C581.194 130.517 580.511 131.837 579.433 132.845C578.355 133.846 577.12 134.346 575.727 134.346C574.929 134.346 574.204 134.171 573.553 133.821C572.909 133.464 572.468 133.016 572.23 132.477H572.167L571.107 138.526H568.818ZM575.422 132.351C576.346 132.351 577.162 132.008 577.869 131.322C578.583 130.636 579.034 129.754 579.223 128.676C579.412 127.584 579.258 126.681 578.761 125.967C578.264 125.246 577.533 124.886 576.567 124.886C575.643 124.886 574.827 125.218 574.12 125.883C573.42 126.548 572.976 127.43 572.787 128.529C572.598 129.614 572.752 130.524 573.249 131.259C573.746 131.987 574.47 132.351 575.422 132.351ZM582.566 134L585.212 118.964H587.501L584.844 134H582.566ZM592.602 134.346C590.873 134.346 589.568 133.786 588.686 132.666C587.804 131.539 587.517 130.115 587.825 128.393C588.098 126.797 588.798 125.484 589.925 124.455C591.052 123.426 592.385 122.912 593.925 122.912C595.43 122.912 596.613 123.405 597.474 124.392C598.342 125.379 598.675 126.573 598.472 127.973L598.283 129.065H588.917L589.2 127.532H596.288C596.372 126.72 596.186 126.069 595.731 125.579C595.276 125.082 594.639 124.833 593.82 124.833C592.875 124.833 592.06 125.173 591.374 125.852C590.688 126.524 590.247 127.423 590.051 128.55C589.848 129.733 589.998 130.678 590.502 131.385C591.013 132.092 591.78 132.446 592.802 132.446C593.285 132.446 593.722 132.372 594.114 132.225C594.506 132.078 594.846 131.889 595.133 131.658C595.427 131.42 595.752 131.067 596.109 130.598L597.632 131.658C597.226 132.267 596.785 132.764 596.309 133.149C595.84 133.534 595.29 133.828 594.66 134.032C594.037 134.241 593.351 134.346 592.602 134.346ZM607.364 134.346C606.216 134.346 605.334 133.986 604.718 133.265C604.109 132.544 603.896 131.651 604.078 130.587C604.267 129.509 604.795 128.673 605.663 128.078C606.531 127.483 607.634 127.185 608.971 127.185C609.503 127.185 610.056 127.248 610.63 127.374C611.204 127.493 611.673 127.647 612.037 127.836L612.163 127.217C612.303 126.503 612.156 125.918 611.722 125.463C611.295 125.001 610.675 124.77 609.863 124.77C609.394 124.77 608.999 124.819 608.677 124.917C608.355 125.015 608.061 125.148 607.795 125.316C607.536 125.477 607.28 125.659 607.028 125.862C606.783 126.065 606.661 126.167 606.661 126.167L605.453 124.896C605.453 124.896 605.614 124.753 605.936 124.466C606.258 124.179 606.626 123.92 607.039 123.689C607.459 123.458 607.917 123.272 608.414 123.132C608.918 122.985 609.52 122.912 610.22 122.912C611.676 122.912 612.786 123.325 613.549 124.151C614.312 124.97 614.574 126.055 614.336 127.406L613.181 134H610.987L611.354 131.931L611.522 132.53H611.186C610.738 133.09 610.178 133.534 609.506 133.863C608.841 134.185 608.127 134.346 607.364 134.346ZM608.141 132.582C608.995 132.582 609.769 132.271 610.462 131.648C611.155 131.025 611.596 130.262 611.785 129.359C611.505 129.17 611.144 129.009 610.703 128.876C610.269 128.743 609.79 128.676 609.265 128.676C608.446 128.676 607.774 128.848 607.249 129.191C606.724 129.534 606.409 130.013 606.304 130.629C606.199 131.203 606.314 131.672 606.65 132.036C606.993 132.4 607.49 132.582 608.141 132.582ZM615.686 134L617.576 123.258H619.76L619.424 125.117L619.193 124.833H619.54C619.967 124.238 620.52 123.769 621.199 123.426C621.885 123.083 622.609 122.912 623.372 122.912C624.534 122.912 625.416 123.293 626.018 124.056C626.627 124.812 626.82 125.813 626.596 127.059L625.378 134H623.089L624.244 127.479C624.384 126.667 624.293 126.034 623.971 125.579C623.649 125.117 623.113 124.886 622.364 124.886C621.559 124.886 620.842 125.173 620.212 125.747C619.589 126.314 619.197 127.052 619.036 127.962L617.965 134H615.686ZM632.445 134.346C630.961 134.346 629.82 133.779 629.022 132.645C628.224 131.511 627.972 130.087 628.266 128.372C628.553 126.741 629.232 125.425 630.303 124.424C631.381 123.416 632.617 122.912 634.01 122.912C634.808 122.912 635.522 123.083 636.152 123.426C636.782 123.762 637.23 124.207 637.496 124.76H637.559L638.588 118.964H640.877L638.241 134H636.047L636.393 132.005L636.824 132.498L636.246 132.509C635.798 133.097 635.249 133.552 634.598 133.874C633.947 134.189 633.229 134.346 632.445 134.346ZM633.18 132.372C634.097 132.372 634.909 132.029 635.616 131.343C636.323 130.657 636.768 129.782 636.95 128.718C637.146 127.612 636.995 126.702 636.498 125.988C636.001 125.267 635.277 124.907 634.325 124.907C633.394 124.907 632.571 125.25 631.857 125.936C631.15 126.622 630.706 127.5 630.524 128.571C630.328 129.663 630.478 130.57 630.975 131.291C631.479 132.012 632.214 132.372 633.18 132.372ZM644.758 138.526L647.435 123.258H649.63L649.262 125.327L648.758 124.718H649.43C649.885 124.144 650.438 123.699 651.089 123.384C651.747 123.069 652.468 122.912 653.252 122.912C654.729 122.912 655.867 123.479 656.665 124.613C657.463 125.747 657.715 127.171 657.421 128.886C657.134 130.517 656.451 131.837 655.373 132.845C654.295 133.846 653.06 134.346 651.667 134.346C650.869 134.346 650.144 134.171 649.493 133.821C648.849 133.464 648.408 133.016 648.17 132.477H648.107L647.047 138.526H644.758ZM651.362 132.351C652.286 132.351 653.102 132.008 653.809 131.322C654.523 130.636 654.974 129.754 655.163 128.676C655.352 127.584 655.198 126.681 654.701 125.967C654.204 125.246 653.473 124.886 652.507 124.886C651.583 124.886 650.767 125.218 650.06 125.883C649.36 126.548 648.916 127.43 648.727 128.529C648.538 129.614 648.692 130.524 649.189 131.259C649.686 131.987 650.41 132.351 651.362 132.351ZM663.746 134.346C662.052 134.346 660.746 133.776 659.829 132.635C658.919 131.487 658.604 130.069 658.884 128.382C659.178 126.758 659.913 125.442 661.089 124.434C662.265 123.419 663.637 122.912 665.205 122.912C666.885 122.912 668.194 123.479 669.132 124.613C670.07 125.747 670.396 127.164 670.109 128.865C669.815 130.461 669.073 131.774 667.883 132.803C666.7 133.832 665.321 134.346 663.746 134.346ZM663.924 132.351C664.876 132.351 665.72 132.012 666.455 131.333C667.197 130.647 667.662 129.772 667.851 128.708C668.054 127.574 667.883 126.657 667.337 125.957C666.791 125.257 666.024 124.907 665.037 124.907C664.071 124.907 663.224 125.243 662.496 125.915C661.775 126.58 661.324 127.451 661.142 128.529C660.946 129.649 661.114 130.566 661.646 131.28C662.178 131.994 662.937 132.351 663.924 132.351ZM673.161 134L671.617 123.258H673.833L674.694 130.304L674.778 131.238H674.841L675.24 130.367L678.684 123.258H680.857L681.844 130.304L681.939 131.238H682.002L682.39 130.325L685.729 123.258H687.987L682.611 134H680.458L679.398 126.734L679.335 125.957H679.261L678.894 126.734L675.324 134H673.161ZM692.414 134.346C690.685 134.346 689.379 133.786 688.497 132.666C687.615 131.539 687.328 130.115 687.636 128.393C687.909 126.797 688.609 125.484 689.736 124.455C690.863 123.426 692.197 122.912 693.737 122.912C695.242 122.912 696.425 123.405 697.286 124.392C698.154 125.379 698.486 126.573 698.283 127.973L698.094 129.065H688.728L689.012 127.532H696.099C696.183 126.72 695.998 126.069 695.543 125.579C695.088 125.082 694.451 124.833 693.632 124.833C692.687 124.833 691.871 125.173 691.185 125.852C690.499 126.524 690.058 127.423 689.862 128.55C689.659 129.733 689.81 130.678 690.314 131.385C690.825 132.092 691.591 132.446 692.613 132.446C693.096 132.446 693.534 132.372 693.926 132.225C694.318 132.078 694.657 131.889 694.944 131.658C695.238 131.42 695.564 131.067 695.921 130.598L697.443 131.658C697.037 132.267 696.596 132.764 696.12 133.149C695.651 133.534 695.102 133.828 694.472 134.032C693.849 134.241 693.163 134.346 692.414 134.346ZM699.245 134L701.125 123.258H703.309L702.952 125.201L702.763 124.949H703.067C703.41 124.319 703.883 123.822 704.485 123.458C705.087 123.094 705.696 122.912 706.312 122.912C706.529 122.912 706.725 122.926 706.9 122.954C707.082 122.982 707.267 123.027 707.456 123.09C707.652 123.146 707.75 123.174 707.75 123.174L707.351 125.421C707.351 125.421 707.26 125.386 707.078 125.316C706.896 125.246 706.704 125.19 706.501 125.148C706.305 125.106 706.077 125.085 705.818 125.085C705.027 125.085 704.324 125.369 703.708 125.936C703.099 126.503 702.714 127.245 702.553 128.162L701.524 134H699.245ZM708.339 125.159L708.685 123.258H715.405L715.069 125.159H708.339ZM708.633 134L710.733 122.019C710.922 120.962 711.377 120.133 712.098 119.531C712.819 118.929 713.715 118.628 714.786 118.628C715.045 118.628 715.29 118.645 715.521 118.68C715.759 118.708 715.993 118.75 716.224 118.806C716.462 118.855 716.581 118.88 716.581 118.88L716.235 120.822C716.235 120.822 716.154 120.801 715.993 120.759C715.832 120.71 715.654 120.672 715.458 120.644C715.269 120.616 715.073 120.602 714.87 120.602C714.401 120.602 713.991 120.752 713.641 121.053C713.291 121.347 713.071 121.75 712.98 122.261L712.707 123.804L712.644 124.235L710.922 134H708.633ZM719.354 134.346C718.185 134.346 717.272 133.961 716.614 133.191C715.963 132.421 715.76 131.329 716.005 129.915L717.17 123.258H719.459L718.315 129.747C718.161 130.622 718.248 131.291 718.577 131.753C718.913 132.215 719.438 132.446 720.152 132.446C720.985 132.446 721.71 132.155 722.326 131.574C722.942 130.993 723.327 130.269 723.481 129.401L724.562 123.258H726.851L724.951 134H722.798L723.239 131.469L724.1 132.488H722.998C722.599 133.027 722.095 133.471 721.486 133.821C720.877 134.171 720.166 134.346 719.354 134.346ZM727.556 134L730.202 118.964H732.491L729.835 134H727.556ZM535.305 160L537.961 144.964H541.258L538.602 160H535.305ZM544.268 160.368C543.12 160.368 542.245 160.014 541.643 159.307C541.041 158.6 540.835 157.711 541.024 156.64C541.213 155.555 541.738 154.722 542.599 154.141C543.46 153.56 544.576 153.269 545.948 153.269C546.48 153.269 547.009 153.322 547.534 153.427C548.059 153.532 548.503 153.668 548.867 153.836L548.993 153.248C549.112 152.632 548.99 152.142 548.626 151.778C548.269 151.407 547.719 151.222 546.977 151.222C546.529 151.222 546.137 151.271 545.801 151.369C545.472 151.46 545.164 151.586 544.877 151.747C544.59 151.901 544.321 152.069 544.069 152.251C543.824 152.433 543.701 152.524 543.701 152.524L542.389 150.707C542.389 150.707 542.581 150.574 542.966 150.308C543.351 150.042 543.789 149.797 544.279 149.573C544.769 149.349 545.29 149.171 545.843 149.038C546.403 148.905 547.026 148.838 547.712 148.838C549.308 148.838 550.505 149.258 551.303 150.098C552.108 150.931 552.388 152.062 552.143 153.49L550.988 160H547.849L548.206 157.942L548.374 158.677H548.006C547.6 159.181 547.065 159.59 546.4 159.905C545.742 160.213 545.031 160.368 544.268 160.368ZM545.612 158.246C546.333 158.246 546.974 157.977 547.534 157.438C548.101 156.899 548.468 156.206 548.636 155.359V155.348C548.398 155.208 548.101 155.089 547.744 154.991C547.394 154.893 547.005 154.844 546.578 154.844C545.885 154.844 545.315 154.995 544.867 155.296C544.426 155.59 544.16 156.003 544.069 156.535C543.978 157.039 544.072 157.452 544.352 157.774C544.639 158.089 545.059 158.246 545.612 158.246ZM555.914 160L553.499 149.195H556.712L557.92 155.684L558.046 156.682H558.119L558.602 155.674L562.025 149.195H565.49L559.18 160H555.914ZM567.586 160.368C566.438 160.368 565.563 160.014 564.961 159.307C564.359 158.6 564.152 157.711 564.341 156.64C564.53 155.555 565.055 154.722 565.916 154.141C566.777 153.56 567.894 153.269 569.266 153.269C569.798 153.269 570.326 153.322 570.851 153.427C571.376 153.532 571.821 153.668 572.185 153.836L572.311 153.248C572.43 152.632 572.307 152.142 571.943 151.778C571.586 151.407 571.037 151.222 570.295 151.222C569.847 151.222 569.455 151.271 569.119 151.369C568.79 151.46 568.482 151.586 568.195 151.747C567.908 151.901 567.638 152.069 567.386 152.251C567.141 152.433 567.019 152.524 567.019 152.524L565.706 150.707C565.706 150.707 565.899 150.574 566.284 150.308C566.669 150.042 567.106 149.797 567.596 149.573C568.086 149.349 568.608 149.171 569.161 149.038C569.721 148.905 570.344 148.838 571.03 148.838C572.626 148.838 573.823 149.258 574.621 150.098C575.426 150.931 575.706 152.062 575.461 153.49L574.306 160H571.166L571.523 157.942L571.691 158.677H571.324C570.918 159.181 570.382 159.59 569.717 159.905C569.059 160.213 568.349 160.368 567.586 160.368ZM568.93 158.246C569.651 158.246 570.291 157.977 570.851 157.438C571.418 156.899 571.786 156.206 571.954 155.359V155.348C571.716 155.208 571.418 155.089 571.061 154.991C570.711 154.893 570.323 154.844 569.896 154.844C569.203 154.844 568.632 154.995 568.184 155.296C567.743 155.59 567.477 156.003 567.386 156.535C567.295 157.039 567.39 157.452 567.67 157.774C567.957 158.089 568.377 158.246 568.93 158.246ZM576.71 160L579.366 144.964H582.663L580.007 160H576.71ZM582.618 160L584.518 149.195H587.815L585.915 160H582.618ZM586.797 147.526C586.279 147.526 585.841 147.351 585.484 147.001C585.127 146.644 584.949 146.206 584.949 145.688C584.949 145.163 585.127 144.729 585.484 144.386C585.841 144.043 586.279 143.872 586.797 143.872C587.329 143.872 587.766 144.043 588.109 144.386C588.459 144.729 588.634 145.163 588.634 145.688C588.634 146.206 588.459 146.644 588.109 147.001C587.766 147.351 587.329 147.526 586.797 147.526ZM588.502 160L590.413 149.195H593.552L593.174 151.285L592.849 150.77H593.342C593.783 150.168 594.343 149.696 595.022 149.353C595.701 149.01 596.422 148.838 597.185 148.838C598.319 148.838 599.194 149.216 599.81 149.972C600.426 150.728 600.626 151.712 600.409 152.923L599.159 160H595.852L596.975 153.626C597.094 152.975 597.021 152.464 596.755 152.093C596.489 151.715 596.058 151.526 595.463 151.526C594.826 151.526 594.266 151.75 593.783 152.198C593.307 152.639 593.003 153.22 592.87 153.941L591.809 160H588.502ZM604.023 158.299L604.726 154.372L610.333 149.195H614.596L604.023 158.299ZM601.555 160L604.201 144.964H607.498L604.852 160H601.555ZM609.021 160L606.732 154.739L609.178 152.482L612.79 160H609.021ZM623.877 160.346C622.176 160.346 620.877 159.783 619.981 158.656C619.092 157.529 618.802 156.094 619.11 154.351C619.39 152.734 620.1 151.425 621.241 150.424C622.389 149.416 623.737 148.912 625.284 148.912C626.082 148.912 626.768 149.031 627.342 149.269C627.923 149.507 628.416 149.846 628.822 150.287C629.235 150.721 629.578 151.274 629.851 151.946C629.844 151.946 629.841 151.946 629.841 151.946C629.848 151.946 629.851 151.946 629.851 151.946L627.825 152.765C627.601 152.254 627.38 151.883 627.163 151.652C626.946 151.421 626.673 151.239 626.344 151.106C626.022 150.973 625.641 150.907 625.2 150.907C624.255 150.907 623.425 151.239 622.711 151.904C622.004 152.569 621.556 153.451 621.367 154.55C621.164 155.656 621.318 156.566 621.829 157.28C622.347 157.994 623.103 158.351 624.097 158.351C624.531 158.351 624.913 158.292 625.242 158.173C625.578 158.054 625.893 157.879 626.187 157.648C626.488 157.41 626.824 157.018 627.195 156.472L629.032 157.375C628.591 158.117 628.129 158.684 627.646 159.076C627.163 159.468 626.607 159.776 625.977 160C625.347 160.231 624.647 160.346 623.877 160.346ZM630.329 160L632.975 144.964H635.264L632.607 160H630.329ZM635.346 160L637.236 149.258H639.525L637.625 160H635.346ZM639 147.232C638.608 147.232 638.272 147.095 637.992 146.822C637.719 146.542 637.583 146.206 637.583 145.814C637.583 145.408 637.719 145.076 637.992 144.817C638.272 144.551 638.608 144.418 639 144.418C639.406 144.418 639.742 144.551 640.008 144.817C640.274 145.076 640.407 145.408 640.407 145.814C640.407 146.206 640.274 146.542 640.008 146.822C639.742 147.095 639.406 147.232 639 147.232ZM645.513 160.346C643.784 160.346 642.478 159.786 641.596 158.666C640.714 157.539 640.427 156.115 640.735 154.393C641.008 152.797 641.708 151.484 642.835 150.455C643.962 149.426 645.296 148.912 646.836 148.912C648.341 148.912 649.524 149.405 650.385 150.392C651.253 151.379 651.585 152.573 651.382 153.973L651.193 155.065H641.827L642.111 153.532H649.198C649.282 152.72 649.097 152.069 648.642 151.579C648.187 151.082 647.55 150.833 646.731 150.833C645.786 150.833 644.97 151.173 644.284 151.852C643.598 152.524 643.157 153.423 642.961 154.55C642.758 155.733 642.909 156.678 643.413 157.385C643.924 158.092 644.69 158.446 645.712 158.446C646.195 158.446 646.633 158.372 647.025 158.225C647.417 158.078 647.756 157.889 648.043 157.658C648.337 157.42 648.663 157.067 649.02 156.598L650.542 157.658C650.136 158.267 649.695 158.764 649.219 159.149C648.75 159.534 648.201 159.828 647.571 160.032C646.948 160.241 646.262 160.346 645.513 160.346ZM652.334 160L654.224 149.258H656.408L656.072 151.117L655.841 150.833H656.187C656.614 150.238 657.167 149.769 657.846 149.426C658.532 149.083 659.257 148.912 660.02 148.912C661.182 148.912 662.064 149.293 662.666 150.056C663.275 150.812 663.467 151.813 663.243 153.059L662.025 160H659.736L660.891 153.479C661.031 152.667 660.94 152.034 660.618 151.579C660.296 151.117 659.761 150.886 659.012 150.886C658.207 150.886 657.489 151.173 656.859 151.747C656.236 152.314 655.844 153.052 655.683 153.962L654.612 160H652.334ZM668.778 160.346C667.777 160.346 667.028 160.049 666.531 159.454C666.034 158.852 665.873 158.047 666.048 157.039L667.938 146.266H670.227L668.389 156.755C668.284 157.322 668.326 157.735 668.515 157.994C668.704 158.253 669.023 158.383 669.471 158.383C669.597 158.383 669.744 158.369 669.912 158.341C670.08 158.313 670.269 158.264 670.479 158.194C670.689 158.124 670.794 158.089 670.794 158.089L670.437 160.063C670.437 160.063 670.339 160.091 670.143 160.147C669.954 160.21 669.737 160.259 669.492 160.294C669.247 160.329 669.009 160.346 668.778 160.346ZM665.302 151.159L665.638 149.258H672.316L671.98 151.159H665.302Z" fill="black"/>
</g>
<g id="simple and powerful lavalink client_2">
<path d="M539.578 131.346C538.829 131.346 538.178 131.245 537.625 131.042C537.072 130.839 536.607 130.573 536.229 130.244C535.851 129.908 535.543 129.554 535.305 129.183C535.067 128.805 534.947 128.616 534.947 128.616L536.701 127.598C536.701 127.598 536.799 127.748 536.995 128.049C537.191 128.35 537.405 128.599 537.636 128.795C537.867 128.991 538.157 129.155 538.507 129.288C538.857 129.421 539.274 129.488 539.757 129.488C540.373 129.488 540.877 129.369 541.269 129.131C541.661 128.886 541.895 128.553 541.972 128.133C542.042 127.748 541.941 127.437 541.668 127.199C541.402 126.954 540.719 126.681 539.62 126.38C538.199 126.002 537.265 125.529 536.817 124.962C536.376 124.395 536.229 123.702 536.376 122.883C536.537 121.973 537.016 121.252 537.814 120.72C538.619 120.181 539.617 119.912 540.807 119.912C541.5 119.912 542.098 119.999 542.602 120.174C543.106 120.349 543.519 120.566 543.841 120.825C544.163 121.084 544.433 121.364 544.65 121.665C544.867 121.959 544.975 122.106 544.975 122.106L543.243 123.114C543.243 123.114 543.162 123.009 543.001 122.799C542.84 122.589 542.658 122.411 542.455 122.264C542.259 122.117 542.014 121.998 541.72 121.907C541.433 121.816 541.097 121.77 540.712 121.77C540.152 121.77 539.669 121.886 539.263 122.117C538.864 122.341 538.63 122.645 538.56 123.03C538.504 123.352 538.577 123.625 538.78 123.849C538.99 124.073 539.617 124.325 540.66 124.605C542.221 125.018 543.232 125.512 543.694 126.086C544.163 126.653 544.324 127.356 544.177 128.196C544.002 129.169 543.491 129.939 542.644 130.506C541.797 131.066 540.775 131.346 539.578 131.346ZM545.686 131L547.576 120.258H549.865L547.964 131H545.686ZM549.34 118.232C548.948 118.232 548.612 118.095 548.332 117.822C548.059 117.542 547.922 117.206 547.922 116.814C547.922 116.408 548.059 116.076 548.332 115.817C548.612 115.551 548.948 115.418 549.34 115.418C549.746 115.418 550.082 115.551 550.348 115.817C550.614 116.076 550.747 116.408 550.747 116.814C550.747 117.206 550.614 117.542 550.348 117.822C550.082 118.095 549.746 118.232 549.34 118.232ZM550.697 131L552.597 120.258H554.771L554.424 122.169L554.288 121.833H554.55C554.963 121.238 555.499 120.769 556.157 120.426C556.822 120.083 557.483 119.912 558.141 119.912C558.932 119.912 559.59 120.104 560.115 120.489C560.647 120.874 560.997 121.368 561.165 121.97C561.648 121.333 562.243 120.832 562.95 120.468C563.664 120.097 564.406 119.912 565.176 119.912C566.317 119.912 567.182 120.293 567.77 121.056C568.358 121.812 568.54 122.813 568.316 124.059L567.077 131H564.798L565.953 124.479C566.1 123.653 566.02 123.016 565.712 122.568C565.404 122.113 564.903 121.886 564.21 121.886C563.454 121.886 562.786 122.169 562.205 122.736C561.631 123.296 561.263 124.038 561.102 124.962L560.031 131H557.753L558.908 124.458C559.055 123.576 558.985 122.929 558.698 122.516C558.418 122.096 557.903 121.886 557.154 121.886C556.426 121.886 555.765 122.176 555.17 122.757C554.582 123.331 554.211 124.049 554.057 124.91L552.986 131H550.697ZM568.818 135.526L571.495 120.258H573.69L573.322 122.327L572.818 121.718H573.49C573.945 121.144 574.498 120.699 575.149 120.384C575.807 120.069 576.528 119.912 577.312 119.912C578.789 119.912 579.927 120.479 580.725 121.613C581.523 122.747 581.775 124.171 581.481 125.886C581.194 127.517 580.511 128.837 579.433 129.845C578.355 130.846 577.12 131.346 575.727 131.346C574.929 131.346 574.204 131.171 573.553 130.821C572.909 130.464 572.468 130.016 572.23 129.477H572.167L571.107 135.526H568.818ZM575.422 129.351C576.346 129.351 577.162 129.008 577.869 128.322C578.583 127.636 579.034 126.754 579.223 125.676C579.412 124.584 579.258 123.681 578.761 122.967C578.264 122.246 577.533 121.886 576.567 121.886C575.643 121.886 574.827 122.218 574.12 122.883C573.42 123.548 572.976 124.43 572.787 125.529C572.598 126.614 572.752 127.524 573.249 128.259C573.746 128.987 574.47 129.351 575.422 129.351ZM582.566 131L585.212 115.964H587.501L584.844 131H582.566ZM592.602 131.346C590.873 131.346 589.568 130.786 588.686 129.666C587.804 128.539 587.517 127.115 587.825 125.393C588.098 123.797 588.798 122.484 589.925 121.455C591.052 120.426 592.385 119.912 593.925 119.912C595.43 119.912 596.613 120.405 597.474 121.392C598.342 122.379 598.675 123.573 598.472 124.973L598.283 126.065H588.917L589.2 124.532H596.288C596.372 123.72 596.186 123.069 595.731 122.579C595.276 122.082 594.639 121.833 593.82 121.833C592.875 121.833 592.06 122.173 591.374 122.852C590.688 123.524 590.247 124.423 590.051 125.55C589.848 126.733 589.998 127.678 590.502 128.385C591.013 129.092 591.78 129.446 592.802 129.446C593.285 129.446 593.722 129.372 594.114 129.225C594.506 129.078 594.846 128.889 595.133 128.658C595.427 128.42 595.752 128.067 596.109 127.598L597.632 128.658C597.226 129.267 596.785 129.764 596.309 130.149C595.84 130.534 595.29 130.828 594.66 131.032C594.037 131.241 593.351 131.346 592.602 131.346ZM607.364 131.346C606.216 131.346 605.334 130.986 604.718 130.265C604.109 129.544 603.896 128.651 604.078 127.587C604.267 126.509 604.795 125.673 605.663 125.078C606.531 124.483 607.634 124.185 608.971 124.185C609.503 124.185 610.056 124.248 610.63 124.374C611.204 124.493 611.673 124.647 612.037 124.836L612.163 124.217C612.303 123.503 612.156 122.918 611.722 122.463C611.295 122.001 610.675 121.77 609.863 121.77C609.394 121.77 608.999 121.819 608.677 121.917C608.355 122.015 608.061 122.148 607.795 122.316C607.536 122.477 607.28 122.659 607.028 122.862C606.783 123.065 606.661 123.167 606.661 123.167L605.453 121.896C605.453 121.896 605.614 121.753 605.936 121.466C606.258 121.179 606.626 120.92 607.039 120.689C607.459 120.458 607.917 120.272 608.414 120.132C608.918 119.985 609.52 119.912 610.22 119.912C611.676 119.912 612.786 120.325 613.549 121.151C614.312 121.97 614.574 123.055 614.336 124.406L613.181 131H610.987L611.354 128.931L611.522 129.53H611.186C610.738 130.09 610.178 130.534 609.506 130.863C608.841 131.185 608.127 131.346 607.364 131.346ZM608.141 129.582C608.995 129.582 609.769 129.271 610.462 128.648C611.155 128.025 611.596 127.262 611.785 126.359C611.505 126.17 611.144 126.009 610.703 125.876C610.269 125.743 609.79 125.676 609.265 125.676C608.446 125.676 607.774 125.848 607.249 126.191C606.724 126.534 606.409 127.013 606.304 127.629C606.199 128.203 606.314 128.672 606.65 129.036C606.993 129.4 607.49 129.582 608.141 129.582ZM615.686 131L617.576 120.258H619.76L619.424 122.117L619.193 121.833H619.54C619.967 121.238 620.52 120.769 621.199 120.426C621.885 120.083 622.609 119.912 623.372 119.912C624.534 119.912 625.416 120.293 626.018 121.056C626.627 121.812 626.82 122.813 626.596 124.059L625.378 131H623.089L624.244 124.479C624.384 123.667 624.293 123.034 623.971 122.579C623.649 122.117 623.113 121.886 622.364 121.886C621.559 121.886 620.842 122.173 620.212 122.747C619.589 123.314 619.197 124.052 619.036 124.962L617.965 131H615.686ZM632.445 131.346C630.961 131.346 629.82 130.779 629.022 129.645C628.224 128.511 627.972 127.087 628.266 125.372C628.553 123.741 629.232 122.425 630.303 121.424C631.381 120.416 632.617 119.912 634.01 119.912C634.808 119.912 635.522 120.083 636.152 120.426C636.782 120.762 637.23 121.207 637.496 121.76H637.559L638.588 115.964H640.877L638.241 131H636.047L636.393 129.005L636.824 129.498L636.246 129.509C635.798 130.097 635.249 130.552 634.598 130.874C633.947 131.189 633.229 131.346 632.445 131.346ZM633.18 129.372C634.097 129.372 634.909 129.029 635.616 128.343C636.323 127.657 636.768 126.782 636.95 125.718C637.146 124.612 636.995 123.702 636.498 122.988C636.001 122.267 635.277 121.907 634.325 121.907C633.394 121.907 632.571 122.25 631.857 122.936C631.15 123.622 630.706 124.5 630.524 125.571C630.328 126.663 630.478 127.57 630.975 128.291C631.479 129.012 632.214 129.372 633.18 129.372ZM644.758 135.526L647.435 120.258H649.63L649.262 122.327L648.758 121.718H649.43C649.885 121.144 650.438 120.699 651.089 120.384C651.747 120.069 652.468 119.912 653.252 119.912C654.729 119.912 655.867 120.479 656.665 121.613C657.463 122.747 657.715 124.171 657.421 125.886C657.134 127.517 656.451 128.837 655.373 129.845C654.295 130.846 653.06 131.346 651.667 131.346C650.869 131.346 650.144 131.171 649.493 130.821C648.849 130.464 648.408 130.016 648.17 129.477H648.107L647.047 135.526H644.758ZM651.362 129.351C652.286 129.351 653.102 129.008 653.809 128.322C654.523 127.636 654.974 126.754 655.163 125.676C655.352 124.584 655.198 123.681 654.701 122.967C654.204 122.246 653.473 121.886 652.507 121.886C651.583 121.886 650.767 122.218 650.06 122.883C649.36 123.548 648.916 124.43 648.727 125.529C648.538 126.614 648.692 127.524 649.189 128.259C649.686 128.987 650.41 129.351 651.362 129.351ZM663.746 131.346C662.052 131.346 660.746 130.776 659.829 129.635C658.919 128.487 658.604 127.069 658.884 125.382C659.178 123.758 659.913 122.442 661.089 121.434C662.265 120.419 663.637 119.912 665.205 119.912C666.885 119.912 668.194 120.479 669.132 121.613C670.07 122.747 670.396 124.164 670.109 125.865C669.815 127.461 669.073 128.774 667.883 129.803C666.7 130.832 665.321 131.346 663.746 131.346ZM663.924 129.351C664.876 129.351 665.72 129.012 666.455 128.333C667.197 127.647 667.662 126.772 667.851 125.708C668.054 124.574 667.883 123.657 667.337 122.957C666.791 122.257 666.024 121.907 665.037 121.907C664.071 121.907 663.224 122.243 662.496 122.915C661.775 123.58 661.324 124.451 661.142 125.529C660.946 126.649 661.114 127.566 661.646 128.28C662.178 128.994 662.937 129.351 663.924 129.351ZM673.161 131L671.617 120.258H673.833L674.694 127.304L674.778 128.238H674.841L675.24 127.367L678.684 120.258H680.857L681.844 127.304L681.939 128.238H682.002L682.39 127.325L685.729 120.258H687.987L682.611 131H680.458L679.398 123.734L679.335 122.957H679.261L678.894 123.734L675.324 131H673.161ZM692.414 131.346C690.685 131.346 689.379 130.786 688.497 129.666C687.615 128.539 687.328 127.115 687.636 125.393C687.909 123.797 688.609 122.484 689.736 121.455C690.863 120.426 692.197 119.912 693.737 119.912C695.242 119.912 696.425 120.405 697.286 121.392C698.154 122.379 698.486 123.573 698.283 124.973L698.094 126.065H688.728L689.012 124.532H696.099C696.183 123.72 695.998 123.069 695.543 122.579C695.088 122.082 694.451 121.833 693.632 121.833C692.687 121.833 691.871 122.173 691.185 122.852C690.499 123.524 690.058 124.423 689.862 125.55C689.659 126.733 689.81 127.678 690.314 128.385C690.825 129.092 691.591 129.446 692.613 129.446C693.096 129.446 693.534 129.372 693.926 129.225C694.318 129.078 694.657 128.889 694.944 128.658C695.238 128.42 695.564 128.067 695.921 127.598L697.443 128.658C697.037 129.267 696.596 129.764 696.12 130.149C695.651 130.534 695.102 130.828 694.472 131.032C693.849 131.241 693.163 131.346 692.414 131.346ZM699.245 131L701.125 120.258H703.309L702.952 122.201L702.763 121.949H703.067C703.41 121.319 703.883 120.822 704.485 120.458C705.087 120.094 705.696 119.912 706.312 119.912C706.529 119.912 706.725 119.926 706.9 119.954C707.082 119.982 707.267 120.027 707.456 120.09C707.652 120.146 707.75 120.174 707.75 120.174L707.351 122.421C707.351 122.421 707.26 122.386 707.078 122.316C706.896 122.246 706.704 122.19 706.501 122.148C706.305 122.106 706.077 122.085 705.818 122.085C705.027 122.085 704.324 122.369 703.708 122.936C703.099 123.503 702.714 124.245 702.553 125.162L701.524 131H699.245ZM708.339 122.159L708.685 120.258H715.405L715.069 122.159H708.339ZM708.633 131L710.733 119.019C710.922 117.962 711.377 117.133 712.098 116.531C712.819 115.929 713.715 115.628 714.786 115.628C715.045 115.628 715.29 115.645 715.521 115.68C715.759 115.708 715.993 115.75 716.224 115.806C716.462 115.855 716.581 115.88 716.581 115.88L716.235 117.822C716.235 117.822 716.154 117.801 715.993 117.759C715.832 117.71 715.654 117.672 715.458 117.644C715.269 117.616 715.073 117.602 714.87 117.602C714.401 117.602 713.991 117.752 713.641 118.053C713.291 118.347 713.071 118.75 712.98 119.261L712.707 120.804L712.644 121.235L710.922 131H708.633ZM719.354 131.346C718.185 131.346 717.272 130.961 716.614 130.191C715.963 129.421 715.76 128.329 716.005 126.915L717.17 120.258H719.459L718.315 126.747C718.161 127.622 718.248 128.291 718.577 128.753C718.913 129.215 719.438 129.446 720.152 129.446C720.985 129.446 721.71 129.155 722.326 128.574C722.942 127.993 723.327 127.269 723.481 126.401L724.562 120.258H726.851L724.951 131H722.798L723.239 128.469L724.1 129.488H722.998C722.599 130.027 722.095 130.471 721.486 130.821C720.877 131.171 720.166 131.346 719.354 131.346ZM727.556 131L730.202 115.964H732.491L729.835 131H727.556ZM623.877 157.346C622.176 157.346 620.877 156.783 619.981 155.656C619.092 154.529 618.802 153.094 619.11 151.351C619.39 149.734 620.1 148.425 621.241 147.424C622.389 146.416 623.737 145.912 625.284 145.912C626.082 145.912 626.768 146.031 627.342 146.269C627.923 146.507 628.416 146.846 628.822 147.287C629.235 147.721 629.578 148.274 629.851 148.946C629.844 148.946 629.841 148.946 629.841 148.946C629.848 148.946 629.851 148.946 629.851 148.946L627.825 149.765C627.601 149.254 627.38 148.883 627.163 148.652C626.946 148.421 626.673 148.239 626.344 148.106C626.022 147.973 625.641 147.907 625.2 147.907C624.255 147.907 623.425 148.239 622.711 148.904C622.004 149.569 621.556 150.451 621.367 151.55C621.164 152.656 621.318 153.566 621.829 154.28C622.347 154.994 623.103 155.351 624.097 155.351C624.531 155.351 624.913 155.292 625.242 155.173C625.578 155.054 625.893 154.879 626.187 154.648C626.488 154.41 626.824 154.018 627.195 153.472L629.032 154.375C628.591 155.117 628.129 155.684 627.646 156.076C627.163 156.468 626.607 156.776 625.977 157C625.347 157.231 624.647 157.346 623.877 157.346ZM630.329 157L632.975 141.964H635.264L632.607 157H630.329ZM635.346 157L637.236 146.258H639.525L637.625 157H635.346ZM639 144.232C638.608 144.232 638.272 144.095 637.992 143.822C637.719 143.542 637.583 143.206 637.583 142.814C637.583 142.408 637.719 142.076 637.992 141.817C638.272 141.551 638.608 141.418 639 141.418C639.406 141.418 639.742 141.551 640.008 141.817C640.274 142.076 640.407 142.408 640.407 142.814C640.407 143.206 640.274 143.542 640.008 143.822C639.742 144.095 639.406 144.232 639 144.232ZM645.513 157.346C643.784 157.346 642.478 156.786 641.596 155.666C640.714 154.539 640.427 153.115 640.735 151.393C641.008 149.797 641.708 148.484 642.835 147.455C643.962 146.426 645.296 145.912 646.836 145.912C648.341 145.912 649.524 146.405 650.385 147.392C651.253 148.379 651.585 149.573 651.382 150.973L651.193 152.065H641.827L642.111 150.532H649.198C649.282 149.72 649.097 149.069 648.642 148.579C648.187 148.082 647.55 147.833 646.731 147.833C645.786 147.833 644.97 148.173 644.284 148.852C643.598 149.524 643.157 150.423 642.961 151.55C642.758 152.733 642.909 153.678 643.413 154.385C643.924 155.092 644.69 155.446 645.712 155.446C646.195 155.446 646.633 155.372 647.025 155.225C647.417 155.078 647.756 154.889 648.043 154.658C648.337 154.42 648.663 154.067 649.02 153.598L650.542 154.658C650.136 155.267 649.695 155.764 649.219 156.149C648.75 156.534 648.201 156.828 647.571 157.032C646.948 157.241 646.262 157.346 645.513 157.346ZM652.334 157L654.224 146.258H656.408L656.072 148.117L655.841 147.833H656.187C656.614 147.238 657.167 146.769 657.846 146.426C658.532 146.083 659.257 145.912 660.02 145.912C661.182 145.912 662.064 146.293 662.666 147.056C663.275 147.812 663.467 148.813 663.243 150.059L662.025 157H659.736L660.891 150.479C661.031 149.667 660.94 149.034 660.618 148.579C660.296 148.117 659.761 147.886 659.012 147.886C658.207 147.886 657.489 148.173 656.859 148.747C656.236 149.314 655.844 150.052 655.683 150.962L654.612 157H652.334ZM668.778 157.346C667.777 157.346 667.028 157.049 666.531 156.454C666.034 155.852 665.873 155.047 666.048 154.039L667.938 143.266H670.227L668.389 153.755C668.284 154.322 668.326 154.735 668.515 154.994C668.704 155.253 669.023 155.383 669.471 155.383C669.597 155.383 669.744 155.369 669.912 155.341C670.08 155.313 670.269 155.264 670.479 155.194C670.689 155.124 670.794 155.089 670.794 155.089L670.437 157.063C670.437 157.063 670.339 157.091 670.143 157.147C669.954 157.21 669.737 157.259 669.492 157.294C669.247 157.329 669.009 157.346 668.778 157.346ZM665.302 148.159L665.638 146.258H672.316L671.98 148.159H665.302Z" fill="white"/>
<path d="M535.305 157L537.961 141.964H541.258L538.602 157H535.305ZM544.268 157.368C543.12 157.368 542.245 157.014 541.643 156.307C541.041 155.6 540.835 154.711 541.024 153.64C541.213 152.555 541.738 151.722 542.599 151.141C543.46 150.56 544.576 150.269 545.948 150.269C546.48 150.269 547.009 150.322 547.534 150.427C548.059 150.532 548.503 150.668 548.867 150.836L548.993 150.248C549.112 149.632 548.99 149.142 548.626 148.778C548.269 148.407 547.719 148.222 546.977 148.222C546.529 148.222 546.137 148.271 545.801 148.369C545.472 148.46 545.164 148.586 544.877 148.747C544.59 148.901 544.321 149.069 544.069 149.251C543.824 149.433 543.701 149.524 543.701 149.524L542.389 147.707C542.389 147.707 542.581 147.574 542.966 147.308C543.351 147.042 543.789 146.797 544.279 146.573C544.769 146.349 545.29 146.171 545.843 146.038C546.403 145.905 547.026 145.838 547.712 145.838C549.308 145.838 550.505 146.258 551.303 147.098C552.108 147.931 552.388 149.062 552.143 150.49L550.988 157H547.849L548.206 154.942L548.374 155.677H548.006C547.6 156.181 547.065 156.59 546.4 156.905C545.742 157.213 545.031 157.368 544.268 157.368ZM545.612 155.246C546.333 155.246 546.974 154.977 547.534 154.438C548.101 153.899 548.468 153.206 548.636 152.359V152.348C548.398 152.208 548.101 152.089 547.744 151.991C547.394 151.893 547.005 151.844 546.578 151.844C545.885 151.844 545.315 151.995 544.867 152.296C544.426 152.59 544.16 153.003 544.069 153.535C543.978 154.039 544.072 154.452 544.352 154.774C544.639 155.089 545.059 155.246 545.612 155.246ZM555.914 157L553.499 146.195H556.712L557.92 152.684L558.046 153.682H558.119L558.602 152.674L562.025 146.195H565.49L559.18 157H555.914ZM567.586 157.368C566.438 157.368 565.563 157.014 564.961 156.307C564.359 155.6 564.152 154.711 564.341 153.64C564.53 152.555 565.055 151.722 565.916 151.141C566.777 150.56 567.894 150.269 569.266 150.269C569.798 150.269 570.326 150.322 570.851 150.427C571.376 150.532 571.821 150.668 572.185 150.836L572.311 150.248C572.43 149.632 572.307 149.142 571.943 148.778C571.586 148.407 571.037 148.222 570.295 148.222C569.847 148.222 569.455 148.271 569.119 148.369C568.79 148.46 568.482 148.586 568.195 148.747C567.908 148.901 567.638 149.069 567.386 149.251C567.141 149.433 567.019 149.524 567.019 149.524L565.706 147.707C565.706 147.707 565.899 147.574 566.284 147.308C566.669 147.042 567.106 146.797 567.596 146.573C568.086 146.349 568.608 146.171 569.161 146.038C569.721 145.905 570.344 145.838 571.03 145.838C572.626 145.838 573.823 146.258 574.621 147.098C575.426 147.931 575.706 149.062 575.461 150.49L574.306 157H571.166L571.523 154.942L571.691 155.677H571.324C570.918 156.181 570.382 156.59 569.717 156.905C569.059 157.213 568.349 157.368 567.586 157.368ZM568.93 155.246C569.651 155.246 570.291 154.977 570.851 154.438C571.418 153.899 571.786 153.206 571.954 152.359V152.348C571.716 152.208 571.418 152.089 571.061 151.991C570.711 151.893 570.323 151.844 569.896 151.844C569.203 151.844 568.632 151.995 568.184 152.296C567.743 152.59 567.477 153.003 567.386 153.535C567.295 154.039 567.39 154.452 567.67 154.774C567.957 155.089 568.377 155.246 568.93 155.246ZM576.71 157L579.366 141.964H582.663L580.007 157H576.71ZM582.618 157L584.518 146.195H587.815L585.915 157H582.618ZM586.797 144.526C586.279 144.526 585.841 144.351 585.484 144.001C585.127 143.644 584.949 143.206 584.949 142.688C584.949 142.163 585.127 141.729 585.484 141.386C585.841 141.043 586.279 140.872 586.797 140.872C587.329 140.872 587.766 141.043 588.109 141.386C588.459 141.729 588.634 142.163 588.634 142.688C588.634 143.206 588.459 143.644 588.109 144.001C587.766 144.351 587.329 144.526 586.797 144.526ZM588.502 157L590.413 146.195H593.552L593.174 148.285L592.849 147.77H593.342C593.783 147.168 594.343 146.696 595.022 146.353C595.701 146.01 596.422 145.838 597.185 145.838C598.319 145.838 599.194 146.216 599.81 146.972C600.426 147.728 600.626 148.712 600.409 149.923L599.159 157H595.852L596.975 150.626C597.094 149.975 597.021 149.464 596.755 149.093C596.489 148.715 596.058 148.526 595.463 148.526C594.826 148.526 594.266 148.75 593.783 149.198C593.307 149.639 593.003 150.22 592.87 150.941L591.809 157H588.502ZM604.023 155.299L604.726 151.372L610.333 146.195H614.596L604.023 155.299ZM601.555 157L604.201 141.964H607.498L604.852 157H601.555ZM609.021 157L606.732 151.739L609.178 149.482L612.79 157H609.021Z" fill="#FFBD2F"/>
</g>
</g>
</g>
<rect x="0.25" y="0.25" width="880.5" height="272.5" stroke="url(#paint0_linear_211_74)" stroke-opacity="0.1" stroke-width="0.5"/>
</g>
<defs>
<filter id="filter0_d_211_74" x="24.9458" y="-71.0881" width="486.793" height="462.12" filterUnits="userSpaceOnUse" color-interpolation-filters="sRGB">
<feFlood flood-opacity="0" result="BackgroundImageFix"/>
<feColorMatrix in="SourceAlpha" type="matrix" values="0 0 0 0 0 0 0 0 0 0 0 0 0 0 0 0 0 0 127 0" result="hardAlpha"/>
<feOffset/>
<feGaussianBlur stdDeviation="80.5"/>
<feComposite in2="hardAlpha" operator="out"/>
<feColorMatrix type="matrix" values="0 0 0 0 1 0 0 0 0 0.682353 0 0 0 0 0 0 0 0 1 0"/>
<feBlend mode="normal" in2="BackgroundImageFix" result="effect1_dropShadow_211_74"/>
<feBlend mode="normal" in="SourceGraphic" in2="effect1_dropShadow_211_74" result="shape"/>
</filter>
<linearGradient id="paint0_linear_211_74" x1="-2.5" y1="1.84631e-06" x2="881" y2="273" gradientUnits="userSpaceOnUse">
<stop stop-color="white"/>
<stop offset="1" stop-color="#999999" stop-opacity="0"/>
</linearGradient>
<clipPath id="clip0_211_74">
<rect width="881" height="273" fill="white"/>
</clipPath>
</defs>
</svg>
