<svg width="696" height="190" viewBox="0 0 696 190" fill="none" xmlns="http://www.w3.org/2000/svg">
<g clip-path="url(#clip0_132_5)">
<rect width="696" height="190" rx="32" fill="#1E1A26"/>
<g filter="url(#filter0_f_132_5)">
<path d="M398 83.5C398 30.7568 440.757 -12 493.5 -12C546.243 -12 589 30.7568 589 83.5C589 136.243 546.243 179 493.5 179C440.757 179 398 136.243 398 83.5Z" fill="#FF712F"/>
</g>
<g filter="url(#filter1_g_132_5)">
<path d="M209.252 78.2344L220.053 78.3369V81.6865H231.64C234.465 82.1195 236.026 83.6917 236.322 86.4033L236.254 117.404C235.092 122.326 233.463 125.459 231.366 126.804C229.27 128.125 226.684 128.786 223.607 128.786V118.43C225.476 118.589 226.262 114.18 225.966 105.202V92.043H220.155V126.496L209.149 128.444L209.184 92.043H204.672V127.077L193.666 128.479L193.632 93.9912L197.357 91.7695H192.606L195.443 81.6865H209.252V78.2344Z" fill="black" fill-opacity="0.42"/>
<path d="M251.737 80.9688C250.438 92.9544 250.256 100.987 251.19 105.065C252.147 109.144 253.663 112.368 255.736 114.738C257.81 117.108 262.504 117.678 269.818 116.447L269.784 81.4473L279.696 82.0283V126.804L269.784 127.795V122.155L268.007 128.342L265.854 128.82C259.451 128.934 254.608 128.034 251.327 126.12C248.069 124.206 245.38 120.321 243.261 114.465C241.142 108.609 240.276 100.155 240.663 89.1035L241.244 82.7803L251.737 80.9688Z" fill="black" fill-opacity="0.42"/>
<path d="M284.755 81.4473L310.116 81.4131C312.873 82.0967 314.651 83.6348 315.448 86.0273C316.269 88.4199 316.679 90.5163 316.679 92.3164L307.724 94.0938C307.724 91.9518 305.707 91.0404 301.674 91.3594H294.633L316.132 112.414C317.727 114.465 317.932 117.917 316.747 122.771C315.562 125.869 312.634 127.624 307.963 128.034L290.702 128C288.697 127.339 287.113 126.075 285.951 124.206C284.789 122.315 283.889 119.979 283.251 117.199L292.616 114.021C292.867 116.618 293.915 117.871 295.761 117.78L304.887 117.814C306.277 117.495 306.049 116.493 304.203 114.807L284.208 95.2559L289.13 91.3594H282.841L284.755 81.4473Z" fill="black" fill-opacity="0.42"/>
<path d="M332.675 81.2764L332.641 127.966H322.353L322.318 82.8486L332.675 81.2764Z" fill="black" fill-opacity="0.42"/>
<path d="M366.684 81.6182C372.745 83.0537 375.958 87.554 376.322 95.1191H367.265C367.174 92.7266 365.635 91.6442 362.65 91.8721H350.482C347.976 97.2952 346.654 101.397 346.518 104.177C346.404 106.957 347.121 109.577 348.671 112.038C350.243 114.476 351.941 116.219 353.764 117.268C355.609 118.293 358.139 118.646 361.352 118.327C364.564 118.008 367.538 115.935 370.272 112.106L376.391 119.729C372.836 123.169 369.953 125.471 367.743 126.633C365.533 127.772 362.605 128.365 358.959 128.41C355.336 128.456 352.021 127.749 349.013 126.291C346.005 124.833 343.248 122.132 340.741 118.19C338.235 114.226 337.118 109.714 337.392 104.655C337.665 99.5967 338.326 96.3496 339.374 94.9141L346.176 91.8721H338.041L338.588 88.625L339.374 85.5146L340.878 81.6182H366.684Z" fill="black" fill-opacity="0.42"/>
<path d="M398.129 78.0977L406.537 81.2764L405.546 84.5576H419.081L417.68 94.6748L410.297 94.709L422.021 126.12L412.963 129.23L400.932 97.1016L387.499 128.957L378.305 126.154L391.566 94.5723L381.894 94.5381L382.646 84.5576H395.429L398.129 78.0977ZM402.47 112.961L407.699 118.703L398.026 128.41L392.763 122.736L402.47 112.961Z" fill="black" fill-opacity="0.42"/>
<path d="M426.19 81.5156H455.653C457.727 81.7663 459.151 83.0993 459.926 85.5146L459.857 99.2549C459.197 102.422 458.24 104.553 456.986 105.646C455.733 106.717 453.5 107.959 450.287 109.372L452.987 113.679C454.993 116.823 457.829 118.635 461.498 119.113L460.712 129.641L455.209 128.615C451.632 127.886 447.849 124.149 443.861 117.404L441.708 113.303L436.342 115.832L436.308 128.034L426.737 128.103V119.011L422.978 110.979L426.669 108.654L426.737 94.2646L431.42 91.667L424.037 91.7012L426.19 81.5156ZM436.342 91.7012V104.86L446.562 100.827C449.045 99.9157 450.287 98.446 450.287 96.418V91.7012H436.342Z" fill="black" fill-opacity="0.42"/>
<path d="M465.565 81.5498H495.712L502.274 81.584V102.365C502.548 105.852 502.206 109.201 501.249 112.414C500.315 115.604 498.492 118.726 495.78 121.779C493.091 124.81 490.118 126.678 486.859 127.385C483.624 128.091 476.161 128.308 464.472 128.034L464.54 118.327L471.034 118.259L467.206 116.345V91.7012H463.925L465.565 81.5498ZM477.084 91.7012V118.532C480.548 119.011 483.533 118.487 486.039 116.96C488.546 115.41 490.22 113.485 491.063 111.184C491.907 108.859 492.169 102.365 491.85 91.7012H477.084Z" fill="black" fill-opacity="0.42"/>
</g>
<g style="mix-blend-mode:color-dodge" filter="url(#filter2_g_132_5)">
<path d="M209.252 70.2344L220.053 70.3369V73.6865H231.64C234.465 74.1195 236.026 75.6917 236.322 78.4033L236.254 109.404C235.092 114.326 233.463 117.459 231.366 118.804C229.27 120.125 226.684 120.786 223.607 120.786V110.43C225.476 110.589 226.262 106.18 225.966 97.2021V84.043H220.155V118.496L209.149 120.444L209.184 84.043H204.672V119.077L193.666 120.479L193.632 85.9912L197.357 83.7695H192.606L195.443 73.6865H209.252V70.2344Z" fill="url(#paint0_linear_132_5)"/>
<path d="M251.737 72.9688C250.438 84.9544 250.256 92.9867 251.19 97.0654C252.147 101.144 253.663 104.368 255.736 106.738C257.81 109.108 262.504 109.678 269.818 108.447L269.784 73.4473L279.696 74.0283V118.804L269.784 119.795V114.155L268.007 120.342L265.854 120.82C259.451 120.934 254.608 120.034 251.327 118.12C248.069 116.206 245.38 112.321 243.261 106.465C241.142 100.609 240.276 92.1549 240.663 81.1035L241.244 74.7803L251.737 72.9688Z" fill="url(#paint1_linear_132_5)"/>
<path d="M284.755 73.4473L310.116 73.4131C312.873 74.0967 314.651 75.6348 315.448 78.0273C316.269 80.4199 316.679 82.5163 316.679 84.3164L307.724 86.0938C307.724 83.9518 305.707 83.0404 301.674 83.3594H294.633L316.132 104.414C317.727 106.465 317.932 109.917 316.747 114.771C315.562 117.869 312.634 119.624 307.963 120.034L290.702 120C288.697 119.339 287.113 118.075 285.951 116.206C284.789 114.315 283.889 111.979 283.251 109.199L292.616 106.021C292.867 108.618 293.915 109.871 295.761 109.78L304.887 109.814C306.277 109.495 306.049 108.493 304.203 106.807L284.208 87.2559L289.13 83.3594H282.841L284.755 73.4473Z" fill="url(#paint2_linear_132_5)"/>
<path d="M332.675 73.2764L332.641 119.966H322.353L322.318 74.8486L332.675 73.2764Z" fill="url(#paint3_linear_132_5)"/>
<path d="M366.684 73.6182C372.745 75.0537 375.958 79.554 376.322 87.1191H367.265C367.174 84.7266 365.635 83.6442 362.65 83.8721H350.482C347.976 89.2952 346.654 93.3968 346.518 96.1768C346.404 98.9567 347.121 101.577 348.671 104.038C350.243 106.476 351.941 108.219 353.764 109.268C355.609 110.293 358.139 110.646 361.352 110.327C364.564 110.008 367.538 107.935 370.272 104.106L376.391 111.729C372.836 115.169 369.953 117.471 367.743 118.633C365.533 119.772 362.605 120.365 358.959 120.41C355.336 120.456 352.021 119.749 349.013 118.291C346.005 116.833 343.248 114.132 340.741 110.19C338.235 106.226 337.118 101.714 337.392 96.6553C337.665 91.5967 338.326 88.3496 339.374 86.9141L346.176 83.8721H338.041L338.588 80.625L339.374 77.5146L340.878 73.6182H366.684Z" fill="url(#paint4_linear_132_5)"/>
<path d="M398.129 70.0977L406.537 73.2764L405.546 76.5576H419.081L417.68 86.6748L410.297 86.709L422.021 118.12L412.963 121.23L400.932 89.1016L387.499 120.957L378.305 118.154L391.566 86.5723L381.894 86.5381L382.646 76.5576H395.429L398.129 70.0977ZM402.47 104.961L407.699 110.703L398.026 120.41L392.763 114.736L402.47 104.961Z" fill="url(#paint5_linear_132_5)"/>
<path d="M426.19 73.5156H455.653C457.727 73.7663 459.151 75.0993 459.926 77.5146L459.857 91.2549C459.197 94.4222 458.24 96.5527 456.986 97.6465C455.733 98.7174 453.5 99.9593 450.287 101.372L452.987 105.679C454.993 108.823 457.829 110.635 461.498 111.113L460.712 121.641L455.209 120.615C451.632 119.886 447.849 116.149 443.861 109.404L441.708 105.303L436.342 107.832L436.308 120.034L426.737 120.103V111.011L422.978 102.979L426.669 100.654L426.737 86.2646L431.42 83.667L424.037 83.7012L426.19 73.5156ZM436.342 83.7012V96.8604L446.562 92.8271C449.045 91.9157 450.287 90.446 450.287 88.418V83.7012H436.342Z" fill="url(#paint6_linear_132_5)"/>
<path d="M465.565 73.5498H495.712L502.274 73.584V94.3652C502.548 97.8516 502.206 101.201 501.249 104.414C500.315 107.604 498.492 110.726 495.78 113.779C493.091 116.81 490.118 118.678 486.859 119.385C483.624 120.091 476.161 120.308 464.472 120.034L464.54 110.327L471.034 110.259L467.206 108.345V83.7012H463.925L465.565 73.5498ZM477.084 83.7012V110.532C480.548 111.011 483.533 110.487 486.039 108.96C488.546 107.41 490.22 105.485 491.063 103.184C491.907 100.859 492.169 94.3652 491.85 83.7012H477.084Z" fill="url(#paint7_linear_132_5)"/>
</g>
</g>
<defs>
<filter id="filter0_f_132_5" x="78.5" y="-331.5" width="830" height="830" filterUnits="userSpaceOnUse" color-interpolation-filters="sRGB">
<feFlood flood-opacity="0" result="BackgroundImageFix"/>
<feBlend mode="normal" in="SourceGraphic" in2="BackgroundImageFix" result="shape"/>
<feGaussianBlur stdDeviation="159.75" result="effect1_foregroundBlur_132_5"/>
</filter>
<filter id="filter1_g_132_5" x="187.806" y="73.2977" width="319.359" height="61.143" filterUnits="userSpaceOnUse" color-interpolation-filters="sRGB">
<feFlood flood-opacity="0" result="BackgroundImageFix"/>
<feBlend mode="normal" in="SourceGraphic" in2="BackgroundImageFix" result="shape"/>
<feTurbulence type="fractalNoise" baseFrequency="2 2" numOctaves="3" seed="2341" />
<feDisplacementMap in="shape" scale="9.6000003814697266" xChannelSelector="R" yChannelSelector="G" result="displacedImage" width="100%" height="100%" />
<feMerge result="effect1_texture_132_5">
<feMergeNode in="displacedImage"/>
</feMerge>
</filter>
<filter id="filter2_g_132_5" x="189.806" y="67.2977" width="315.359" height="57.143" filterUnits="userSpaceOnUse" color-interpolation-filters="sRGB">
<feFlood flood-opacity="0" result="BackgroundImageFix"/>
<feBlend mode="normal" in="SourceGraphic" in2="BackgroundImageFix" result="shape"/>
<feTurbulence type="fractalNoise" baseFrequency="2 2" numOctaves="3" seed="2341" />
<feDisplacementMap in="shape" scale="5.5999999046325684" xChannelSelector="R" yChannelSelector="G" result="displacedImage" width="100%" height="100%" />
<feMerge result="effect1_texture_132_5">
<feMergeNode in="displacedImage"/>
</feMerge>
</filter>
<linearGradient id="paint0_linear_132_5" x1="348" y1="56" x2="348" y2="136" gradientUnits="userSpaceOnUse">
<stop stop-color="#FFD374"/>
<stop offset="1" stop-color="#D0AF67"/>
</linearGradient>
<linearGradient id="paint1_linear_132_5" x1="348" y1="56" x2="348" y2="136" gradientUnits="userSpaceOnUse">
<stop stop-color="#FFD374"/>
<stop offset="1" stop-color="#D0AF67"/>
</linearGradient>
<linearGradient id="paint2_linear_132_5" x1="348" y1="56" x2="348" y2="136" gradientUnits="userSpaceOnUse">
<stop stop-color="#FFD374"/>
<stop offset="1" stop-color="#D0AF67"/>
</linearGradient>
<linearGradient id="paint3_linear_132_5" x1="348" y1="56" x2="348" y2="136" gradientUnits="userSpaceOnUse">
<stop stop-color="#FFD374"/>
<stop offset="1" stop-color="#D0AF67"/>
</linearGradient>
<linearGradient id="paint4_linear_132_5" x1="348" y1="56" x2="348" y2="136" gradientUnits="userSpaceOnUse">
<stop stop-color="#FFD374"/>
<stop offset="1" stop-color="#D0AF67"/>
</linearGradient>
<linearGradient id="paint5_linear_132_5" x1="348" y1="56" x2="348" y2="136" gradientUnits="userSpaceOnUse">
<stop stop-color="#FFD374"/>
<stop offset="1" stop-color="#D0AF67"/>
</linearGradient>
<linearGradient id="paint6_linear_132_5" x1="348" y1="56" x2="348" y2="136" gradientUnits="userSpaceOnUse">
<stop stop-color="#FFD374"/>
<stop offset="1" stop-color="#D0AF67"/>
</linearGradient>
<linearGradient id="paint7_linear_132_5" x1="348" y1="56" x2="348" y2="136" gradientUnits="userSpaceOnUse">
<stop stop-color="#FFD374"/>
<stop offset="1" stop-color="#D0AF67"/>
</linearGradient>
<clipPath id="clip0_132_5">
<rect width="696" height="190" rx="32" fill="white"/>
</clipPath>
</defs>
</svg>
