<svg width="861" height="273" viewBox="0 0 861 273" fill="none" xmlns="http://www.w3.org/2000/svg">
<style>
#Group_10 {
	animation: 1.995s linear 0.035s infinite normal forwards running Group_10;
}
@keyframes Group_10 {
	0% {
		opacity: 0;
	}
	1.75% {
		opacity: 0;
	}
	18.8% {
		opacity: 1;
	}
	23.81% {
		opacity: 1;
	}
	26.82% {
		opacity: 0;
	}
	100% {
		opacity: 1;
	}
	32.33% {
		opacity: 1;
	}
	35.34% {
		opacity: 0;
	}
	39.35% {
		opacity: 1;
	}
	79.45% {
		opacity: 1;
	}
	87.47% {
		opacity: 0;
	}
	92.98% {
		opacity: 1;
	}
	95.99% {
		opacity: 0;
	}
}
</style>
<g id="Frame 11" clip-path="url(#clip0_212_81)">
<rect width="861" height="273" fill="#161616"/>
<g id="Group_10" opacity="0.533333">
<g id="cropify" filter="url(#filter0_d_212_81)">
<path d="M147.732 175.48C142.937 175.48 139.176 174.199 136.448 171.636C133.803 169.073 132.48 165.932 132.48 162.212C132.48 158.244 133.307 154.276 134.96 150.308C136.613 146.257 138.845 142.413 141.656 138.776C144.467 135.139 147.649 131.915 151.204 129.104C154.759 126.293 158.52 124.061 162.488 122.408C166.456 120.755 170.341 119.928 174.144 119.928C176.459 119.928 178.36 120.341 179.848 121.168C181.336 121.995 182.08 122.821 182.08 123.648C182.08 123.896 181.997 124.103 181.832 124.268C181.501 124.599 181.005 125.467 180.344 126.872C179.765 128.195 179.145 129.724 178.484 131.46C177.905 133.196 177.368 134.973 176.872 136.792C176.459 138.528 176.252 140.016 176.252 141.256C176.087 142.165 175.673 142.62 175.012 142.62C174.433 142.62 173.731 141.959 172.904 140.636C172.16 139.231 171.788 137.371 171.788 135.056C171.788 133.568 172.077 131.997 172.656 130.344C173.317 128.691 173.937 127.203 174.516 125.88C175.177 124.475 175.508 123.483 175.508 122.904C175.508 122.573 175.343 122.408 175.012 122.408C174.764 122.408 174.516 122.408 174.268 122.408C172.532 122.408 170.093 123.193 166.952 124.764C163.811 126.252 160.132 129.021 155.916 133.072C153.105 135.8 150.501 138.983 148.104 142.62C145.707 146.257 143.764 149.936 142.276 153.656C140.871 157.376 140.168 160.807 140.168 163.948C140.168 167.585 141.077 169.941 142.896 171.016C144.797 172.091 146.947 172.628 149.344 172.628C153.477 172.628 157.611 171.843 161.744 170.272C165.96 168.701 169.887 166.552 173.524 163.824C177.244 161.096 180.344 157.996 182.824 154.524C182.907 154.359 182.989 154.276 183.072 154.276C183.155 154.193 183.196 154.152 183.196 154.152C183.361 154.152 183.444 154.317 183.444 154.648C183.444 155.061 183.32 155.64 183.072 156.384C182.907 157.128 182.659 157.707 182.328 158.12C180.675 160.683 178.319 163.328 175.26 166.056C172.201 168.701 168.399 170.933 163.852 172.752C159.305 174.571 153.932 175.48 147.732 175.48ZM209.356 166.428C206.297 166.428 204.231 164.733 203.156 161.344C202.081 157.872 201.544 153.615 201.544 148.572C201.544 145.844 201.627 143.199 201.792 140.636C201.957 137.991 202.081 135.8 202.164 134.064C200.841 133.899 199.56 133.651 198.32 133.32C197.163 132.907 196.253 132.493 195.592 132.08C195.509 132.659 195.179 133.857 194.6 135.676C194.021 137.412 193.319 139.437 192.492 141.752C191.748 144.067 190.921 146.34 190.012 148.572C189.103 150.804 188.235 152.664 187.408 154.152C186.581 155.557 185.837 156.26 185.176 156.26C184.845 156.26 184.68 156.012 184.68 155.516C184.68 154.855 184.969 153.945 185.548 152.788C187.201 149.399 188.689 145.927 190.012 142.372C191.335 138.817 192.533 135.139 193.608 131.336C192.781 131.005 192.161 130.427 191.748 129.6C191.417 128.691 191.252 127.699 191.252 126.624C191.252 123.648 191.665 121.209 192.492 119.308C193.401 117.407 194.393 116.001 195.468 115.092C196.543 114.1 197.369 113.604 197.948 113.604C198.94 113.604 199.436 114.431 199.436 116.084C199.436 116.911 199.229 118.192 198.816 119.928C198.403 121.581 197.907 123.317 197.328 125.136C196.749 126.872 196.253 128.277 195.84 129.352C195.84 129.352 196.088 129.517 196.584 129.848C197.08 130.179 197.617 130.344 198.196 130.344C199.023 130.344 199.808 129.848 200.552 128.856C201.379 127.781 202.329 126.748 203.404 125.756C204.561 124.681 206.008 124.144 207.744 124.144C208.653 124.144 209.439 124.268 210.1 124.516C210.761 124.681 211.092 125.012 211.092 125.508V125.88C210.265 127.947 209.645 130.675 209.232 134.064C208.819 137.371 208.612 140.719 208.612 144.108C208.612 147.084 208.777 149.895 209.108 152.54C209.439 155.103 209.935 157.169 210.596 158.74C211.34 160.311 212.208 161.096 213.2 161.096C214.192 161.096 215.143 160.559 216.052 159.484C216.961 158.409 217.747 157.252 218.408 156.012C219.152 154.772 219.648 153.863 219.896 153.284C221.632 150.06 222.707 147.993 223.12 147.084C223.533 146.092 224.071 145.596 224.732 145.596C224.98 145.596 225.104 145.761 225.104 146.092C225.104 146.257 225.021 146.671 224.856 147.332C223.864 150.06 222.624 152.912 221.136 155.888C219.731 158.781 218.036 161.261 216.052 163.328C214.068 165.395 211.836 166.428 209.356 166.428ZM273.867 232.024C270.478 232.024 267.832 230.536 265.931 227.56C264.03 224.584 262.666 220.74 261.839 216.028C261.095 211.399 260.723 206.563 260.723 201.52C260.723 198.709 260.806 195.857 260.971 192.964C261.136 190.153 261.343 187.425 261.591 184.78L259.731 185.152C259.4 185.152 258.863 184.821 258.119 184.16C257.458 183.499 256.838 182.796 256.259 182.052C255.68 181.308 255.391 180.771 255.391 180.44C255.391 179.283 256.094 177.919 257.499 176.348C258.987 174.86 260.888 173.248 263.203 171.512C263.203 171.099 263.244 170.809 263.327 170.644C263.906 166.759 264.732 162.295 265.807 157.252C266.964 152.209 268.37 146.96 270.023 141.504C271.676 136.048 273.578 130.757 275.727 125.632C271.015 124.64 266.758 124.144 262.955 124.144C262.128 124.144 261.343 124.185 260.599 124.268C259.855 124.268 259.111 124.309 258.367 124.392C259.276 125.136 260.02 126.128 260.599 127.368C261.178 128.608 261.467 130.096 261.467 131.832C261.467 134.147 260.888 136.916 259.731 140.14C258.656 143.364 257.168 146.671 255.267 150.06C253.448 153.449 251.34 156.632 248.943 159.608C246.546 162.501 244.066 164.857 241.503 166.676C238.94 168.495 236.46 169.404 234.063 169.404C231.087 169.404 228.896 168.453 227.491 166.552C226.086 164.568 225.383 162.171 225.383 159.36C225.383 156.384 226.086 152.747 227.491 148.448C228.896 144.149 230.384 140.099 231.955 136.296C230.55 137.205 229.103 138.032 227.615 138.776C226.127 139.52 224.804 139.892 223.647 139.892C222.82 139.892 222.2 139.685 221.787 139.272C221.456 138.859 221.291 138.404 221.291 137.908C221.291 137.495 221.415 136.875 221.663 136.048C221.911 135.221 222.324 134.436 222.903 133.692C223.564 132.948 224.35 132.576 225.259 132.576C225.59 132.576 225.755 132.7 225.755 132.948C225.755 133.031 225.714 133.113 225.631 133.196C225.631 133.196 225.631 133.237 225.631 133.32C225.548 133.485 225.507 133.651 225.507 133.816C225.507 134.147 225.714 134.312 226.127 134.312C226.375 134.312 226.664 134.271 226.995 134.188C227.408 134.105 227.822 133.94 228.235 133.692L234.683 130.22L236.543 126.5C237.039 125.591 237.618 124.971 238.279 124.64C238.94 124.227 239.56 124.02 240.139 124.02C241.048 124.02 241.834 124.185 242.495 124.516C243.239 124.764 243.9 125.095 244.479 125.508C245.471 125.095 246.463 124.723 247.455 124.392C248.447 123.979 249.48 123.648 250.555 123.4C253.118 122.656 255.68 122.077 258.243 121.664C260.888 121.251 263.616 121.044 266.427 121.044C268.08 121.044 269.816 121.127 271.635 121.292C273.454 121.457 275.314 121.705 277.215 122.036L278.827 118.812C278.331 117.985 277.959 117.159 277.711 116.332C277.546 115.505 277.463 114.761 277.463 114.1C277.463 113.191 277.587 112.488 277.835 111.992C278.331 110.587 278.786 109.429 279.199 108.52C279.695 107.611 280.356 107.156 281.183 107.156C282.506 107.156 283.787 107.776 285.027 109.016C286.267 110.173 286.887 111.207 286.887 112.116C286.887 112.199 286.846 112.323 286.763 112.488C286.763 112.571 286.763 112.653 286.763 112.736C286.019 114.389 285.275 116.167 284.531 118.068C283.87 119.887 283.167 121.788 282.423 123.772C286.474 125.26 290.442 127.161 294.327 129.476C298.212 131.708 301.395 134.271 303.875 137.164C306.438 139.975 307.719 143.033 307.719 146.34V146.588L311.687 144.604C313.092 143.86 314.167 143.364 314.911 143.116C315.655 142.785 316.192 142.62 316.523 142.62C316.688 142.62 316.771 142.703 316.771 142.868C316.771 143.199 316.11 143.901 314.787 144.976C313.547 145.968 312.472 146.712 311.563 147.208L307.347 149.316C306.934 151.631 305.983 154.028 304.495 156.508C303.09 158.988 301.354 161.509 299.287 164.072C296.724 167.213 293.624 170.065 289.987 172.628C286.35 175.108 282.588 177.216 278.703 178.952C274.9 180.771 271.263 182.217 267.791 183.292C266.799 190.732 266.303 197.676 266.303 204.124C266.303 212.556 267.212 218.715 269.031 222.6C270.85 226.568 272.875 228.552 275.107 228.552C276.512 228.552 277.67 228.263 278.579 227.684C279.488 227.105 280.232 226.816 280.811 226.816C281.307 226.816 281.555 226.981 281.555 227.312C281.555 227.147 281.348 227.477 280.935 228.304C280.522 229.131 279.736 229.957 278.579 230.784C277.504 231.611 275.934 232.024 273.867 232.024ZM270.767 166.428C274.074 164.361 277.587 162.295 281.307 160.228C285.027 158.161 288.664 156.177 292.219 154.276C295.856 152.375 299.122 150.721 302.015 149.316C302.428 148.407 302.718 147.539 302.883 146.712C303.131 145.803 303.255 144.935 303.255 144.108C303.255 140.967 301.519 138.032 298.047 135.304C294.658 132.493 289.036 129.848 281.183 127.368C279.199 133.155 277.298 139.396 275.479 146.092C273.743 152.788 272.172 159.567 270.767 166.428ZM235.427 166.8C237.163 166.8 238.94 166.015 240.759 164.444C242.66 162.873 244.52 160.889 246.339 158.492C248.158 156.095 249.77 153.615 251.175 151.052C251.836 149.895 252.58 148.324 253.407 146.34C254.316 144.356 255.06 142.248 255.639 140.016C256.3 137.784 256.631 135.759 256.631 133.94C256.631 132.287 256.259 130.923 255.515 129.848C254.854 128.691 253.572 128.112 251.671 128.112C250.762 128.112 249.604 128.36 248.199 128.856C246.794 129.352 245.306 129.931 243.735 130.592C243.404 130.923 243.074 131.295 242.743 131.708C242.495 132.039 242.288 132.411 242.123 132.824C240.552 135.717 238.982 138.941 237.411 142.496C235.84 145.968 234.518 149.357 233.443 152.664C232.451 155.971 231.955 158.864 231.955 161.344C231.955 164.981 233.112 166.8 235.427 166.8ZM268.783 176.968C271.842 175.728 274.57 174.447 276.967 173.124C279.364 171.801 281.72 170.272 284.035 168.536C286.432 166.8 288.954 164.692 291.599 162.212C293.17 160.807 294.616 159.36 295.939 157.872C297.344 156.384 298.584 154.896 299.659 153.408C293.459 156.715 287.838 159.815 282.795 162.708C277.752 165.519 273.454 168.123 269.899 170.52L268.783 176.968ZM259.731 180.316C260.144 180.151 260.558 179.985 260.971 179.82C261.384 179.655 261.756 179.531 262.087 179.448L262.583 175.976C260.682 177.712 259.731 179.159 259.731 180.316ZM328.948 132.452C328.452 132.452 327.915 132.369 327.336 132.204C326.84 131.956 326.344 131.708 325.848 131.46C325.518 131.212 325.352 130.881 325.352 130.468C325.352 129.724 325.807 128.815 326.716 127.74C327.626 126.583 328.783 125.591 330.188 124.764C331.594 123.937 332.958 123.524 334.28 123.524C335.024 123.524 335.396 123.731 335.396 124.144C335.396 124.475 335.024 124.888 334.28 125.384C333.371 126.045 332.71 126.955 332.296 128.112C331.883 129.269 331.47 130.303 331.056 131.212C330.643 132.039 329.94 132.452 328.948 132.452ZM322.252 169.9C320.682 169.9 319.607 169.404 319.028 168.412C318.45 167.42 318.16 165.891 318.16 163.824C318.16 162.749 318.202 161.592 318.284 160.352C318.367 159.112 318.532 157.707 318.78 156.136C319.524 150.515 320.351 146.051 321.26 142.744C322.17 139.355 323.327 137.66 324.732 137.66C325.89 137.66 326.923 138.321 327.832 139.644C328.742 140.967 329.362 141.917 329.692 142.496C329.114 143.571 328.328 145.307 327.336 147.704C326.427 150.101 325.6 152.623 324.856 155.268C324.112 157.913 323.74 160.228 323.74 162.212C323.74 164.196 324.195 165.188 325.104 165.188C325.848 165.188 326.675 164.775 327.584 163.948C328.576 163.121 329.486 162.212 330.312 161.22C331.222 160.228 331.8 159.525 332.048 159.112C334.859 154.896 336.636 151.672 337.38 149.44C338.207 147.208 338.992 146.092 339.736 146.092C340.067 146.092 340.232 146.34 340.232 146.836C340.232 147.167 340.15 147.539 339.984 147.952C339.902 148.283 339.778 148.737 339.612 149.316C339.116 150.639 338.331 152.457 337.256 154.772C336.182 157.004 334.859 159.277 333.288 161.592C331.8 163.907 330.106 165.891 328.204 167.544C326.386 169.115 324.402 169.9 322.252 169.9ZM351.449 225.7C348.143 225.7 345.415 224.667 343.265 222.6C341.116 220.616 339.421 217.929 338.181 214.54C337.024 211.151 336.197 207.307 335.701 203.008C335.288 198.709 335.081 194.328 335.081 189.864C335.081 183.829 335.371 178.125 335.949 172.752C336.528 167.379 337.024 163.328 337.437 160.6C337.603 159.443 337.851 157.872 338.181 155.888C338.595 153.904 339.091 151.755 339.669 149.44C339.256 149.44 338.801 149.44 338.305 149.44C337.809 149.357 337.355 149.316 336.941 149.316H336.693L332.105 151.796C331.609 151.961 331.32 152.044 331.237 152.044C330.907 152.044 330.741 151.837 330.741 151.424C330.741 150.68 331.32 149.523 332.477 147.952C333.717 146.299 335.123 145.141 336.693 144.48L341.157 142.62C342.149 138.569 343.183 134.271 344.257 129.724C345.415 125.177 346.531 120.755 347.605 116.456C348.68 112.075 349.672 108.107 350.581 104.552C351.573 100.915 352.4 97.98 353.061 95.748C353.723 93.4333 354.136 92.1107 354.301 91.78C354.549 91.4493 354.839 91.284 355.169 91.284C355.831 91.284 356.533 91.656 357.277 92.4C358.104 93.0613 358.807 93.8053 359.385 94.632C360.047 95.4587 360.419 96.12 360.501 96.616C360.749 97.36 360.873 98.228 360.873 99.22C360.873 100.129 360.708 101.452 360.377 103.188C360.129 104.924 359.509 107.404 358.517 110.628C356.947 115.919 355.252 120.879 353.433 125.508C351.697 130.055 350.127 134.891 348.721 140.016C352.607 138.693 356.657 137.453 360.873 136.296C365.172 135.139 369.223 134.188 373.025 133.444C376.828 132.617 379.845 132.204 382.077 132.204C382.573 132.204 383.028 132.245 383.441 132.328C383.855 132.328 384.061 132.452 384.061 132.7C384.061 132.865 383.896 133.072 383.565 133.32C383.235 133.568 382.863 133.733 382.449 133.816C378.151 134.395 372.819 135.635 366.453 137.536C360.171 139.437 353.888 141.711 347.605 144.356C347.44 144.935 347.275 145.513 347.109 146.092C347.027 146.671 346.903 147.249 346.737 147.828C356.905 150.391 364.965 154.979 370.917 161.592C376.952 168.205 379.969 176.431 379.969 186.268C379.969 188.996 379.473 192.096 378.481 195.568C377.489 199.04 376.084 202.512 374.265 205.984C372.529 209.539 370.463 212.804 368.065 215.78C365.668 218.756 363.064 221.153 360.253 222.972C357.443 224.791 354.508 225.7 351.449 225.7ZM355.293 221.98C357.443 221.98 359.427 221.071 361.245 219.252C363.147 217.516 364.841 215.284 366.329 212.556C367.9 209.828 369.223 207.059 370.297 204.248C371.372 201.52 372.116 199.164 372.529 197.18C373.521 192.551 374.017 188.252 374.017 184.284C374.017 175.604 371.703 168.247 367.073 162.212C362.527 156.095 355.583 152.127 346.241 150.308C346.076 151.3 345.911 152.292 345.745 153.284C345.58 154.276 345.415 155.309 345.249 156.384C344.505 161.179 343.885 166.387 343.389 172.008C342.976 177.547 342.769 183.003 342.769 188.376C342.769 194.576 343.183 200.197 344.009 205.24C344.919 210.365 346.283 214.416 348.101 217.392C350.003 220.451 352.4 221.98 355.293 221.98ZM375.582 231.032C374.673 231.032 374.218 230.66 374.218 229.916C374.218 229.42 374.383 228.965 374.714 228.552C375.871 225.989 377.235 222.724 378.806 218.756C380.459 214.871 382.195 210.531 384.014 205.736C385.833 200.941 387.61 195.94 389.346 190.732C391.082 185.524 392.653 180.357 394.058 175.232C391.826 177.051 389.553 178.952 387.238 180.936C384.923 182.92 382.691 185.317 380.542 188.128C377.814 191.517 375.706 195.527 374.218 200.156C372.813 204.868 372.11 209.208 372.11 213.176C372.11 217.971 373.102 221.567 375.086 223.964C375.334 224.212 375.458 224.377 375.458 224.46C375.458 224.46 375.417 224.46 375.334 224.46C375.334 224.543 375.293 224.584 375.21 224.584C374.879 224.584 374.466 224.46 373.97 224.212C373.557 223.964 373.143 223.592 372.73 223.096C371.077 221.36 369.878 219.252 369.134 216.772C368.307 214.375 367.894 211.771 367.894 208.96C367.894 205.736 368.514 202.471 369.754 199.164C370.994 195.857 372.813 192.757 375.21 189.864C378.599 185.731 382.03 182.135 385.502 179.076C388.974 176.017 392.239 173.124 395.298 170.396C396.125 167.172 396.827 164.031 397.406 160.972C397.985 157.913 398.398 155.02 398.646 152.292C398.894 149.316 399.059 146.629 399.142 144.232C399.225 141.752 399.266 139.52 399.266 137.536C399.266 135.304 399.142 133.403 398.894 131.832C397.571 133.651 396.249 136.007 394.926 138.9C393.603 141.793 392.363 144.811 391.206 147.952C390.131 151.093 389.263 154.069 388.602 156.88C387.941 159.608 387.61 161.757 387.61 163.328C387.61 163.659 387.61 163.948 387.61 164.196C387.693 164.444 387.734 164.692 387.734 164.94C387.734 165.436 387.155 165.684 385.998 165.684C383.435 165.684 381.617 165.229 380.542 164.32C379.467 163.411 378.93 162.047 378.93 160.228C378.93 158.492 379.013 156.301 379.178 153.656C379.343 150.928 379.467 148.076 379.55 145.1C379.715 142.041 379.798 139.148 379.798 136.42C379.798 131.708 379.509 128.36 378.93 126.376C378.351 124.392 377.359 123.4 375.954 123.4C375.293 123.4 374.507 123.689 373.598 124.268C372.689 124.764 371.655 125.012 370.498 125.012C370.085 125.012 369.795 124.888 369.63 124.64C369.713 124.805 370.085 124.557 370.746 123.896C371.49 123.235 372.689 122.532 374.342 121.788C376.078 121.044 378.434 120.672 381.41 120.672C382.898 120.672 384.014 120.879 384.758 121.292C385.585 121.623 386.122 122.615 386.37 124.268C386.618 125.921 386.742 128.691 386.742 132.576C386.742 135.469 386.659 138.693 386.494 142.248C386.329 145.72 386.122 149.027 385.874 152.168C385.626 155.309 385.337 157.913 385.006 159.98C385.502 158.409 386.205 156.343 387.114 153.78C388.023 151.217 389.015 148.448 390.09 145.472C391.247 142.413 392.322 139.479 393.314 136.668C394.389 133.775 395.339 131.295 396.166 129.228C396.993 127.161 397.53 125.756 397.778 125.012V124.888C397.778 124.805 397.778 124.764 397.778 124.764C397.861 124.764 397.902 124.723 397.902 124.64V124.764C398.15 124.516 398.646 124.392 399.39 124.392C401.126 124.392 402.325 125.177 402.986 126.748C403.73 128.319 404.185 130.261 404.35 132.576C404.515 134.891 404.598 137.164 404.598 139.396C404.598 143.199 404.35 147.208 403.854 151.424C403.441 155.557 402.903 159.773 402.242 164.072C403.895 162.419 405.425 160.683 406.83 158.864C408.235 157.045 409.434 155.103 410.426 153.036C410.839 152.044 411.377 151.217 412.038 150.556C412.699 149.895 413.195 149.564 413.526 149.564C413.691 149.564 413.774 149.729 413.774 150.06C413.774 150.639 413.485 151.548 412.906 152.788C411.335 156.591 409.517 159.815 407.45 162.46C405.466 165.023 403.399 167.337 401.25 169.404C399.927 175.769 398.439 181.969 396.786 188.004C395.133 194.039 393.479 199.495 391.826 204.372C390.173 209.332 388.726 213.383 387.486 216.524C386.246 219.748 385.419 221.732 385.006 222.476C383.353 225.535 381.617 227.725 379.798 229.048C378.062 230.371 376.657 231.032 375.582 231.032Z" fill="black"/>
</g>
<path id="cropify_2" d="M148.732 167.48C143.937 167.48 140.176 166.199 137.448 163.636C134.803 161.073 133.48 157.932 133.48 154.212C133.48 150.244 134.307 146.276 135.96 142.308C137.613 138.257 139.845 134.413 142.656 130.776C145.467 127.139 148.649 123.915 152.204 121.104C155.759 118.293 159.52 116.061 163.488 114.408C167.456 112.755 171.341 111.928 175.144 111.928C177.459 111.928 179.36 112.341 180.848 113.168C182.336 113.995 183.08 114.821 183.08 115.648C183.08 115.896 182.997 116.103 182.832 116.268C182.501 116.599 182.005 117.467 181.344 118.872C180.765 120.195 180.145 121.724 179.484 123.46C178.905 125.196 178.368 126.973 177.872 128.792C177.459 130.528 177.252 132.016 177.252 133.256C177.087 134.165 176.673 134.62 176.012 134.62C175.433 134.62 174.731 133.959 173.904 132.636C173.16 131.231 172.788 129.371 172.788 127.056C172.788 125.568 173.077 123.997 173.656 122.344C174.317 120.691 174.937 119.203 175.516 117.88C176.177 116.475 176.508 115.483 176.508 114.904C176.508 114.573 176.343 114.408 176.012 114.408C175.764 114.408 175.516 114.408 175.268 114.408C173.532 114.408 171.093 115.193 167.952 116.764C164.811 118.252 161.132 121.021 156.916 125.072C154.105 127.8 151.501 130.983 149.104 134.62C146.707 138.257 144.764 141.936 143.276 145.656C141.871 149.376 141.168 152.807 141.168 155.948C141.168 159.585 142.077 161.941 143.896 163.016C145.797 164.091 147.947 164.628 150.344 164.628C154.477 164.628 158.611 163.843 162.744 162.272C166.96 160.701 170.887 158.552 174.524 155.824C178.244 153.096 181.344 149.996 183.824 146.524C183.907 146.359 183.989 146.276 184.072 146.276C184.155 146.193 184.196 146.152 184.196 146.152C184.361 146.152 184.444 146.317 184.444 146.648C184.444 147.061 184.32 147.64 184.072 148.384C183.907 149.128 183.659 149.707 183.328 150.12C181.675 152.683 179.319 155.328 176.26 158.056C173.201 160.701 169.399 162.933 164.852 164.752C160.305 166.571 154.932 167.48 148.732 167.48ZM210.356 158.428C207.297 158.428 205.231 156.733 204.156 153.344C203.081 149.872 202.544 145.615 202.544 140.572C202.544 137.844 202.627 135.199 202.792 132.636C202.957 129.991 203.081 127.8 203.164 126.064C201.841 125.899 200.56 125.651 199.32 125.32C198.163 124.907 197.253 124.493 196.592 124.08C196.509 124.659 196.179 125.857 195.6 127.676C195.021 129.412 194.319 131.437 193.492 133.752C192.748 136.067 191.921 138.34 191.012 140.572C190.103 142.804 189.235 144.664 188.408 146.152C187.581 147.557 186.837 148.26 186.176 148.26C185.845 148.26 185.68 148.012 185.68 147.516C185.68 146.855 185.969 145.945 186.548 144.788C188.201 141.399 189.689 137.927 191.012 134.372C192.335 130.817 193.533 127.139 194.608 123.336C193.781 123.005 193.161 122.427 192.748 121.6C192.417 120.691 192.252 119.699 192.252 118.624C192.252 115.648 192.665 113.209 193.492 111.308C194.401 109.407 195.393 108.001 196.468 107.092C197.543 106.1 198.369 105.604 198.948 105.604C199.94 105.604 200.436 106.431 200.436 108.084C200.436 108.911 200.229 110.192 199.816 111.928C199.403 113.581 198.907 115.317 198.328 117.136C197.749 118.872 197.253 120.277 196.84 121.352C196.84 121.352 197.088 121.517 197.584 121.848C198.08 122.179 198.617 122.344 199.196 122.344C200.023 122.344 200.808 121.848 201.552 120.856C202.379 119.781 203.329 118.748 204.404 117.756C205.561 116.681 207.008 116.144 208.744 116.144C209.653 116.144 210.439 116.268 211.1 116.516C211.761 116.681 212.092 117.012 212.092 117.508V117.88C211.265 119.947 210.645 122.675 210.232 126.064C209.819 129.371 209.612 132.719 209.612 136.108C209.612 139.084 209.777 141.895 210.108 144.54C210.439 147.103 210.935 149.169 211.596 150.74C212.34 152.311 213.208 153.096 214.2 153.096C215.192 153.096 216.143 152.559 217.052 151.484C217.961 150.409 218.747 149.252 219.408 148.012C220.152 146.772 220.648 145.863 220.896 145.284C222.632 142.06 223.707 139.993 224.12 139.084C224.533 138.092 225.071 137.596 225.732 137.596C225.98 137.596 226.104 137.761 226.104 138.092C226.104 138.257 226.021 138.671 225.856 139.332C224.864 142.06 223.624 144.912 222.136 147.888C220.731 150.781 219.036 153.261 217.052 155.328C215.068 157.395 212.836 158.428 210.356 158.428ZM274.867 224.024C271.478 224.024 268.832 222.536 266.931 219.56C265.03 216.584 263.666 212.74 262.839 208.028C262.095 203.399 261.723 198.563 261.723 193.52C261.723 190.709 261.806 187.857 261.971 184.964C262.136 182.153 262.343 179.425 262.591 176.78L260.731 177.152C260.4 177.152 259.863 176.821 259.119 176.16C258.458 175.499 257.838 174.796 257.259 174.052C256.68 173.308 256.391 172.771 256.391 172.44C256.391 171.283 257.094 169.919 258.499 168.348C259.987 166.86 261.888 165.248 264.203 163.512C264.203 163.099 264.244 162.809 264.327 162.644C264.906 158.759 265.732 154.295 266.807 149.252C267.964 144.209 269.37 138.96 271.023 133.504C272.676 128.048 274.578 122.757 276.727 117.632C272.015 116.64 267.758 116.144 263.955 116.144C263.128 116.144 262.343 116.185 261.599 116.268C260.855 116.268 260.111 116.309 259.367 116.392C260.276 117.136 261.02 118.128 261.599 119.368C262.178 120.608 262.467 122.096 262.467 123.832C262.467 126.147 261.888 128.916 260.731 132.14C259.656 135.364 258.168 138.671 256.267 142.06C254.448 145.449 252.34 148.632 249.943 151.608C247.546 154.501 245.066 156.857 242.503 158.676C239.94 160.495 237.46 161.404 235.063 161.404C232.087 161.404 229.896 160.453 228.491 158.552C227.086 156.568 226.383 154.171 226.383 151.36C226.383 148.384 227.086 144.747 228.491 140.448C229.896 136.149 231.384 132.099 232.955 128.296C231.55 129.205 230.103 130.032 228.615 130.776C227.127 131.52 225.804 131.892 224.647 131.892C223.82 131.892 223.2 131.685 222.787 131.272C222.456 130.859 222.291 130.404 222.291 129.908C222.291 129.495 222.415 128.875 222.663 128.048C222.911 127.221 223.324 126.436 223.903 125.692C224.564 124.948 225.35 124.576 226.259 124.576C226.59 124.576 226.755 124.7 226.755 124.948C226.755 125.031 226.714 125.113 226.631 125.196C226.631 125.196 226.631 125.237 226.631 125.32C226.548 125.485 226.507 125.651 226.507 125.816C226.507 126.147 226.714 126.312 227.127 126.312C227.375 126.312 227.664 126.271 227.995 126.188C228.408 126.105 228.822 125.94 229.235 125.692L235.683 122.22L237.543 118.5C238.039 117.591 238.618 116.971 239.279 116.64C239.94 116.227 240.56 116.02 241.139 116.02C242.048 116.02 242.834 116.185 243.495 116.516C244.239 116.764 244.9 117.095 245.479 117.508C246.471 117.095 247.463 116.723 248.455 116.392C249.447 115.979 250.48 115.648 251.555 115.4C254.118 114.656 256.68 114.077 259.243 113.664C261.888 113.251 264.616 113.044 267.427 113.044C269.08 113.044 270.816 113.127 272.635 113.292C274.454 113.457 276.314 113.705 278.215 114.036L279.827 110.812C279.331 109.985 278.959 109.159 278.711 108.332C278.546 107.505 278.463 106.761 278.463 106.1C278.463 105.191 278.587 104.488 278.835 103.992C279.331 102.587 279.786 101.429 280.199 100.52C280.695 99.6107 281.356 99.156 282.183 99.156C283.506 99.156 284.787 99.776 286.027 101.016C287.267 102.173 287.887 103.207 287.887 104.116C287.887 104.199 287.846 104.323 287.763 104.488C287.763 104.571 287.763 104.653 287.763 104.736C287.019 106.389 286.275 108.167 285.531 110.068C284.87 111.887 284.167 113.788 283.423 115.772C287.474 117.26 291.442 119.161 295.327 121.476C299.212 123.708 302.395 126.271 304.875 129.164C307.438 131.975 308.719 135.033 308.719 138.34V138.588L312.687 136.604C314.092 135.86 315.167 135.364 315.911 135.116C316.655 134.785 317.192 134.62 317.523 134.62C317.688 134.62 317.771 134.703 317.771 134.868C317.771 135.199 317.11 135.901 315.787 136.976C314.547 137.968 313.472 138.712 312.563 139.208L308.347 141.316C307.934 143.631 306.983 146.028 305.495 148.508C304.09 150.988 302.354 153.509 300.287 156.072C297.724 159.213 294.624 162.065 290.987 164.628C287.35 167.108 283.588 169.216 279.703 170.952C275.9 172.771 272.263 174.217 268.791 175.292C267.799 182.732 267.303 189.676 267.303 196.124C267.303 204.556 268.212 210.715 270.031 214.6C271.85 218.568 273.875 220.552 276.107 220.552C277.512 220.552 278.67 220.263 279.579 219.684C280.488 219.105 281.232 218.816 281.811 218.816C282.307 218.816 282.555 218.981 282.555 219.312C282.555 219.147 282.348 219.477 281.935 220.304C281.522 221.131 280.736 221.957 279.579 222.784C278.504 223.611 276.934 224.024 274.867 224.024ZM271.767 158.428C275.074 156.361 278.587 154.295 282.307 152.228C286.027 150.161 289.664 148.177 293.219 146.276C296.856 144.375 300.122 142.721 303.015 141.316C303.428 140.407 303.718 139.539 303.883 138.712C304.131 137.803 304.255 136.935 304.255 136.108C304.255 132.967 302.519 130.032 299.047 127.304C295.658 124.493 290.036 121.848 282.183 119.368C280.199 125.155 278.298 131.396 276.479 138.092C274.743 144.788 273.172 151.567 271.767 158.428ZM236.427 158.8C238.163 158.8 239.94 158.015 241.759 156.444C243.66 154.873 245.52 152.889 247.339 150.492C249.158 148.095 250.77 145.615 252.175 143.052C252.836 141.895 253.58 140.324 254.407 138.34C255.316 136.356 256.06 134.248 256.639 132.016C257.3 129.784 257.631 127.759 257.631 125.94C257.631 124.287 257.259 122.923 256.515 121.848C255.854 120.691 254.572 120.112 252.671 120.112C251.762 120.112 250.604 120.36 249.199 120.856C247.794 121.352 246.306 121.931 244.735 122.592C244.404 122.923 244.074 123.295 243.743 123.708C243.495 124.039 243.288 124.411 243.123 124.824C241.552 127.717 239.982 130.941 238.411 134.496C236.84 137.968 235.518 141.357 234.443 144.664C233.451 147.971 232.955 150.864 232.955 153.344C232.955 156.981 234.112 158.8 236.427 158.8ZM269.783 168.968C272.842 167.728 275.57 166.447 277.967 165.124C280.364 163.801 282.72 162.272 285.035 160.536C287.432 158.8 289.954 156.692 292.599 154.212C294.17 152.807 295.616 151.36 296.939 149.872C298.344 148.384 299.584 146.896 300.659 145.408C294.459 148.715 288.838 151.815 283.795 154.708C278.752 157.519 274.454 160.123 270.899 162.52L269.783 168.968ZM260.731 172.316C261.144 172.151 261.558 171.985 261.971 171.82C262.384 171.655 262.756 171.531 263.087 171.448L263.583 167.976C261.682 169.712 260.731 171.159 260.731 172.316ZM329.948 124.452C329.452 124.452 328.915 124.369 328.336 124.204C327.84 123.956 327.344 123.708 326.848 123.46C326.518 123.212 326.352 122.881 326.352 122.468C326.352 121.724 326.807 120.815 327.716 119.74C328.626 118.583 329.783 117.591 331.188 116.764C332.594 115.937 333.958 115.524 335.28 115.524C336.024 115.524 336.396 115.731 336.396 116.144C336.396 116.475 336.024 116.888 335.28 117.384C334.371 118.045 333.71 118.955 333.296 120.112C332.883 121.269 332.47 122.303 332.056 123.212C331.643 124.039 330.94 124.452 329.948 124.452ZM323.252 161.9C321.682 161.9 320.607 161.404 320.028 160.412C319.45 159.42 319.16 157.891 319.16 155.824C319.16 154.749 319.202 153.592 319.284 152.352C319.367 151.112 319.532 149.707 319.78 148.136C320.524 142.515 321.351 138.051 322.26 134.744C323.17 131.355 324.327 129.66 325.732 129.66C326.89 129.66 327.923 130.321 328.832 131.644C329.742 132.967 330.362 133.917 330.692 134.496C330.114 135.571 329.328 137.307 328.336 139.704C327.427 142.101 326.6 144.623 325.856 147.268C325.112 149.913 324.74 152.228 324.74 154.212C324.74 156.196 325.195 157.188 326.104 157.188C326.848 157.188 327.675 156.775 328.584 155.948C329.576 155.121 330.486 154.212 331.312 153.22C332.222 152.228 332.8 151.525 333.048 151.112C335.859 146.896 337.636 143.672 338.38 141.44C339.207 139.208 339.992 138.092 340.736 138.092C341.067 138.092 341.232 138.34 341.232 138.836C341.232 139.167 341.15 139.539 340.984 139.952C340.902 140.283 340.778 140.737 340.612 141.316C340.116 142.639 339.331 144.457 338.256 146.772C337.182 149.004 335.859 151.277 334.288 153.592C332.8 155.907 331.106 157.891 329.204 159.544C327.386 161.115 325.402 161.9 323.252 161.9ZM352.449 217.7C349.143 217.7 346.415 216.667 344.265 214.6C342.116 212.616 340.421 209.929 339.181 206.54C338.024 203.151 337.197 199.307 336.701 195.008C336.288 190.709 336.081 186.328 336.081 181.864C336.081 175.829 336.371 170.125 336.949 164.752C337.528 159.379 338.024 155.328 338.437 152.6C338.603 151.443 338.851 149.872 339.181 147.888C339.595 145.904 340.091 143.755 340.669 141.44C340.256 141.44 339.801 141.44 339.305 141.44C338.809 141.357 338.355 141.316 337.941 141.316H337.693L333.105 143.796C332.609 143.961 332.32 144.044 332.237 144.044C331.907 144.044 331.741 143.837 331.741 143.424C331.741 142.68 332.32 141.523 333.477 139.952C334.717 138.299 336.123 137.141 337.693 136.48L342.157 134.62C343.149 130.569 344.183 126.271 345.257 121.724C346.415 117.177 347.531 112.755 348.605 108.456C349.68 104.075 350.672 100.107 351.581 96.552C352.573 92.9147 353.4 89.98 354.061 87.748C354.723 85.4333 355.136 84.1107 355.301 83.78C355.549 83.4493 355.839 83.284 356.169 83.284C356.831 83.284 357.533 83.656 358.277 84.4C359.104 85.0613 359.807 85.8053 360.385 86.632C361.047 87.4587 361.419 88.12 361.501 88.616C361.749 89.36 361.873 90.228 361.873 91.22C361.873 92.1293 361.708 93.452 361.377 95.188C361.129 96.924 360.509 99.404 359.517 102.628C357.947 107.919 356.252 112.879 354.433 117.508C352.697 122.055 351.127 126.891 349.721 132.016C353.607 130.693 357.657 129.453 361.873 128.296C366.172 127.139 370.223 126.188 374.025 125.444C377.828 124.617 380.845 124.204 383.077 124.204C383.573 124.204 384.028 124.245 384.441 124.328C384.855 124.328 385.061 124.452 385.061 124.7C385.061 124.865 384.896 125.072 384.565 125.32C384.235 125.568 383.863 125.733 383.449 125.816C379.151 126.395 373.819 127.635 367.453 129.536C361.171 131.437 354.888 133.711 348.605 136.356C348.44 136.935 348.275 137.513 348.109 138.092C348.027 138.671 347.903 139.249 347.737 139.828C357.905 142.391 365.965 146.979 371.917 153.592C377.952 160.205 380.969 168.431 380.969 178.268C380.969 180.996 380.473 184.096 379.481 187.568C378.489 191.04 377.084 194.512 375.265 197.984C373.529 201.539 371.463 204.804 369.065 207.78C366.668 210.756 364.064 213.153 361.253 214.972C358.443 216.791 355.508 217.7 352.449 217.7ZM356.293 213.98C358.443 213.98 360.427 213.071 362.245 211.252C364.147 209.516 365.841 207.284 367.329 204.556C368.9 201.828 370.223 199.059 371.297 196.248C372.372 193.52 373.116 191.164 373.529 189.18C374.521 184.551 375.017 180.252 375.017 176.284C375.017 167.604 372.703 160.247 368.073 154.212C363.527 148.095 356.583 144.127 347.241 142.308C347.076 143.3 346.911 144.292 346.745 145.284C346.58 146.276 346.415 147.309 346.249 148.384C345.505 153.179 344.885 158.387 344.389 164.008C343.976 169.547 343.769 175.003 343.769 180.376C343.769 186.576 344.183 192.197 345.009 197.24C345.919 202.365 347.283 206.416 349.101 209.392C351.003 212.451 353.4 213.98 356.293 213.98ZM376.582 223.032C375.673 223.032 375.218 222.66 375.218 221.916C375.218 221.42 375.383 220.965 375.714 220.552C376.871 217.989 378.235 214.724 379.806 210.756C381.459 206.871 383.195 202.531 385.014 197.736C386.833 192.941 388.61 187.94 390.346 182.732C392.082 177.524 393.653 172.357 395.058 167.232C392.826 169.051 390.553 170.952 388.238 172.936C385.923 174.92 383.691 177.317 381.542 180.128C378.814 183.517 376.706 187.527 375.218 192.156C373.813 196.868 373.11 201.208 373.11 205.176C373.11 209.971 374.102 213.567 376.086 215.964C376.334 216.212 376.458 216.377 376.458 216.46C376.458 216.46 376.417 216.46 376.334 216.46C376.334 216.543 376.293 216.584 376.21 216.584C375.879 216.584 375.466 216.46 374.97 216.212C374.557 215.964 374.143 215.592 373.73 215.096C372.077 213.36 370.878 211.252 370.134 208.772C369.307 206.375 368.894 203.771 368.894 200.96C368.894 197.736 369.514 194.471 370.754 191.164C371.994 187.857 373.813 184.757 376.21 181.864C379.599 177.731 383.03 174.135 386.502 171.076C389.974 168.017 393.239 165.124 396.298 162.396C397.125 159.172 397.827 156.031 398.406 152.972C398.985 149.913 399.398 147.02 399.646 144.292C399.894 141.316 400.059 138.629 400.142 136.232C400.225 133.752 400.266 131.52 400.266 129.536C400.266 127.304 400.142 125.403 399.894 123.832C398.571 125.651 397.249 128.007 395.926 130.9C394.603 133.793 393.363 136.811 392.206 139.952C391.131 143.093 390.263 146.069 389.602 148.88C388.941 151.608 388.61 153.757 388.61 155.328C388.61 155.659 388.61 155.948 388.61 156.196C388.693 156.444 388.734 156.692 388.734 156.94C388.734 157.436 388.155 157.684 386.998 157.684C384.435 157.684 382.617 157.229 381.542 156.32C380.467 155.411 379.93 154.047 379.93 152.228C379.93 150.492 380.013 148.301 380.178 145.656C380.343 142.928 380.467 140.076 380.55 137.1C380.715 134.041 380.798 131.148 380.798 128.42C380.798 123.708 380.509 120.36 379.93 118.376C379.351 116.392 378.359 115.4 376.954 115.4C376.293 115.4 375.507 115.689 374.598 116.268C373.689 116.764 372.655 117.012 371.498 117.012C371.085 117.012 370.795 116.888 370.63 116.64C370.713 116.805 371.085 116.557 371.746 115.896C372.49 115.235 373.689 114.532 375.342 113.788C377.078 113.044 379.434 112.672 382.41 112.672C383.898 112.672 385.014 112.879 385.758 113.292C386.585 113.623 387.122 114.615 387.37 116.268C387.618 117.921 387.742 120.691 387.742 124.576C387.742 127.469 387.659 130.693 387.494 134.248C387.329 137.72 387.122 141.027 386.874 144.168C386.626 147.309 386.337 149.913 386.006 151.98C386.502 150.409 387.205 148.343 388.114 145.78C389.023 143.217 390.015 140.448 391.09 137.472C392.247 134.413 393.322 131.479 394.314 128.668C395.389 125.775 396.339 123.295 397.166 121.228C397.993 119.161 398.53 117.756 398.778 117.012V116.888C398.778 116.805 398.778 116.764 398.778 116.764C398.861 116.764 398.902 116.723 398.902 116.64V116.764C399.15 116.516 399.646 116.392 400.39 116.392C402.126 116.392 403.325 117.177 403.986 118.748C404.73 120.319 405.185 122.261 405.35 124.576C405.515 126.891 405.598 129.164 405.598 131.396C405.598 135.199 405.35 139.208 404.854 143.424C404.441 147.557 403.903 151.773 403.242 156.072C404.895 154.419 406.425 152.683 407.83 150.864C409.235 149.045 410.434 147.103 411.426 145.036C411.839 144.044 412.377 143.217 413.038 142.556C413.699 141.895 414.195 141.564 414.526 141.564C414.691 141.564 414.774 141.729 414.774 142.06C414.774 142.639 414.485 143.548 413.906 144.788C412.335 148.591 410.517 151.815 408.45 154.46C406.466 157.023 404.399 159.337 402.25 161.404C400.927 167.769 399.439 173.969 397.786 180.004C396.133 186.039 394.479 191.495 392.826 196.372C391.173 201.332 389.726 205.383 388.486 208.524C387.246 211.748 386.419 213.732 386.006 214.476C384.353 217.535 382.617 219.725 380.798 221.048C379.062 222.371 377.657 223.032 376.582 223.032Z" fill="#2FCEFF"/>
</g>
<path id="powerful image cropping library" d="M534.569 138.526L537.247 123.258H539.442L539.074 125.327L538.57 124.718H539.242C539.697 124.144 540.25 123.699 540.901 123.384C541.559 123.069 542.28 122.912 543.064 122.912C544.541 122.912 545.679 123.479 546.477 124.613C547.275 125.747 547.527 127.171 547.233 128.886C546.946 130.517 546.263 131.837 545.185 132.845C544.107 133.846 542.872 134.346 541.479 134.346C540.681 134.346 539.956 134.171 539.305 133.821C538.661 133.464 538.22 133.016 537.982 132.477H537.919L536.859 138.526H534.569ZM541.174 132.351C542.098 132.351 542.914 132.008 543.621 131.322C544.335 130.636 544.786 129.754 544.975 128.676C545.164 127.584 545.01 126.681 544.513 125.967C544.016 125.246 543.285 124.886 542.319 124.886C541.395 124.886 540.579 125.218 539.872 125.883C539.172 126.548 538.728 127.43 538.539 128.529C538.35 129.614 538.504 130.524 539.001 131.259C539.498 131.987 540.222 132.351 541.174 132.351ZM553.557 134.346C551.863 134.346 550.558 133.776 549.641 132.635C548.731 131.487 548.416 130.069 548.696 128.382C548.99 126.758 549.725 125.442 550.901 124.434C552.077 123.419 553.449 122.912 555.017 122.912C556.697 122.912 558.006 123.479 558.944 124.613C559.882 125.747 560.207 127.164 559.92 128.865C559.626 130.461 558.884 131.774 557.694 132.803C556.511 133.832 555.132 134.346 553.557 134.346ZM553.736 132.351C554.688 132.351 555.531 132.012 556.266 131.333C557.008 130.647 557.474 129.772 557.663 128.708C557.866 127.574 557.694 126.657 557.148 125.957C556.602 125.257 555.836 124.907 554.849 124.907C553.883 124.907 553.036 125.243 552.308 125.915C551.587 126.58 551.135 127.451 550.953 128.529C550.757 129.649 550.925 130.566 551.457 131.28C551.989 131.994 552.749 132.351 553.736 132.351ZM562.972 134L561.429 123.258H563.644L564.505 130.304L564.589 131.238H564.652L565.051 130.367L568.495 123.258H570.669L571.656 130.304L571.75 131.238H571.813L572.202 130.325L575.541 123.258H577.798L572.422 134H570.27L569.209 126.734L569.146 125.957H569.073L568.705 126.734L565.135 134H562.972ZM582.225 134.346C580.496 134.346 579.191 133.786 578.309 132.666C577.427 131.539 577.14 130.115 577.448 128.393C577.721 126.797 578.421 125.484 579.548 124.455C580.675 123.426 582.008 122.912 583.548 122.912C585.053 122.912 586.236 123.405 587.097 124.392C587.965 125.379 588.298 126.573 588.095 127.973L587.906 129.065H578.54L578.823 127.532H585.911C585.995 126.72 585.809 126.069 585.354 125.579C584.899 125.082 584.262 124.833 583.443 124.833C582.498 124.833 581.683 125.173 580.997 125.852C580.311 126.524 579.87 127.423 579.674 128.55C579.471 129.733 579.621 130.678 580.125 131.385C580.636 132.092 581.403 132.446 582.425 132.446C582.908 132.446 583.345 132.372 583.737 132.225C584.129 132.078 584.469 131.889 584.756 131.658C585.05 131.42 585.375 131.067 585.732 130.598L587.255 131.658C586.849 132.267 586.408 132.764 585.932 133.149C585.463 133.534 584.913 133.828 584.283 134.032C583.66 134.241 582.974 134.346 582.225 134.346ZM589.057 134L590.936 123.258H593.12L592.763 125.201L592.574 124.949H592.879C593.222 124.319 593.694 123.822 594.296 123.458C594.898 123.094 595.507 122.912 596.123 122.912C596.34 122.912 596.536 122.926 596.711 122.954C596.893 122.982 597.079 123.027 597.268 123.09C597.464 123.146 597.562 123.174 597.562 123.174L597.163 125.421C597.163 125.421 597.072 125.386 596.89 125.316C596.708 125.246 596.515 125.19 596.312 125.148C596.116 125.106 595.889 125.085 595.63 125.085C594.839 125.085 594.135 125.369 593.519 125.936C592.91 126.503 592.525 127.245 592.364 128.162L591.335 134H589.057ZM598.15 125.159L598.497 123.258H605.217L604.881 125.159H598.15ZM598.444 134L600.544 122.019C600.733 120.962 601.188 120.133 601.909 119.531C602.63 118.929 603.526 118.628 604.597 118.628C604.856 118.628 605.101 118.645 605.332 118.68C605.57 118.708 605.805 118.75 606.036 118.806C606.274 118.855 606.393 118.88 606.393 118.88L606.046 120.822C606.046 120.822 605.966 120.801 605.805 120.759C605.644 120.71 605.465 120.672 605.269 120.644C605.08 120.616 604.884 120.602 604.681 120.602C604.212 120.602 603.803 120.752 603.453 121.053C603.103 121.347 602.882 121.75 602.791 122.261L602.518 123.804L602.455 124.235L600.733 134H598.444ZM609.166 134.346C607.997 134.346 607.083 133.961 606.425 133.191C605.774 132.421 605.571 131.329 605.816 129.915L606.982 123.258H609.271L608.126 129.747C607.972 130.622 608.06 131.291 608.389 131.753C608.725 132.215 609.25 132.446 609.964 132.446C610.797 132.446 611.521 132.155 612.137 131.574C612.753 130.993 613.138 130.269 613.292 129.401L614.374 123.258H616.663L614.762 134H612.61L613.051 131.469L613.912 132.488H612.809C612.41 133.027 611.906 133.471 611.297 133.821C610.688 134.171 609.978 134.346 609.166 134.346ZM617.368 134L620.014 118.964H622.303L619.646 134H617.368ZM627.081 134L628.971 123.258H631.26L629.36 134H627.081ZM630.735 121.232C630.343 121.232 630.007 121.095 629.727 120.822C629.454 120.542 629.318 120.206 629.318 119.814C629.318 119.408 629.454 119.076 629.727 118.817C630.007 118.551 630.343 118.418 630.735 118.418C631.141 118.418 631.477 118.551 631.743 118.817C632.009 119.076 632.142 119.408 632.142 119.814C632.142 120.206 632.009 120.542 631.743 120.822C631.477 121.095 631.141 121.232 630.735 121.232ZM632.092 134L633.993 123.258H636.166L635.82 125.169L635.683 124.833H635.946C636.359 124.238 636.894 123.769 637.552 123.426C638.217 123.083 638.879 122.912 639.537 122.912C640.328 122.912 640.986 123.104 641.511 123.489C642.043 123.874 642.393 124.368 642.561 124.97C643.044 124.333 643.639 123.832 644.346 123.468C645.06 123.097 645.802 122.912 646.572 122.912C647.713 122.912 648.577 123.293 649.165 124.056C649.753 124.812 649.935 125.813 649.711 127.059L648.472 134H646.194L647.349 127.479C647.496 126.653 647.415 126.016 647.107 125.568C646.799 125.113 646.299 124.886 645.606 124.886C644.85 124.886 644.181 125.169 643.6 125.736C643.026 126.296 642.659 127.038 642.498 127.962L641.427 134H639.148L640.303 127.458C640.45 126.576 640.38 125.929 640.093 125.516C639.813 125.096 639.299 124.886 638.55 124.886C637.822 124.886 637.16 125.176 636.565 125.757C635.977 126.331 635.606 127.049 635.452 127.91L634.381 134H632.092ZM654.245 134.346C653.097 134.346 652.215 133.986 651.599 133.265C650.99 132.544 650.777 131.651 650.959 130.587C651.148 129.509 651.676 128.673 652.544 128.078C653.412 127.483 654.515 127.185 655.852 127.185C656.384 127.185 656.937 127.248 657.511 127.374C658.085 127.493 658.554 127.647 658.918 127.836L659.044 127.217C659.184 126.503 659.037 125.918 658.603 125.463C658.176 125.001 657.556 124.77 656.744 124.77C656.275 124.77 655.88 124.819 655.558 124.917C655.236 125.015 654.942 125.148 654.676 125.316C654.417 125.477 654.161 125.659 653.909 125.862C653.664 126.065 653.542 126.167 653.542 126.167L652.334 124.896C652.334 124.896 652.495 124.753 652.817 124.466C653.139 124.179 653.507 123.92 653.92 123.689C654.34 123.458 654.798 123.272 655.295 123.132C655.799 122.985 656.401 122.912 657.101 122.912C658.557 122.912 659.667 123.325 660.43 124.151C661.193 124.97 661.455 126.055 661.217 127.406L660.062 134H657.868L658.235 131.931L658.403 132.53H658.067C657.619 133.09 657.059 133.534 656.387 133.863C655.722 134.185 655.008 134.346 654.245 134.346ZM655.022 132.582C655.876 132.582 656.65 132.271 657.343 131.648C658.036 131.025 658.477 130.262 658.666 129.359C658.386 129.17 658.025 129.009 657.584 128.876C657.15 128.743 656.671 128.676 656.146 128.676C655.327 128.676 654.655 128.848 654.13 129.191C653.605 129.534 653.29 130.013 653.185 130.629C653.08 131.203 653.195 131.672 653.531 132.036C653.874 132.4 654.371 132.582 655.022 132.582ZM667.04 138.862C666.284 138.862 665.612 138.76 665.024 138.557C664.436 138.361 663.925 138.074 663.491 137.696C663.057 137.325 662.724 136.94 662.493 136.541C662.269 136.149 662.157 135.953 662.157 135.953L664.121 134.924C664.121 134.924 664.215 135.092 664.404 135.428C664.593 135.764 664.807 136.037 665.045 136.247C665.283 136.464 665.573 136.639 665.916 136.772C666.266 136.905 666.672 136.972 667.134 136.972C668.1 136.972 668.888 136.678 669.497 136.09C670.106 135.509 670.508 134.672 670.704 133.58L670.904 132.446H670.841C670.386 132.992 669.836 133.415 669.192 133.716C668.555 134.011 667.852 134.158 667.082 134.158C665.626 134.158 664.499 133.58 663.701 132.425C662.91 131.27 662.665 129.884 662.966 128.267C663.246 126.65 663.911 125.355 664.961 124.382C666.011 123.402 667.243 122.912 668.657 122.912C669.455 122.912 670.183 123.083 670.841 123.426C671.499 123.769 671.975 124.217 672.269 124.77H672.867L672.227 125.379L672.605 123.258H674.799L672.972 133.622C672.671 135.337 672.01 136.639 670.988 137.528C669.973 138.417 668.657 138.862 667.04 138.862ZM667.869 132.183C668.793 132.183 669.609 131.854 670.316 131.196C671.023 130.538 671.467 129.677 671.649 128.613C671.845 127.528 671.695 126.636 671.198 125.936C670.701 125.229 669.969 124.875 669.003 124.875C668.072 124.875 667.257 125.211 666.557 125.883C665.857 126.548 665.412 127.406 665.223 128.456L665.213 128.477C665.059 129.59 665.227 130.486 665.717 131.165C666.207 131.844 666.924 132.183 667.869 132.183ZM680.663 134.346C678.934 134.346 677.628 133.786 676.746 132.666C675.864 131.539 675.577 130.115 675.885 128.393C676.158 126.797 676.858 125.484 677.985 124.455C679.112 123.426 680.446 122.912 681.986 122.912C683.491 122.912 684.674 123.405 685.535 124.392C686.403 125.379 686.735 126.573 686.532 127.973L686.343 129.065H676.977L677.261 127.532H684.348C684.432 126.72 684.247 126.069 683.792 125.579C683.337 125.082 682.7 124.833 681.881 124.833C680.936 124.833 680.12 125.173 679.434 125.852C678.748 126.524 678.307 127.423 678.111 128.55C677.908 129.733 678.059 130.678 678.563 131.385C679.074 132.092 679.84 132.446 680.862 132.446C681.345 132.446 681.783 132.372 682.175 132.225C682.567 132.078 682.906 131.889 683.193 131.658C683.487 131.42 683.813 131.067 684.17 130.598L685.692 131.658C685.286 132.267 684.845 132.764 684.369 133.149C683.9 133.534 683.351 133.828 682.721 134.032C682.098 134.241 681.412 134.346 680.663 134.346ZM540.67 160.368C538.871 160.368 537.499 159.8 536.554 158.666C535.616 157.525 535.305 156.08 535.62 154.33C535.907 152.685 536.649 151.358 537.846 150.35C539.043 149.342 540.467 148.838 542.119 148.838C542.994 148.838 543.736 148.968 544.345 149.227C544.961 149.486 545.476 149.846 545.889 150.308C546.309 150.763 546.662 151.369 546.949 152.125L544.114 153.154C543.939 152.72 543.761 152.405 543.579 152.209C543.397 152.006 543.173 151.852 542.907 151.747C542.648 151.635 542.34 151.579 541.983 151.579C541.206 151.579 540.52 151.859 539.925 152.419C539.337 152.972 538.966 153.693 538.812 154.582C538.651 155.464 538.777 156.192 539.19 156.766C539.603 157.333 540.208 157.616 541.006 157.616C541.398 157.616 541.734 157.56 542.014 157.448C542.294 157.336 542.557 157.179 542.802 156.976C543.047 156.766 543.309 156.44 543.589 155.999L546.214 157.091C545.815 157.847 545.367 158.449 544.87 158.897C544.373 159.338 543.768 159.695 543.054 159.968C542.347 160.235 541.552 160.368 540.67 160.368ZM547.312 160L549.213 149.195H552.363L551.995 151.19L551.68 150.844H552.132C552.538 150.151 553.01 149.643 553.549 149.321C554.095 148.999 554.655 148.838 555.229 148.838C555.453 148.838 555.663 148.856 555.859 148.891C556.062 148.926 556.265 148.975 556.468 149.038C556.671 149.101 556.773 149.132 556.773 149.132L556.237 152.146C556.237 152.146 556.146 152.107 555.964 152.03C555.789 151.946 555.583 151.876 555.345 151.82C555.107 151.757 554.83 151.726 554.515 151.726C553.808 151.726 553.182 151.971 552.636 152.461C552.09 152.944 551.74 153.626 551.586 154.508L550.609 160H547.312ZM561.284 160.368C559.485 160.368 558.096 159.783 557.116 158.614C556.136 157.445 555.789 155.999 556.076 154.277C556.37 152.646 557.119 151.334 558.323 150.34C559.527 149.339 560.955 148.838 562.607 148.838C564.406 148.838 565.803 149.423 566.797 150.592C567.791 151.754 568.141 153.199 567.847 154.928C567.553 156.545 566.8 157.858 565.589 158.866C564.378 159.867 562.943 160.368 561.284 160.368ZM561.505 157.606C562.282 157.606 562.964 157.333 563.552 156.787C564.14 156.241 564.515 155.537 564.676 154.676C564.83 153.759 564.686 153.017 564.245 152.45C563.811 151.876 563.195 151.589 562.397 151.589C561.613 151.589 560.931 151.862 560.35 152.408C559.769 152.947 559.405 153.651 559.258 154.519C559.104 155.422 559.24 156.164 559.667 156.745C560.101 157.319 560.714 157.606 561.505 157.606ZM567.986 164.526L570.684 149.195H573.845L573.488 151.264L572.837 150.476H573.687C574.114 149.958 574.646 149.556 575.283 149.269C575.92 148.982 576.606 148.838 577.341 148.838C578.832 148.838 579.963 149.409 580.733 150.55C581.51 151.691 581.748 153.133 581.447 154.876C581.153 156.549 580.474 157.882 579.41 158.876C578.346 159.87 577.103 160.368 575.682 160.368C574.933 160.368 574.258 160.213 573.656 159.905C573.054 159.597 572.627 159.202 572.375 158.719L572.312 158.729L571.283 164.526H567.986ZM575.147 157.616C575.903 157.616 576.568 157.34 577.142 156.787C577.723 156.234 578.09 155.523 578.244 154.655C578.398 153.766 578.269 153.031 577.856 152.45C577.443 151.862 576.844 151.568 576.06 151.568C575.304 151.568 574.639 151.841 574.065 152.387C573.491 152.926 573.127 153.637 572.973 154.519C572.819 155.401 572.949 156.139 573.362 156.734C573.775 157.322 574.37 157.616 575.147 157.616ZM581.582 164.526L584.281 149.195H587.441L587.084 151.264L586.433 150.476H587.284C587.711 149.958 588.243 149.556 588.88 149.269C589.517 148.982 590.203 148.838 590.938 148.838C592.429 148.838 593.559 149.409 594.329 150.55C595.106 151.691 595.344 153.133 595.043 154.876C594.749 156.549 594.07 157.882 593.006 158.876C591.942 159.87 590.7 160.368 589.279 160.368C588.53 160.368 587.854 160.213 587.252 159.905C586.65 159.597 586.223 159.202 585.971 158.719L585.908 158.729L584.879 164.526H581.582ZM588.743 157.616C589.499 157.616 590.164 157.34 590.738 156.787C591.319 156.234 591.687 155.523 591.841 154.655C591.995 153.766 591.865 153.031 591.452 152.45C591.039 151.862 590.441 151.568 589.657 151.568C588.901 151.568 588.236 151.841 587.662 152.387C587.088 152.926 586.724 153.637 586.57 154.519C586.416 155.401 586.545 156.139 586.958 156.734C587.371 157.322 587.966 157.616 588.743 157.616ZM596.051 160L597.951 149.195H601.248L599.348 160H596.051ZM600.23 147.526C599.712 147.526 599.274 147.351 598.917 147.001C598.56 146.644 598.382 146.206 598.382 145.688C598.382 145.163 598.56 144.729 598.917 144.386C599.274 144.043 599.712 143.872 600.23 143.872C600.762 143.872 601.199 144.043 601.542 144.386C601.892 144.729 602.067 145.163 602.067 145.688C602.067 146.206 601.892 146.644 601.542 147.001C601.199 147.351 600.762 147.526 600.23 147.526ZM601.934 160L603.845 149.195H606.985L606.607 151.285L606.281 150.77H606.775C607.216 150.168 607.776 149.696 608.455 149.353C609.134 149.01 609.855 148.838 610.618 148.838C611.752 148.838 612.627 149.216 613.243 149.972C613.859 150.728 614.058 151.712 613.841 152.923L612.592 160H609.284L610.408 153.626C610.527 152.975 610.453 152.464 610.187 152.093C609.921 151.715 609.491 151.526 608.896 151.526C608.259 151.526 607.699 151.75 607.216 152.198C606.74 152.639 606.435 153.22 606.302 153.941L605.242 160H601.934ZM619.555 164.883C618.701 164.883 617.956 164.771 617.319 164.547C616.689 164.33 616.153 164.032 615.712 163.654C615.271 163.283 614.939 162.905 614.715 162.52C614.491 162.142 614.379 161.953 614.379 161.953L616.983 160.641C616.983 160.641 617.067 160.781 617.235 161.061C617.403 161.348 617.592 161.586 617.802 161.775C618.019 161.971 618.281 162.128 618.589 162.247C618.904 162.366 619.265 162.426 619.671 162.426C620.511 162.426 621.2 162.177 621.739 161.68C622.278 161.183 622.635 160.476 622.81 159.559L623.01 158.519H622.936C622.488 159.016 621.963 159.398 621.361 159.664C620.766 159.923 620.108 160.053 619.387 160.053C617.924 160.053 616.804 159.485 616.027 158.351C615.257 157.21 615.019 155.814 615.313 154.162C615.6 152.531 616.258 151.236 617.287 150.277C618.323 149.318 619.559 148.838 620.994 148.838C621.764 148.838 622.457 148.989 623.073 149.29C623.696 149.584 624.154 149.972 624.448 150.455H625.257L624.385 151.243L624.742 149.195H627.892L626.097 159.422C625.782 161.222 625.057 162.58 623.923 163.497C622.789 164.421 621.333 164.883 619.555 164.883ZM620.689 157.375C621.445 157.375 622.107 157.112 622.674 156.587C623.248 156.055 623.612 155.362 623.766 154.508C623.927 153.654 623.801 152.944 623.388 152.377C622.975 151.803 622.376 151.516 621.592 151.516C620.836 151.516 620.171 151.785 619.597 152.324C619.03 152.863 618.67 153.546 618.516 154.372V154.382C618.383 155.271 618.519 155.992 618.925 156.545C619.331 157.098 619.919 157.375 620.689 157.375ZM633.261 160L635.907 144.964H638.196L635.54 160H633.261ZM638.279 160L640.169 149.258H642.458L640.557 160H638.279ZM641.933 147.232C641.541 147.232 641.205 147.095 640.925 146.822C640.652 146.542 640.515 146.206 640.515 145.814C640.515 145.408 640.652 145.076 640.925 144.817C641.205 144.551 641.541 144.418 641.933 144.418C642.339 144.418 642.675 144.551 642.941 144.817C643.207 145.076 643.34 145.408 643.34 145.814C643.34 146.206 643.207 146.542 642.941 146.822C642.675 147.095 642.339 147.232 641.933 147.232ZM649.411 160.346C648.543 160.346 647.794 160.164 647.164 159.8C646.541 159.429 646.093 158.978 645.82 158.446H645.232L645.873 157.837L645.474 160H643.29L645.946 144.964H648.225L647.227 150.665L647.28 150.676C647.728 150.109 648.274 149.675 648.918 149.374C649.562 149.066 650.262 148.912 651.018 148.912C652.481 148.912 653.611 149.479 654.409 150.613C655.214 151.747 655.466 153.171 655.165 154.886C654.878 156.517 654.196 157.837 653.118 158.845C652.04 159.846 650.804 160.346 649.411 160.346ZM649.107 158.351C650.031 158.351 650.846 158.008 651.553 157.322C652.267 156.636 652.719 155.754 652.908 154.676C653.097 153.584 652.943 152.681 652.446 151.967C651.949 151.246 651.217 150.886 650.251 150.886C649.327 150.886 648.512 151.229 647.805 151.915C647.105 152.601 646.66 153.472 646.471 154.529C646.282 155.635 646.436 156.549 646.933 157.27C647.43 157.991 648.155 158.351 649.107 158.351ZM656.261 160L658.141 149.258H660.325L659.968 151.201L659.779 150.949H660.083C660.426 150.319 660.899 149.822 661.501 149.458C662.103 149.094 662.712 148.912 663.328 148.912C663.545 148.912 663.741 148.926 663.916 148.954C664.098 148.982 664.283 149.027 664.472 149.09C664.668 149.146 664.766 149.174 664.766 149.174L664.367 151.421C664.367 151.421 664.276 151.386 664.094 151.316C663.912 151.246 663.72 151.19 663.517 151.148C663.321 151.106 663.093 151.085 662.834 151.085C662.043 151.085 661.34 151.369 660.724 151.936C660.115 152.503 659.73 153.245 659.569 154.162L658.54 160H656.261ZM667.247 160.346C666.099 160.346 665.217 159.986 664.601 159.265C663.992 158.544 663.779 157.651 663.961 156.587C664.15 155.509 664.678 154.673 665.546 154.078C666.414 153.483 667.517 153.185 668.854 153.185C669.386 153.185 669.939 153.248 670.513 153.374C671.087 153.493 671.556 153.647 671.92 153.836L672.046 153.217C672.186 152.503 672.039 151.918 671.605 151.463C671.178 151.001 670.558 150.77 669.746 150.77C669.277 150.77 668.882 150.819 668.56 150.917C668.238 151.015 667.944 151.148 667.678 151.316C667.419 151.477 667.163 151.659 666.911 151.862C666.666 152.065 666.544 152.167 666.544 152.167L665.336 150.896C665.336 150.896 665.497 150.753 665.819 150.466C666.141 150.179 666.509 149.92 666.922 149.689C667.342 149.458 667.8 149.272 668.297 149.132C668.801 148.985 669.403 148.912 670.103 148.912C671.559 148.912 672.669 149.325 673.432 150.151C674.195 150.97 674.457 152.055 674.219 153.406L673.064 160H670.87L671.237 157.931L671.405 158.53H671.069C670.621 159.09 670.061 159.534 669.389 159.863C668.724 160.185 668.01 160.346 667.247 160.346ZM668.024 158.582C668.878 158.582 669.652 158.271 670.345 157.648C671.038 157.025 671.479 156.262 671.668 155.359C671.388 155.17 671.027 155.009 670.586 154.876C670.152 154.743 669.673 154.676 669.148 154.676C668.329 154.676 667.657 154.848 667.132 155.191C666.607 155.534 666.292 156.013 666.187 156.629C666.082 157.203 666.197 157.672 666.533 158.036C666.876 158.4 667.373 158.582 668.024 158.582ZM675.579 160L677.459 149.258H679.643L679.286 151.201L679.097 150.949H679.401C679.744 150.319 680.217 149.822 680.819 149.458C681.421 149.094 682.03 148.912 682.646 148.912C682.863 148.912 683.059 148.926 683.234 148.954C683.416 148.982 683.601 149.027 683.79 149.09C683.986 149.146 684.084 149.174 684.084 149.174L683.685 151.421C683.685 151.421 683.594 151.386 683.412 151.316C683.23 151.246 683.038 151.19 682.835 151.148C682.639 151.106 682.411 151.085 682.152 151.085C681.361 151.085 680.658 151.369 680.042 151.936C679.433 152.503 679.048 153.245 678.887 154.162L677.858 160H675.579ZM683.813 164.536L687.561 158.645L687.32 160L684.506 149.258H686.826L688.443 156.01L688.611 156.892H688.674L689.147 155.999L693 149.258H695.447L686.186 164.536H683.813Z" fill="black" fill-opacity="0.21"/>
<g id="powerful_image_cropping_library">
<path d="M534.569 135.526L537.247 120.258H539.442L539.074 122.327L538.57 121.718H539.242C539.697 121.144 540.25 120.699 540.901 120.384C541.559 120.069 542.28 119.912 543.064 119.912C544.541 119.912 545.679 120.479 546.477 121.613C547.275 122.747 547.527 124.171 547.233 125.886C546.946 127.517 546.263 128.837 545.185 129.845C544.107 130.846 542.872 131.346 541.479 131.346C540.681 131.346 539.956 131.171 539.305 130.821C538.661 130.464 538.22 130.016 537.982 129.477H537.919L536.859 135.526H534.569ZM541.174 129.351C542.098 129.351 542.914 129.008 543.621 128.322C544.335 127.636 544.786 126.754 544.975 125.676C545.164 124.584 545.01 123.681 544.513 122.967C544.016 122.246 543.285 121.886 542.319 121.886C541.395 121.886 540.579 122.218 539.872 122.883C539.172 123.548 538.728 124.43 538.539 125.529C538.35 126.614 538.504 127.524 539.001 128.259C539.498 128.987 540.222 129.351 541.174 129.351ZM553.557 131.346C551.863 131.346 550.558 130.776 549.641 129.635C548.731 128.487 548.416 127.069 548.696 125.382C548.99 123.758 549.725 122.442 550.901 121.434C552.077 120.419 553.449 119.912 555.017 119.912C556.697 119.912 558.006 120.479 558.944 121.613C559.882 122.747 560.207 124.164 559.92 125.865C559.626 127.461 558.884 128.774 557.694 129.803C556.511 130.832 555.132 131.346 553.557 131.346ZM553.736 129.351C554.688 129.351 555.531 129.012 556.266 128.333C557.008 127.647 557.474 126.772 557.663 125.708C557.866 124.574 557.694 123.657 557.148 122.957C556.602 122.257 555.836 121.907 554.849 121.907C553.883 121.907 553.036 122.243 552.308 122.915C551.587 123.58 551.135 124.451 550.953 125.529C550.757 126.649 550.925 127.566 551.457 128.28C551.989 128.994 552.749 129.351 553.736 129.351ZM562.972 131L561.429 120.258H563.644L564.505 127.304L564.589 128.238H564.652L565.051 127.367L568.495 120.258H570.669L571.656 127.304L571.75 128.238H571.813L572.202 127.325L575.541 120.258H577.798L572.422 131H570.27L569.209 123.734L569.146 122.957H569.073L568.705 123.734L565.135 131H562.972ZM582.225 131.346C580.496 131.346 579.191 130.786 578.309 129.666C577.427 128.539 577.14 127.115 577.448 125.393C577.721 123.797 578.421 122.484 579.548 121.455C580.675 120.426 582.008 119.912 583.548 119.912C585.053 119.912 586.236 120.405 587.097 121.392C587.965 122.379 588.298 123.573 588.095 124.973L587.906 126.065H578.54L578.823 124.532H585.911C585.995 123.72 585.809 123.069 585.354 122.579C584.899 122.082 584.262 121.833 583.443 121.833C582.498 121.833 581.683 122.173 580.997 122.852C580.311 123.524 579.87 124.423 579.674 125.55C579.471 126.733 579.621 127.678 580.125 128.385C580.636 129.092 581.403 129.446 582.425 129.446C582.908 129.446 583.345 129.372 583.737 129.225C584.129 129.078 584.469 128.889 584.756 128.658C585.05 128.42 585.375 128.067 585.732 127.598L587.255 128.658C586.849 129.267 586.408 129.764 585.932 130.149C585.463 130.534 584.913 130.828 584.283 131.032C583.66 131.241 582.974 131.346 582.225 131.346ZM589.057 131L590.936 120.258H593.12L592.763 122.201L592.574 121.949H592.879C593.222 121.319 593.694 120.822 594.296 120.458C594.898 120.094 595.507 119.912 596.123 119.912C596.34 119.912 596.536 119.926 596.711 119.954C596.893 119.982 597.079 120.027 597.268 120.09C597.464 120.146 597.562 120.174 597.562 120.174L597.163 122.421C597.163 122.421 597.072 122.386 596.89 122.316C596.708 122.246 596.515 122.19 596.312 122.148C596.116 122.106 595.889 122.085 595.63 122.085C594.839 122.085 594.135 122.369 593.519 122.936C592.91 123.503 592.525 124.245 592.364 125.162L591.335 131H589.057ZM598.15 122.159L598.497 120.258H605.217L604.881 122.159H598.15ZM598.444 131L600.544 119.019C600.733 117.962 601.188 117.133 601.909 116.531C602.63 115.929 603.526 115.628 604.597 115.628C604.856 115.628 605.101 115.645 605.332 115.68C605.57 115.708 605.805 115.75 606.036 115.806C606.274 115.855 606.393 115.88 606.393 115.88L606.046 117.822C606.046 117.822 605.966 117.801 605.805 117.759C605.644 117.71 605.465 117.672 605.269 117.644C605.08 117.616 604.884 117.602 604.681 117.602C604.212 117.602 603.803 117.752 603.453 118.053C603.103 118.347 602.882 118.75 602.791 119.261L602.518 120.804L602.455 121.235L600.733 131H598.444ZM609.166 131.346C607.997 131.346 607.083 130.961 606.425 130.191C605.774 129.421 605.571 128.329 605.816 126.915L606.982 120.258H609.271L608.126 126.747C607.972 127.622 608.06 128.291 608.389 128.753C608.725 129.215 609.25 129.446 609.964 129.446C610.797 129.446 611.521 129.155 612.137 128.574C612.753 127.993 613.138 127.269 613.292 126.401L614.374 120.258H616.663L614.762 131H612.61L613.051 128.469L613.912 129.488H612.809C612.41 130.027 611.906 130.471 611.297 130.821C610.688 131.171 609.978 131.346 609.166 131.346ZM617.368 131L620.014 115.964H622.303L619.646 131H617.368ZM627.081 131L628.971 120.258H631.26L629.36 131H627.081ZM630.735 118.232C630.343 118.232 630.007 118.095 629.727 117.822C629.454 117.542 629.318 117.206 629.318 116.814C629.318 116.408 629.454 116.076 629.727 115.817C630.007 115.551 630.343 115.418 630.735 115.418C631.141 115.418 631.477 115.551 631.743 115.817C632.009 116.076 632.142 116.408 632.142 116.814C632.142 117.206 632.009 117.542 631.743 117.822C631.477 118.095 631.141 118.232 630.735 118.232ZM632.092 131L633.993 120.258H636.166L635.82 122.169L635.683 121.833H635.946C636.359 121.238 636.894 120.769 637.552 120.426C638.217 120.083 638.879 119.912 639.537 119.912C640.328 119.912 640.986 120.104 641.511 120.489C642.043 120.874 642.393 121.368 642.561 121.97C643.044 121.333 643.639 120.832 644.346 120.468C645.06 120.097 645.802 119.912 646.572 119.912C647.713 119.912 648.577 120.293 649.165 121.056C649.753 121.812 649.935 122.813 649.711 124.059L648.472 131H646.194L647.349 124.479C647.496 123.653 647.415 123.016 647.107 122.568C646.799 122.113 646.299 121.886 645.606 121.886C644.85 121.886 644.181 122.169 643.6 122.736C643.026 123.296 642.659 124.038 642.498 124.962L641.427 131H639.148L640.303 124.458C640.45 123.576 640.38 122.929 640.093 122.516C639.813 122.096 639.299 121.886 638.55 121.886C637.822 121.886 637.16 122.176 636.565 122.757C635.977 123.331 635.606 124.049 635.452 124.91L634.381 131H632.092ZM654.245 131.346C653.097 131.346 652.215 130.986 651.599 130.265C650.99 129.544 650.777 128.651 650.959 127.587C651.148 126.509 651.676 125.673 652.544 125.078C653.412 124.483 654.515 124.185 655.852 124.185C656.384 124.185 656.937 124.248 657.511 124.374C658.085 124.493 658.554 124.647 658.918 124.836L659.044 124.217C659.184 123.503 659.037 122.918 658.603 122.463C658.176 122.001 657.556 121.77 656.744 121.77C656.275 121.77 655.88 121.819 655.558 121.917C655.236 122.015 654.942 122.148 654.676 122.316C654.417 122.477 654.161 122.659 653.909 122.862C653.664 123.065 653.542 123.167 653.542 123.167L652.334 121.896C652.334 121.896 652.495 121.753 652.817 121.466C653.139 121.179 653.507 120.92 653.92 120.689C654.34 120.458 654.798 120.272 655.295 120.132C655.799 119.985 656.401 119.912 657.101 119.912C658.557 119.912 659.667 120.325 660.43 121.151C661.193 121.97 661.455 123.055 661.217 124.406L660.062 131H657.868L658.235 128.931L658.403 129.53H658.067C657.619 130.09 657.059 130.534 656.387 130.863C655.722 131.185 655.008 131.346 654.245 131.346ZM655.022 129.582C655.876 129.582 656.65 129.271 657.343 128.648C658.036 128.025 658.477 127.262 658.666 126.359C658.386 126.17 658.025 126.009 657.584 125.876C657.15 125.743 656.671 125.676 656.146 125.676C655.327 125.676 654.655 125.848 654.13 126.191C653.605 126.534 653.29 127.013 653.185 127.629C653.08 128.203 653.195 128.672 653.531 129.036C653.874 129.4 654.371 129.582 655.022 129.582ZM667.04 135.862C666.284 135.862 665.612 135.76 665.024 135.557C664.436 135.361 663.925 135.074 663.491 134.696C663.057 134.325 662.724 133.94 662.493 133.541C662.269 133.149 662.157 132.953 662.157 132.953L664.121 131.924C664.121 131.924 664.215 132.092 664.404 132.428C664.593 132.764 664.807 133.037 665.045 133.247C665.283 133.464 665.573 133.639 665.916 133.772C666.266 133.905 666.672 133.972 667.134 133.972C668.1 133.972 668.888 133.678 669.497 133.09C670.106 132.509 670.508 131.672 670.704 130.58L670.904 129.446H670.841C670.386 129.992 669.836 130.415 669.192 130.716C668.555 131.011 667.852 131.158 667.082 131.158C665.626 131.158 664.499 130.58 663.701 129.425C662.91 128.27 662.665 126.884 662.966 125.267C663.246 123.65 663.911 122.355 664.961 121.382C666.011 120.402 667.243 119.912 668.657 119.912C669.455 119.912 670.183 120.083 670.841 120.426C671.499 120.769 671.975 121.217 672.269 121.77H672.867L672.227 122.379L672.605 120.258H674.799L672.972 130.622C672.671 132.337 672.01 133.639 670.988 134.528C669.973 135.417 668.657 135.862 667.04 135.862ZM667.869 129.183C668.793 129.183 669.609 128.854 670.316 128.196C671.023 127.538 671.467 126.677 671.649 125.613C671.845 124.528 671.695 123.636 671.198 122.936C670.701 122.229 669.969 121.875 669.003 121.875C668.072 121.875 667.257 122.211 666.557 122.883C665.857 123.548 665.412 124.406 665.223 125.456L665.213 125.477C665.059 126.59 665.227 127.486 665.717 128.165C666.207 128.844 666.924 129.183 667.869 129.183ZM680.663 131.346C678.934 131.346 677.628 130.786 676.746 129.666C675.864 128.539 675.577 127.115 675.885 125.393C676.158 123.797 676.858 122.484 677.985 121.455C679.112 120.426 680.446 119.912 681.986 119.912C683.491 119.912 684.674 120.405 685.535 121.392C686.403 122.379 686.735 123.573 686.532 124.973L686.343 126.065H676.977L677.261 124.532H684.348C684.432 123.72 684.247 123.069 683.792 122.579C683.337 122.082 682.7 121.833 681.881 121.833C680.936 121.833 680.12 122.173 679.434 122.852C678.748 123.524 678.307 124.423 678.111 125.55C677.908 126.733 678.059 127.678 678.563 128.385C679.074 129.092 679.84 129.446 680.862 129.446C681.345 129.446 681.783 129.372 682.175 129.225C682.567 129.078 682.906 128.889 683.193 128.658C683.487 128.42 683.813 128.067 684.17 127.598L685.692 128.658C685.286 129.267 684.845 129.764 684.369 130.149C683.9 130.534 683.351 130.828 682.721 131.032C682.098 131.241 681.412 131.346 680.663 131.346ZM633.261 157L635.907 141.964H638.196L635.54 157H633.261ZM638.279 157L640.169 146.258H642.458L640.557 157H638.279ZM641.933 144.232C641.541 144.232 641.205 144.095 640.925 143.822C640.652 143.542 640.515 143.206 640.515 142.814C640.515 142.408 640.652 142.076 640.925 141.817C641.205 141.551 641.541 141.418 641.933 141.418C642.339 141.418 642.675 141.551 642.941 141.817C643.207 142.076 643.34 142.408 643.34 142.814C643.34 143.206 643.207 143.542 642.941 143.822C642.675 144.095 642.339 144.232 641.933 144.232ZM649.411 157.346C648.543 157.346 647.794 157.164 647.164 156.8C646.541 156.429 646.093 155.978 645.82 155.446H645.232L645.873 154.837L645.474 157H643.29L645.946 141.964H648.225L647.227 147.665L647.28 147.676C647.728 147.109 648.274 146.675 648.918 146.374C649.562 146.066 650.262 145.912 651.018 145.912C652.481 145.912 653.611 146.479 654.409 147.613C655.214 148.747 655.466 150.171 655.165 151.886C654.878 153.517 654.196 154.837 653.118 155.845C652.04 156.846 650.804 157.346 649.411 157.346ZM649.107 155.351C650.031 155.351 650.846 155.008 651.553 154.322C652.267 153.636 652.719 152.754 652.908 151.676C653.097 150.584 652.943 149.681 652.446 148.967C651.949 148.246 651.217 147.886 650.251 147.886C649.327 147.886 648.512 148.229 647.805 148.915C647.105 149.601 646.66 150.472 646.471 151.529C646.282 152.635 646.436 153.549 646.933 154.27C647.43 154.991 648.155 155.351 649.107 155.351ZM656.261 157L658.141 146.258H660.325L659.968 148.201L659.779 147.949H660.083C660.426 147.319 660.899 146.822 661.501 146.458C662.103 146.094 662.712 145.912 663.328 145.912C663.545 145.912 663.741 145.926 663.916 145.954C664.098 145.982 664.283 146.027 664.472 146.09C664.668 146.146 664.766 146.174 664.766 146.174L664.367 148.421C664.367 148.421 664.276 148.386 664.094 148.316C663.912 148.246 663.72 148.19 663.517 148.148C663.321 148.106 663.093 148.085 662.834 148.085C662.043 148.085 661.34 148.369 660.724 148.936C660.115 149.503 659.73 150.245 659.569 151.162L658.54 157H656.261ZM667.247 157.346C666.099 157.346 665.217 156.986 664.601 156.265C663.992 155.544 663.779 154.651 663.961 153.587C664.15 152.509 664.678 151.673 665.546 151.078C666.414 150.483 667.517 150.185 668.854 150.185C669.386 150.185 669.939 150.248 670.513 150.374C671.087 150.493 671.556 150.647 671.92 150.836L672.046 150.217C672.186 149.503 672.039 148.918 671.605 148.463C671.178 148.001 670.558 147.77 669.746 147.77C669.277 147.77 668.882 147.819 668.56 147.917C668.238 148.015 667.944 148.148 667.678 148.316C667.419 148.477 667.163 148.659 666.911 148.862C666.666 149.065 666.544 149.167 666.544 149.167L665.336 147.896C665.336 147.896 665.497 147.753 665.819 147.466C666.141 147.179 666.509 146.92 666.922 146.689C667.342 146.458 667.8 146.272 668.297 146.132C668.801 145.985 669.403 145.912 670.103 145.912C671.559 145.912 672.669 146.325 673.432 147.151C674.195 147.97 674.457 149.055 674.219 150.406L673.064 157H670.87L671.237 154.931L671.405 155.53H671.069C670.621 156.09 670.061 156.534 669.389 156.863C668.724 157.185 668.01 157.346 667.247 157.346ZM668.024 155.582C668.878 155.582 669.652 155.271 670.345 154.648C671.038 154.025 671.479 153.262 671.668 152.359C671.388 152.17 671.027 152.009 670.586 151.876C670.152 151.743 669.673 151.676 669.148 151.676C668.329 151.676 667.657 151.848 667.132 152.191C666.607 152.534 666.292 153.013 666.187 153.629C666.082 154.203 666.197 154.672 666.533 155.036C666.876 155.4 667.373 155.582 668.024 155.582ZM675.579 157L677.459 146.258H679.643L679.286 148.201L679.097 147.949H679.401C679.744 147.319 680.217 146.822 680.819 146.458C681.421 146.094 682.03 145.912 682.646 145.912C682.863 145.912 683.059 145.926 683.234 145.954C683.416 145.982 683.601 146.027 683.79 146.09C683.986 146.146 684.084 146.174 684.084 146.174L683.685 148.421C683.685 148.421 683.594 148.386 683.412 148.316C683.23 148.246 683.038 148.19 682.835 148.148C682.639 148.106 682.411 148.085 682.152 148.085C681.361 148.085 680.658 148.369 680.042 148.936C679.433 149.503 679.048 150.245 678.887 151.162L677.858 157H675.579ZM683.813 161.536L687.561 155.645L687.32 157L684.506 146.258H686.826L688.443 153.01L688.611 153.892H688.674L689.147 152.999L693 146.258H695.447L686.186 161.536H683.813Z" fill="white"/>
<path d="M540.67 157.368C538.871 157.368 537.499 156.8 536.554 155.666C535.616 154.525 535.305 153.08 535.62 151.33C535.907 149.685 536.649 148.358 537.846 147.35C539.043 146.342 540.467 145.838 542.119 145.838C542.994 145.838 543.736 145.968 544.345 146.227C544.961 146.486 545.476 146.846 545.889 147.308C546.309 147.763 546.662 148.369 546.949 149.125L544.114 150.154C543.939 149.72 543.761 149.405 543.579 149.209C543.397 149.006 543.173 148.852 542.907 148.747C542.648 148.635 542.34 148.579 541.983 148.579C541.206 148.579 540.52 148.859 539.925 149.419C539.337 149.972 538.966 150.693 538.812 151.582C538.651 152.464 538.777 153.192 539.19 153.766C539.603 154.333 540.208 154.616 541.006 154.616C541.398 154.616 541.734 154.56 542.014 154.448C542.294 154.336 542.557 154.179 542.802 153.976C543.047 153.766 543.309 153.44 543.589 152.999L546.214 154.091C545.815 154.847 545.367 155.449 544.87 155.897C544.373 156.338 543.768 156.695 543.054 156.968C542.347 157.235 541.552 157.368 540.67 157.368ZM547.312 157L549.213 146.195H552.363L551.995 148.19L551.68 147.844H552.132C552.538 147.151 553.01 146.643 553.549 146.321C554.095 145.999 554.655 145.838 555.229 145.838C555.453 145.838 555.663 145.856 555.859 145.891C556.062 145.926 556.265 145.975 556.468 146.038C556.671 146.101 556.773 146.132 556.773 146.132L556.237 149.146C556.237 149.146 556.146 149.107 555.964 149.03C555.789 148.946 555.583 148.876 555.345 148.82C555.107 148.757 554.83 148.726 554.515 148.726C553.808 148.726 553.182 148.971 552.636 149.461C552.09 149.944 551.74 150.626 551.586 151.508L550.609 157H547.312ZM561.284 157.368C559.485 157.368 558.096 156.783 557.116 155.614C556.136 154.445 555.789 152.999 556.076 151.277C556.37 149.646 557.119 148.334 558.323 147.34C559.527 146.339 560.955 145.838 562.607 145.838C564.406 145.838 565.803 146.423 566.797 147.592C567.791 148.754 568.141 150.199 567.847 151.928C567.553 153.545 566.8 154.858 565.589 155.866C564.378 156.867 562.943 157.368 561.284 157.368ZM561.505 154.606C562.282 154.606 562.964 154.333 563.552 153.787C564.14 153.241 564.515 152.537 564.676 151.676C564.83 150.759 564.686 150.017 564.245 149.45C563.811 148.876 563.195 148.589 562.397 148.589C561.613 148.589 560.931 148.862 560.35 149.408C559.769 149.947 559.405 150.651 559.258 151.519C559.104 152.422 559.24 153.164 559.667 153.745C560.101 154.319 560.714 154.606 561.505 154.606ZM567.986 161.526L570.684 146.195H573.845L573.488 148.264L572.837 147.476H573.687C574.114 146.958 574.646 146.556 575.283 146.269C575.92 145.982 576.606 145.838 577.341 145.838C578.832 145.838 579.963 146.409 580.733 147.55C581.51 148.691 581.748 150.133 581.447 151.876C581.153 153.549 580.474 154.882 579.41 155.876C578.346 156.87 577.103 157.368 575.682 157.368C574.933 157.368 574.258 157.213 573.656 156.905C573.054 156.597 572.627 156.202 572.375 155.719L572.312 155.729L571.283 161.526H567.986ZM575.147 154.616C575.903 154.616 576.568 154.34 577.142 153.787C577.723 153.234 578.09 152.523 578.244 151.655C578.398 150.766 578.269 150.031 577.856 149.45C577.443 148.862 576.844 148.568 576.06 148.568C575.304 148.568 574.639 148.841 574.065 149.387C573.491 149.926 573.127 150.637 572.973 151.519C572.819 152.401 572.949 153.139 573.362 153.734C573.775 154.322 574.37 154.616 575.147 154.616ZM581.582 161.526L584.281 146.195H587.441L587.084 148.264L586.433 147.476H587.284C587.711 146.958 588.243 146.556 588.88 146.269C589.517 145.982 590.203 145.838 590.938 145.838C592.429 145.838 593.559 146.409 594.329 147.55C595.106 148.691 595.344 150.133 595.043 151.876C594.749 153.549 594.07 154.882 593.006 155.876C591.942 156.87 590.7 157.368 589.279 157.368C588.53 157.368 587.854 157.213 587.252 156.905C586.65 156.597 586.223 156.202 585.971 155.719L585.908 155.729L584.879 161.526H581.582ZM588.743 154.616C589.499 154.616 590.164 154.34 590.738 153.787C591.319 153.234 591.687 152.523 591.841 151.655C591.995 150.766 591.865 150.031 591.452 149.45C591.039 148.862 590.441 148.568 589.657 148.568C588.901 148.568 588.236 148.841 587.662 149.387C587.088 149.926 586.724 150.637 586.57 151.519C586.416 152.401 586.545 153.139 586.958 153.734C587.371 154.322 587.966 154.616 588.743 154.616ZM596.051 157L597.951 146.195H601.248L599.348 157H596.051ZM600.23 144.526C599.712 144.526 599.274 144.351 598.917 144.001C598.56 143.644 598.382 143.206 598.382 142.688C598.382 142.163 598.56 141.729 598.917 141.386C599.274 141.043 599.712 140.872 600.23 140.872C600.762 140.872 601.199 141.043 601.542 141.386C601.892 141.729 602.067 142.163 602.067 142.688C602.067 143.206 601.892 143.644 601.542 144.001C601.199 144.351 600.762 144.526 600.23 144.526ZM601.934 157L603.845 146.195H606.985L606.607 148.285L606.281 147.77H606.775C607.216 147.168 607.776 146.696 608.455 146.353C609.134 146.01 609.855 145.838 610.618 145.838C611.752 145.838 612.627 146.216 613.243 146.972C613.859 147.728 614.058 148.712 613.841 149.923L612.592 157H609.284L610.408 150.626C610.527 149.975 610.453 149.464 610.187 149.093C609.921 148.715 609.491 148.526 608.896 148.526C608.259 148.526 607.699 148.75 607.216 149.198C606.74 149.639 606.435 150.22 606.302 150.941L605.242 157H601.934ZM619.555 161.883C618.701 161.883 617.956 161.771 617.319 161.547C616.689 161.33 616.153 161.032 615.712 160.654C615.271 160.283 614.939 159.905 614.715 159.52C614.491 159.142 614.379 158.953 614.379 158.953L616.983 157.641C616.983 157.641 617.067 157.781 617.235 158.061C617.403 158.348 617.592 158.586 617.802 158.775C618.019 158.971 618.281 159.128 618.589 159.247C618.904 159.366 619.265 159.426 619.671 159.426C620.511 159.426 621.2 159.177 621.739 158.68C622.278 158.183 622.635 157.476 622.81 156.559L623.01 155.519H622.936C622.488 156.016 621.963 156.398 621.361 156.664C620.766 156.923 620.108 157.053 619.387 157.053C617.924 157.053 616.804 156.485 616.027 155.351C615.257 154.21 615.019 152.814 615.313 151.162C615.6 149.531 616.258 148.236 617.287 147.277C618.323 146.318 619.559 145.838 620.994 145.838C621.764 145.838 622.457 145.989 623.073 146.29C623.696 146.584 624.154 146.972 624.448 147.455H625.257L624.385 148.243L624.742 146.195H627.892L626.097 156.422C625.782 158.222 625.057 159.58 623.923 160.497C622.789 161.421 621.333 161.883 619.555 161.883ZM620.689 154.375C621.445 154.375 622.107 154.112 622.674 153.587C623.248 153.055 623.612 152.362 623.766 151.508C623.927 150.654 623.801 149.944 623.388 149.377C622.975 148.803 622.376 148.516 621.592 148.516C620.836 148.516 620.171 148.785 619.597 149.324C619.03 149.863 618.67 150.546 618.516 151.372V151.382C618.383 152.271 618.519 152.992 618.925 153.545C619.331 154.098 619.919 154.375 620.689 154.375Z" fill="#2FCEFF"/>
</g>
</g>
<defs>
<filter id="filter0_d_212_81" x="-28.52" y="-69.7158" width="603.294" height="462.74" filterUnits="userSpaceOnUse" color-interpolation-filters="sRGB">
<feFlood flood-opacity="0" result="BackgroundImageFix"/>
<feColorMatrix in="SourceAlpha" type="matrix" values="0 0 0 0 0 0 0 0 0 0 0 0 0 0 0 0 0 0 127 0" result="hardAlpha"/>
<feOffset/>
<feGaussianBlur stdDeviation="80.5"/>
<feComposite in2="hardAlpha" operator="out"/>
<feColorMatrix type="matrix" values="0 0 0 0 0.184314 0 0 0 0 0.807843 0 0 0 0 1 0 0 0 1 0"/>
<feBlend mode="normal" in2="BackgroundImageFix" result="effect1_dropShadow_212_81"/>
<feBlend mode="normal" in="SourceGraphic" in2="effect1_dropShadow_212_81" result="shape"/>
</filter>
<clipPath id="clip0_212_81">
<rect width="861" height="273" fill="white"/>
</clipPath>
</defs>
</svg>
