<svg width="610" height="161" viewBox="0 0 610 161" fill="none" xmlns="http://www.w3.org/2000/svg">
<g clip-path="url(#clip0_205_116)">
<rect width="610" height="161" fill="#161616"/>
<g style="mix-blend-mode:lighten">
<path d="M388.202 -101.75C420.76 -101.75 447.153 -75.3558 447.153 -42.7979V55.8662C447.153 115.167 495.228 163.24 554.53 163.24C559.099 163.24 563.6 162.951 568.019 162.397C542.932 182.04 511.336 193.75 477.004 193.75C395.402 193.75 329.25 127.6 329.25 46V-42.7979C329.25 -75.356 355.644 -101.75 388.202 -101.75ZM557.746 -101.75C594.751 -101.75 624.75 -71.7511 624.75 -34.7461V48.5576C624.75 85.5626 594.751 115.562 557.746 115.562C520.741 115.561 490.743 85.5625 490.743 48.5576V-34.7461C490.743 -71.751 520.741 -101.75 557.746 -101.75Z" fill="#5865F2" fill-opacity="0.02"/>
<path d="M388.202 -101.75C420.76 -101.75 447.153 -75.3558 447.153 -42.7979V55.8662C447.153 115.167 495.228 163.24 554.53 163.24C559.099 163.24 563.6 162.951 568.019 162.397C542.932 182.04 511.336 193.75 477.004 193.75C395.402 193.75 329.25 127.6 329.25 46V-42.7979C329.25 -75.356 355.644 -101.75 388.202 -101.75ZM557.746 -101.75C594.751 -101.75 624.75 -71.7511 624.75 -34.7461V48.5576C624.75 85.5626 594.751 115.562 557.746 115.562C520.741 115.561 490.743 85.5625 490.743 48.5576V-34.7461C490.743 -71.751 520.741 -101.75 557.746 -101.75Z" stroke="url(#paint0_linear_205_116)" stroke-width="0.5"/>
</g>
<g filter="url(#filter0_f_205_116)">
<rect x="470" y="70" width="146" height="146" rx="73" fill="#5865F2" fill-opacity="0.29"/>
</g>
<path d="M40.224 52.195C39.7257 52.195 39.3075 52.1235 38.9695 51.9805C38.6315 51.8375 38.3542 51.6555 38.1375 51.4345C37.9252 51.2092 37.767 50.9882 37.663 50.7715C37.5633 50.5505 37.5135 50.44 37.5135 50.44L37.988 50.2125C37.988 50.2125 38.0357 50.3122 38.131 50.5115C38.2307 50.7065 38.3693 50.8993 38.547 51.09C38.729 51.2763 38.9565 51.4258 39.2295 51.5385C39.5068 51.6512 39.8427 51.7075 40.237 51.7075C40.8307 51.7075 41.2987 51.5732 41.641 51.3045C41.9877 51.0315 42.161 50.6848 42.161 50.2645C42.161 49.8572 42.0137 49.5452 41.719 49.3285C41.4243 49.1118 40.9022 48.9082 40.1525 48.7175C39.3768 48.5182 38.7962 48.282 38.4105 48.009C38.0292 47.7317 37.8385 47.3395 37.8385 46.8325C37.8385 46.3212 38.0443 45.9052 38.456 45.5845C38.872 45.2595 39.4245 45.097 40.1135 45.097C40.4948 45.097 40.8263 45.1447 41.108 45.24C41.3897 45.331 41.6323 45.461 41.836 45.63C42.0397 45.7947 42.1978 45.9658 42.3105 46.1435C42.4232 46.3168 42.4795 46.4035 42.4795 46.4035L42.0375 46.6635C42.0375 46.6635 41.9877 46.5877 41.888 46.436C41.7883 46.2843 41.6562 46.1413 41.4915 46.007C41.3268 45.8727 41.1318 45.7687 40.9065 45.695C40.6855 45.6213 40.419 45.5845 40.107 45.5845C39.561 45.5845 39.1385 45.6993 38.8395 45.929C38.5405 46.1587 38.391 46.4555 38.391 46.8195C38.391 47.1618 38.5362 47.4305 38.8265 47.6255C39.1168 47.8205 39.6195 48.0133 40.3345 48.204C41.2098 48.4337 41.8252 48.7002 42.1805 49.0035C42.5402 49.3025 42.72 49.7098 42.72 50.2255C42.72 50.8148 42.4925 51.2915 42.0375 51.6555C41.5868 52.0152 40.9823 52.195 40.224 52.195ZM44.3629 54.834V45.2985H44.9154V47.242L44.7789 47.0405H44.9414C45.1147 46.4815 45.4484 46.0178 45.9424 45.6495C46.4407 45.2812 47.0322 45.097 47.7169 45.097C48.6312 45.097 49.3744 45.4177 49.9464 46.059C50.5184 46.7003 50.8044 47.5627 50.8044 48.646C50.8044 49.738 50.5097 50.6025 49.9204 51.2395C49.331 51.8765 48.5792 52.195 47.6649 52.195C46.9975 52.195 46.4212 52.0238 45.9359 51.6815C45.4549 51.3348 45.1299 50.8928 44.9609 50.3555H44.9349V54.834H44.3629ZM47.6129 51.6945C48.3669 51.6945 48.9909 51.428 49.4849 50.895C49.9789 50.3577 50.2259 49.608 50.2259 48.646C50.2259 47.7057 49.9854 46.9625 49.5044 46.4165C49.0234 45.8705 48.3972 45.5975 47.6259 45.5975C46.8415 45.5975 46.1915 45.8748 45.6759 46.4295C45.1645 46.9842 44.9089 47.7447 44.9089 48.711C44.9089 49.6167 45.1645 50.3403 45.6759 50.882C46.1915 51.4237 46.8372 51.6945 47.6129 51.6945ZM54.4828 52.195C53.7634 52.195 53.1806 51.9957 52.7343 51.597C52.2879 51.194 52.0648 50.6502 52.0648 49.9655C52.0648 49.2332 52.3118 48.6655 52.8058 48.2625C53.3041 47.8552 53.9476 47.6515 54.7363 47.6515C55.2346 47.6515 55.6874 47.7252 56.0948 47.8725C56.5064 48.0155 56.8336 48.1997 57.0763 48.425V47.593C57.0763 46.9343 56.8791 46.4382 56.4848 46.1045C56.0948 45.7665 55.6008 45.5975 55.0028 45.5975C54.6214 45.5975 54.2986 45.6517 54.0343 45.76C53.7743 45.8683 53.5598 45.9897 53.3908 46.124C53.2218 46.254 53.0766 46.3753 52.9553 46.488C52.8339 46.5963 52.7733 46.6505 52.7733 46.6505L52.3963 46.306C52.3963 46.306 52.4613 46.2432 52.5913 46.1175C52.7213 45.9875 52.8946 45.8423 53.1113 45.682C53.3279 45.5217 53.5858 45.3852 53.8848 45.2725C54.1838 45.1555 54.5629 45.097 55.0223 45.097C55.7893 45.097 56.4154 45.3093 56.9008 45.734C57.3904 46.1587 57.6353 46.774 57.6353 47.58V52H57.0893V50.1735L57.2843 50.4465H57.0698C56.9094 50.9232 56.5974 51.3348 56.1338 51.6815C55.6744 52.0238 55.1241 52.195 54.4828 52.195ZM54.5543 51.7075C55.2476 51.7075 55.8391 51.4605 56.3288 50.9665C56.8184 50.4682 57.0698 49.8355 57.0828 49.0685V48.9775C56.8228 48.6958 56.4913 48.4835 56.0883 48.3405C55.6853 48.1932 55.2563 48.1195 54.8013 48.1195C54.1469 48.1195 53.6226 48.2755 53.2283 48.5875C52.8339 48.8995 52.6368 49.3567 52.6368 49.959C52.6368 50.492 52.8144 50.9167 53.1698 51.233C53.5294 51.5493 53.9909 51.7075 54.5543 51.7075ZM62.5594 52.195C61.5628 52.195 60.7611 51.8657 60.1544 51.207C59.5478 50.5483 59.2444 49.6947 59.2444 48.646C59.2444 47.567 59.5564 46.7068 60.1804 46.0655C60.8088 45.4198 61.6126 45.097 62.5919 45.097C63.0079 45.097 63.3719 45.149 63.6839 45.253C64.0003 45.357 64.2819 45.513 64.5289 45.721C64.7803 45.929 65.0208 46.2085 65.2504 46.5595L64.8279 46.8715C64.6286 46.5682 64.4249 46.3255 64.2169 46.1435C64.0089 45.9615 63.7706 45.8272 63.5019 45.7405C63.2376 45.6538 62.9321 45.6105 62.5854 45.6105C61.8011 45.6105 61.1446 45.8792 60.6159 46.4165C60.0873 46.9538 59.8229 47.697 59.8229 48.646C59.8229 49.5733 60.0786 50.3122 60.5899 50.8625C61.1013 51.4085 61.7556 51.6815 62.5529 51.6815C62.9083 51.6815 63.2224 51.6338 63.4954 51.5385C63.7728 51.4432 64.0176 51.3045 64.2299 51.1225C64.4466 50.9405 64.6611 50.6805 64.8734 50.3425L65.3089 50.635C65.0706 51.025 64.8214 51.3283 64.5614 51.545C64.3014 51.7573 64.0068 51.9177 63.6774 52.026C63.3481 52.1387 62.9754 52.195 62.5594 52.195ZM69.7447 52.195C68.7567 52.195 67.9593 51.8722 67.3527 51.2265C66.746 50.5765 66.4427 49.7207 66.4427 48.659C66.4427 47.6407 66.7438 46.7935 67.3462 46.1175C67.9485 45.4372 68.7458 45.097 69.7382 45.097C70.6785 45.097 71.4195 45.3895 71.9612 45.9745C72.5028 46.5595 72.7737 47.3287 72.7737 48.282V48.6915H66.7872V48.2105H72.2017C72.193 47.4175 71.972 46.7848 71.5387 46.3125C71.1053 45.8358 70.5052 45.5975 69.7382 45.5975C68.9235 45.5975 68.2648 45.8792 67.7622 46.4425C67.2638 47.0058 67.0147 47.7447 67.0147 48.659C67.0147 49.6037 67.2768 50.3447 67.8012 50.882C68.3298 51.4193 68.9863 51.688 69.7707 51.688C70.2213 51.688 70.6005 51.6122 70.9082 51.4605C71.2202 51.3088 71.4737 51.142 71.6687 50.96C71.8637 50.778 72.0457 50.5743 72.2147 50.349L72.6437 50.635C72.4617 50.9123 72.2537 51.1572 72.0197 51.3695C71.79 51.5818 71.4932 51.7725 71.1292 51.9415C70.7652 52.1105 70.3037 52.195 69.7447 52.195ZM76.9468 45.812V45.292H80.8793V45.812H76.9468ZM78.3768 52V44.187C78.3768 43.5977 78.5328 43.1383 78.8448 42.809C79.1568 42.4797 79.5771 42.315 80.1058 42.315C80.3094 42.315 80.4936 42.3367 80.6583 42.38C80.8229 42.4233 80.9659 42.4732 81.0873 42.5295C81.2129 42.5858 81.2758 42.614 81.2758 42.614L81.1588 43.0885C81.1588 43.0885 81.0981 43.0647 80.9768 43.017C80.8598 42.965 80.7319 42.9217 80.5933 42.887C80.4589 42.8523 80.3073 42.835 80.1383 42.835C79.7656 42.835 79.4731 42.9498 79.2608 43.1795C79.0484 43.4048 78.9423 43.745 78.9423 44.2V45.448V45.578V52H78.3768ZM85.0703 52.195C84.0477 52.195 83.2243 51.8657 82.6003 51.207C81.9763 50.544 81.6643 49.6947 81.6643 48.659C81.6643 47.6017 81.985 46.7437 82.6263 46.085C83.2677 45.4263 84.0823 45.097 85.0703 45.097C86.0627 45.097 86.8773 45.4328 87.5143 46.1045C88.1513 46.7762 88.4698 47.6277 88.4698 48.659C88.4698 49.673 88.1578 50.5158 87.5338 51.1875C86.9142 51.8592 86.093 52.195 85.0703 52.195ZM85.0703 51.6815C85.8893 51.6815 86.5632 51.4042 87.0918 50.8495C87.6248 50.2905 87.8913 49.5603 87.8913 48.659C87.8913 47.7533 87.6227 47.0188 87.0853 46.4555C86.548 45.8922 85.8763 45.6105 85.0703 45.6105C84.26 45.6105 83.5862 45.8878 83.0488 46.4425C82.5158 46.9928 82.2493 47.7317 82.2493 48.659C82.2493 49.569 82.5137 50.3013 83.0423 50.856C83.571 51.4063 84.247 51.6815 85.0703 51.6815ZM90.1803 52V45.292H90.7198V46.722L90.6288 46.644H90.7458C90.8844 46.1457 91.1314 45.7643 91.4868 45.5C91.8421 45.2313 92.2473 45.097 92.7023 45.097C92.8539 45.097 92.9969 45.11 93.1313 45.136C93.2699 45.162 93.3891 45.1967 93.4888 45.24C93.5884 45.2833 93.6383 45.305 93.6383 45.305L93.5408 45.8315C93.5408 45.8315 93.4888 45.8142 93.3848 45.7795C93.2851 45.7405 93.1724 45.708 93.0468 45.682C92.9254 45.6517 92.7954 45.6365 92.6568 45.6365C92.1368 45.6365 91.6883 45.8402 91.3113 46.2475C90.9386 46.6548 90.7523 47.2702 90.7523 48.0935V52H90.1803ZM101.128 52.195C100.131 52.195 99.3294 51.8657 98.7228 51.207C98.1161 50.5483 97.8128 49.6947 97.8128 48.646C97.8128 47.567 98.1248 46.7068 98.7488 46.0655C99.3771 45.4198 100.181 45.097 101.16 45.097C101.576 45.097 101.94 45.149 102.252 45.253C102.569 45.357 102.85 45.513 103.097 45.721C103.349 45.929 103.589 46.2085 103.819 46.5595L103.396 46.8715C103.197 46.5682 102.993 46.3255 102.785 46.1435C102.577 45.9615 102.339 45.8272 102.07 45.7405C101.806 45.6538 101.5 45.6105 101.154 45.6105C100.369 45.6105 99.7129 45.8792 99.1843 46.4165C98.6556 46.9538 98.3913 47.697 98.3913 48.646C98.3913 49.5733 98.6469 50.3122 99.1583 50.8625C99.6696 51.4085 100.324 51.6815 101.121 51.6815C101.477 51.6815 101.791 51.6338 102.064 51.5385C102.341 51.4432 102.586 51.3045 102.798 51.1225C103.015 50.9405 103.229 50.6805 103.442 50.3425L103.877 50.635C103.639 51.025 103.39 51.3283 103.13 51.545C102.87 51.7573 102.575 51.9177 102.246 52.026C101.916 52.1387 101.544 52.195 101.128 52.195ZM105.44 52V45.292H105.98V46.722L105.889 46.644H106.006C106.144 46.1457 106.391 45.7643 106.747 45.5C107.102 45.2313 107.507 45.097 107.962 45.097C108.114 45.097 108.257 45.11 108.391 45.136C108.53 45.162 108.649 45.1967 108.749 45.24C108.848 45.2833 108.898 45.305 108.898 45.305L108.801 45.8315C108.801 45.8315 108.749 45.8142 108.645 45.7795C108.545 45.7405 108.432 45.708 108.307 45.682C108.185 45.6517 108.055 45.6365 107.917 45.6365C107.397 45.6365 106.948 45.8402 106.571 46.2475C106.198 46.6548 106.012 47.2702 106.012 48.0935V52H105.44ZM112.883 52.195C111.895 52.195 111.098 51.8722 110.491 51.2265C109.885 50.5765 109.581 49.7207 109.581 48.659C109.581 47.6407 109.883 46.7935 110.485 46.1175C111.087 45.4372 111.885 45.097 112.877 45.097C113.817 45.097 114.558 45.3895 115.1 45.9745C115.642 46.5595 115.912 47.3287 115.912 48.282V48.6915H109.926V48.2105H115.34C115.332 47.4175 115.111 46.7848 114.677 46.3125C114.244 45.8358 113.644 45.5975 112.877 45.5975C112.062 45.5975 111.404 45.8792 110.901 46.4425C110.403 47.0058 110.153 47.7447 110.153 48.659C110.153 49.6037 110.416 50.3447 110.94 50.882C111.469 51.4193 112.125 51.688 112.909 51.688C113.36 51.688 113.739 51.6122 114.047 51.4605C114.359 51.3088 114.612 51.142 114.807 50.96C115.002 50.778 115.184 50.5743 115.353 50.349L115.782 50.635C115.6 50.9123 115.392 51.1572 115.158 51.3695C114.929 51.5818 114.632 51.7725 114.268 51.9415C113.904 52.1105 113.442 52.195 112.883 52.195ZM119.61 52.195C118.89 52.195 118.308 51.9957 117.861 51.597C117.415 51.194 117.192 50.6502 117.192 49.9655C117.192 49.2332 117.439 48.6655 117.933 48.2625C118.431 47.8552 119.075 47.6515 119.863 47.6515C120.362 47.6515 120.814 47.7252 121.222 47.8725C121.633 48.0155 121.961 48.1997 122.203 48.425V47.593C122.203 46.9343 122.006 46.4382 121.612 46.1045C121.222 45.7665 120.728 45.5975 120.13 45.5975C119.748 45.5975 119.426 45.6517 119.161 45.76C118.901 45.8683 118.687 45.9897 118.518 46.124C118.349 46.254 118.204 46.3753 118.082 46.488C117.961 46.5963 117.9 46.6505 117.9 46.6505L117.523 46.306C117.523 46.306 117.588 46.2432 117.718 46.1175C117.848 45.9875 118.022 45.8423 118.238 45.682C118.455 45.5217 118.713 45.3852 119.012 45.2725C119.311 45.1555 119.69 45.097 120.149 45.097C120.916 45.097 121.542 45.3093 122.028 45.734C122.517 46.1587 122.762 46.774 122.762 47.58V52H122.216V50.1735L122.411 50.4465H122.197C122.036 50.9232 121.724 51.3348 121.261 51.6815C120.801 52.0238 120.251 52.195 119.61 52.195ZM119.681 51.7075C120.375 51.7075 120.966 51.4605 121.456 50.9665C121.945 50.4682 122.197 49.8355 122.21 49.0685V48.9775C121.95 48.6958 121.618 48.4835 121.215 48.3405C120.812 48.1932 120.383 48.1195 119.928 48.1195C119.274 48.1195 118.75 48.2755 118.355 48.5875C117.961 48.8995 117.764 49.3567 117.764 49.959C117.764 50.492 117.941 50.9167 118.297 51.233C118.656 51.5493 119.118 51.7075 119.681 51.7075ZM127.05 52.195C126.552 52.195 126.159 52.0585 125.873 51.7855C125.592 51.5082 125.451 51.1117 125.451 50.596V43.381H126.023V50.4985C126.023 50.8972 126.112 51.194 126.289 51.389C126.471 51.584 126.747 51.6815 127.115 51.6815C127.254 51.6815 127.39 51.6598 127.524 51.6165C127.663 51.5732 127.793 51.5168 127.914 51.4475C128.04 51.3782 128.103 51.3435 128.103 51.3435L128.246 51.805C128.246 51.805 128.183 51.844 128.057 51.922C127.936 51.9957 127.791 52.0585 127.622 52.1105C127.453 52.1668 127.262 52.195 127.05 52.195ZM124.086 45.812V45.292H128.096V45.812H124.086ZM129.829 52V45.292H130.401V52H129.829ZM130.115 43.6345C129.972 43.6345 129.847 43.5825 129.738 43.4785C129.63 43.3702 129.576 43.2423 129.576 43.095C129.576 42.9433 129.628 42.8177 129.732 42.718C129.84 42.614 129.968 42.562 130.115 42.562C130.271 42.562 130.399 42.614 130.499 42.718C130.603 42.8177 130.655 42.9433 130.655 43.095C130.655 43.2423 130.603 43.3702 130.499 43.4785C130.399 43.5825 130.271 43.6345 130.115 43.6345ZM134.539 52L131.828 45.292H132.446L134.597 50.7325L134.818 51.3565H134.844L135.072 50.7325L137.249 45.292H137.854L135.111 52H134.539ZM141.867 52.195C140.879 52.195 140.081 51.8722 139.475 51.2265C138.868 50.5765 138.565 49.7207 138.565 48.659C138.565 47.6407 138.866 46.7935 139.468 46.1175C140.071 45.4372 140.868 45.097 141.86 45.097C142.801 45.097 143.542 45.3895 144.083 45.9745C144.625 46.5595 144.896 47.3287 144.896 48.282V48.6915H138.909V48.2105H144.324C144.315 47.4175 144.094 46.7848 143.661 46.3125C143.227 45.8358 142.627 45.5975 141.86 45.5975C141.046 45.5975 140.387 45.8792 139.884 46.4425C139.386 47.0058 139.137 47.7447 139.137 48.659C139.137 49.6037 139.399 50.3447 139.923 50.882C140.452 51.4193 141.108 51.688 141.893 51.688C142.343 51.688 142.723 51.6122 143.03 51.4605C143.342 51.3088 143.596 51.142 143.791 50.96C143.986 50.778 144.168 50.5743 144.337 50.349L144.766 50.635C144.584 50.9123 144.376 51.1572 144.142 51.3695C143.912 51.5818 143.615 51.7725 143.251 51.9415C142.887 52.1105 142.426 52.195 141.867 52.195ZM152.527 52.195C151.595 52.195 150.839 51.8743 150.258 51.233C149.682 50.5917 149.394 49.738 149.394 48.672C149.394 47.567 149.689 46.696 150.278 46.059C150.872 45.422 151.619 45.1035 152.52 45.1035C153.209 45.1035 153.792 45.2855 154.269 45.6495C154.746 46.0092 155.071 46.4577 155.244 46.995H155.27V42.51H155.842V52H155.289V50.141L155.452 50.349H155.263C155.077 50.869 154.741 51.3067 154.256 51.662C153.775 52.0173 153.199 52.195 152.527 52.195ZM152.572 51.6945C153.322 51.6945 153.963 51.4258 154.496 50.8885C155.029 50.3512 155.296 49.6123 155.296 48.672C155.296 47.7447 155.045 47.0015 154.542 46.4425C154.044 45.8835 153.396 45.604 152.598 45.604C151.84 45.604 151.214 45.877 150.72 46.423C150.226 46.9647 149.979 47.7143 149.979 48.672C149.979 49.6253 150.226 50.3685 150.72 50.9015C151.218 51.4302 151.836 51.6945 152.572 51.6945ZM160.846 52.195C159.858 52.195 159.061 51.8722 158.454 51.2265C157.848 50.5765 157.544 49.7207 157.544 48.659C157.544 47.6407 157.845 46.7935 158.448 46.1175C159.05 45.4372 159.847 45.097 160.84 45.097C161.78 45.097 162.521 45.3895 163.063 45.9745C163.604 46.5595 163.875 47.3287 163.875 48.282V48.6915H157.889V48.2105H163.303C163.295 47.4175 163.074 46.7848 162.64 46.3125C162.207 45.8358 161.607 45.5975 160.84 45.5975C160.025 45.5975 159.366 45.8792 158.864 46.4425C158.365 47.0058 158.116 47.7447 158.116 48.659C158.116 49.6037 158.378 50.3447 158.903 50.882C159.431 51.4193 160.088 51.688 160.872 51.688C161.323 51.688 161.702 51.6122 162.01 51.4605C162.322 51.3088 162.575 51.142 162.77 50.96C162.965 50.778 163.147 50.5743 163.316 50.349L163.745 50.635C163.563 50.9123 163.355 51.1572 163.121 51.3695C162.892 51.5818 162.595 51.7725 162.231 51.9415C161.867 52.1105 161.405 52.195 160.846 52.195ZM167.47 52L164.76 45.292H165.377L167.529 50.7325L167.75 51.3565H167.776L168.003 50.7325L170.181 45.292H170.785L168.042 52H167.47ZM174.798 52.195C173.81 52.195 173.013 51.8722 172.406 51.2265C171.8 50.5765 171.496 49.7207 171.496 48.659C171.496 47.6407 171.798 46.7935 172.4 46.1175C173.002 45.4372 173.8 45.097 174.792 45.097C175.732 45.097 176.473 45.3895 177.015 45.9745C177.557 46.5595 177.827 47.3287 177.827 48.282V48.6915H171.841V48.2105H177.255C177.247 47.4175 177.026 46.7848 176.592 46.3125C176.159 45.8358 175.559 45.5975 174.792 45.5975C173.977 45.5975 173.319 45.8792 172.816 46.4425C172.318 47.0058 172.068 47.7447 172.068 48.659C172.068 49.6037 172.331 50.3447 172.855 50.882C173.384 51.4193 174.04 51.688 174.824 51.688C175.275 51.688 175.654 51.6122 175.962 51.4605C176.274 51.3088 176.527 51.142 176.722 50.96C176.917 50.778 177.099 50.5743 177.268 50.349L177.697 50.635C177.515 50.9123 177.307 51.1572 177.073 51.3695C176.844 51.5818 176.547 51.7725 176.183 51.9415C175.819 52.1105 175.357 52.195 174.798 52.195ZM179.555 52V42.51H180.127V52H179.555ZM185.236 52.195C184.214 52.195 183.39 51.8657 182.766 51.207C182.142 50.544 181.83 49.6947 181.83 48.659C181.83 47.6017 182.151 46.7437 182.792 46.085C183.434 45.4263 184.248 45.097 185.236 45.097C186.229 45.097 187.043 45.4328 187.68 46.1045C188.317 46.7762 188.636 47.6277 188.636 48.659C188.636 49.673 188.324 50.5158 187.7 51.1875C187.08 51.8592 186.259 52.195 185.236 52.195ZM185.236 51.6815C186.055 51.6815 186.729 51.4042 187.258 50.8495C187.791 50.2905 188.057 49.5603 188.057 48.659C188.057 47.7533 187.789 47.0188 187.251 46.4555C186.714 45.8922 186.042 45.6105 185.236 45.6105C184.426 45.6105 183.752 45.8878 183.215 46.4425C182.682 46.9928 182.415 47.7317 182.415 48.659C182.415 49.569 182.68 50.3013 183.208 50.856C183.737 51.4063 184.413 51.6815 185.236 51.6815ZM190.346 54.834V45.2985H190.899V47.242L190.762 47.0405H190.925C191.098 46.4815 191.432 46.0178 191.926 45.6495C192.424 45.2812 193.016 45.097 193.7 45.097C194.615 45.097 195.358 45.4177 195.93 46.059C196.502 46.7003 196.788 47.5627 196.788 48.646C196.788 49.738 196.493 50.6025 195.904 51.2395C195.314 51.8765 194.563 52.195 193.648 52.195C192.981 52.195 192.405 52.0238 191.919 51.6815C191.438 51.3348 191.113 50.8928 190.944 50.3555H190.918V54.834H190.346ZM193.596 51.6945C194.35 51.6945 194.974 51.428 195.468 50.895C195.962 50.3577 196.209 49.608 196.209 48.646C196.209 47.7057 195.969 46.9625 195.488 46.4165C195.007 45.8705 194.381 45.5975 193.609 45.5975C192.825 45.5975 192.175 45.8748 191.659 46.4295C191.148 46.9842 190.892 47.7447 190.892 48.711C190.892 49.6167 191.148 50.3403 191.659 50.882C192.175 51.4237 192.821 51.6945 193.596 51.6945ZM201.37 52.195C200.382 52.195 199.584 51.8722 198.978 51.2265C198.371 50.5765 198.068 49.7207 198.068 48.659C198.068 47.6407 198.369 46.7935 198.971 46.1175C199.573 45.4372 200.371 45.097 201.363 45.097C202.303 45.097 203.044 45.3895 203.586 45.9745C204.128 46.5595 204.399 47.3287 204.399 48.282V48.6915H198.412V48.2105H203.827C203.818 47.4175 203.597 46.7848 203.164 46.3125C202.73 45.8358 202.13 45.5975 201.363 45.5975C200.548 45.5975 199.89 45.8792 199.387 46.4425C198.889 47.0058 198.64 47.7447 198.64 48.659C198.64 49.6037 198.902 50.3447 199.426 50.882C199.955 51.4193 200.611 51.688 201.396 51.688C201.846 51.688 202.225 51.6122 202.533 51.4605C202.845 51.3088 203.099 51.142 203.294 50.96C203.489 50.778 203.671 50.5743 203.84 50.349L204.269 50.635C204.087 50.9123 203.879 51.1572 203.645 51.3695C203.415 51.5818 203.118 51.7725 202.754 51.9415C202.39 52.1105 201.929 52.195 201.37 52.195ZM206.127 52V45.292H206.666V46.722L206.575 46.644H206.692C206.831 46.1457 207.078 45.7643 207.433 45.5C207.788 45.2313 208.194 45.097 208.649 45.097C208.8 45.097 208.943 45.11 209.078 45.136C209.216 45.162 209.335 45.1967 209.435 45.24C209.535 45.2833 209.585 45.305 209.585 45.305L209.487 45.8315C209.487 45.8315 209.435 45.8142 209.331 45.7795C209.231 45.7405 209.119 45.708 208.993 45.682C208.872 45.6517 208.742 45.6365 208.603 45.6365C208.083 45.6365 207.635 45.8402 207.258 46.2475C206.885 46.6548 206.699 47.2702 206.699 48.0935V52H206.127ZM212.995 52.195C212.496 52.195 212.078 52.1235 211.74 51.9805C211.402 51.8375 211.125 51.6555 210.908 51.4345C210.696 51.2092 210.538 50.9882 210.434 50.7715C210.334 50.5505 210.284 50.44 210.284 50.44L210.759 50.2125C210.759 50.2125 210.806 50.3122 210.902 50.5115C211.001 50.7065 211.14 50.8993 211.318 51.09C211.5 51.2763 211.727 51.4258 212 51.5385C212.277 51.6512 212.613 51.7075 213.008 51.7075C213.601 51.7075 214.069 51.5732 214.412 51.3045C214.758 51.0315 214.932 50.6848 214.932 50.2645C214.932 49.8572 214.784 49.5452 214.49 49.3285C214.195 49.1118 213.673 48.9082 212.923 48.7175C212.147 48.5182 211.567 48.282 211.181 48.009C210.8 47.7317 210.609 47.3395 210.609 46.8325C210.609 46.3212 210.815 45.9052 211.227 45.5845C211.643 45.2595 212.195 45.097 212.884 45.097C213.265 45.097 213.597 45.1447 213.879 45.24C214.16 45.331 214.403 45.461 214.607 45.63C214.81 45.7947 214.968 45.9658 215.081 46.1435C215.194 46.3168 215.25 46.4035 215.25 46.4035L214.808 46.6635C214.808 46.6635 214.758 46.5877 214.659 46.436C214.559 46.2843 214.427 46.1413 214.262 46.007C214.097 45.8727 213.902 45.7687 213.677 45.695C213.456 45.6213 213.19 45.5845 212.878 45.5845C212.332 45.5845 211.909 45.6993 211.61 45.929C211.311 46.1587 211.162 46.4555 211.162 46.8195C211.162 47.1618 211.307 47.4305 211.597 47.6255C211.887 47.8205 212.39 48.0133 213.105 48.204C213.98 48.4337 214.596 48.7002 214.951 49.0035C215.311 49.3025 215.491 49.7098 215.491 50.2255C215.491 50.8148 215.263 51.2915 214.808 51.6555C214.357 52.0152 213.753 52.195 212.995 52.195Z" fill="white"/>
<path d="M538.683 134.127C537.887 133.744 536.916 133.552 535.766 133.552H531V142.731H535.424C536.67 142.731 537.715 142.525 538.558 142.114C539.328 141.771 539.983 141.189 540.443 140.442C540.855 139.736 541.069 138.917 541.06 138.085C541.072 137.255 540.868 136.44 540.465 135.731C540.037 135.015 539.414 134.453 538.683 134.124V134.127ZM537.162 139.774C536.747 140.188 536.153 140.397 535.377 140.397H534.057V135.888H535.549C536.297 135.888 536.859 136.091 537.233 136.485C537.613 136.909 537.814 137.485 537.788 138.078C537.817 138.715 537.59 139.332 537.165 139.777L537.162 139.774ZM553.381 138.76C553.771 139.133 553.966 139.681 553.969 140.404C553.981 141.175 553.611 141.898 552.994 142.299C552.352 142.762 551.432 142.995 550.237 142.991C549.551 142.991 548.867 142.899 548.203 142.717C547.573 142.549 546.973 142.278 546.417 141.919V139.743C546.902 140.12 547.445 140.397 548.024 140.562C548.656 140.767 549.314 140.877 549.976 140.88C550.202 140.894 550.432 140.85 550.643 140.757C550.793 140.675 550.867 140.569 550.867 140.462C550.87 140.339 550.825 140.223 550.745 140.134C550.605 140.02 550.442 139.942 550.269 139.911L548.803 139.558C547.963 139.349 547.366 139.058 547.014 138.688C546.656 138.3 546.465 137.769 546.49 137.225C546.484 136.738 546.65 136.265 546.954 135.902C547.314 135.491 547.771 135.193 548.273 135.032C548.921 134.813 549.599 134.71 550.279 134.723C550.915 134.717 551.547 134.795 552.161 134.96C552.659 135.087 553.135 135.289 553.579 135.563V137.622C553.164 137.365 552.716 137.166 552.253 137.04C551.749 136.896 551.228 136.82 550.707 136.82C549.94 136.82 549.557 136.961 549.557 137.238C549.557 137.365 549.624 137.482 549.733 137.533C549.944 137.629 550.161 137.697 550.384 137.735L551.608 137.972C552.4 138.122 552.994 138.383 553.384 138.76H553.381ZM561.495 140.274C561.853 140.164 562.195 140.007 562.514 139.808V142.131C561.569 142.72 560.489 143.022 559.396 142.998C558.521 143.022 557.649 142.834 556.853 142.443C556.198 142.121 555.649 141.6 555.269 140.946C554.914 140.301 554.732 139.568 554.745 138.821C554.735 138.074 554.927 137.341 555.294 136.711C555.687 136.067 556.25 135.559 556.908 135.251C557.709 134.878 558.575 134.696 559.451 134.72C560.674 134.72 561.687 134.994 562.495 135.546V137.948C562.188 137.725 561.853 137.554 561.498 137.437C561.102 137.303 560.69 137.238 560.275 137.242C559.518 137.242 558.923 137.389 558.495 137.687C557.895 138.047 557.678 138.862 558.013 139.51C558.122 139.719 558.285 139.894 558.476 140.017C558.892 140.319 559.495 140.469 560.284 140.469C560.693 140.469 561.099 140.408 561.489 140.281L561.495 140.274ZM570.545 135.248C568.938 134.549 567.14 134.549 565.533 135.248C564.878 135.556 564.322 136.06 563.926 136.697C563.552 137.327 563.357 138.057 563.37 138.804C563.361 139.558 563.555 140.301 563.926 140.942C564.319 141.597 564.881 142.117 565.542 142.439C567.14 143.169 568.945 143.169 570.542 142.436C571.2 142.114 571.759 141.593 572.149 140.939C572.516 140.295 572.708 139.555 572.698 138.801C572.711 138.054 572.519 137.321 572.149 136.69C571.756 136.056 571.2 135.553 570.548 135.248H570.545ZM569.254 140.113C568.926 140.445 568.485 140.62 568.031 140.589C567.581 140.613 567.14 140.442 566.807 140.113C566.504 139.774 566.341 139.318 566.364 138.845C566.341 138.379 566.504 137.927 566.807 137.595C567.14 137.269 567.581 137.105 568.031 137.129C568.481 137.101 568.922 137.269 569.254 137.595C569.561 137.927 569.724 138.379 569.702 138.845C569.721 139.315 569.561 139.774 569.254 140.113ZM578.931 134.884C579.321 134.874 579.707 134.98 580.043 135.2V138.037C579.678 137.804 579.257 137.691 578.832 137.708C578.18 137.708 577.679 137.92 577.327 138.345C576.979 138.77 576.803 139.428 576.803 140.319V142.731H573.807V135.059H576.739V137.495C576.902 136.604 577.164 135.947 577.528 135.522C577.886 135.1 578.394 134.867 578.925 134.884H578.931ZM587 133.288V136.707C586.511 135.378 585.553 134.713 584.128 134.713C583.477 134.703 582.834 134.888 582.275 135.251C581.732 135.614 581.295 136.132 581.017 136.748C580.713 137.423 580.563 138.163 580.585 138.91C580.573 139.633 580.713 140.346 580.995 141.004C581.25 141.597 581.659 142.104 582.17 142.46C582.7 142.82 583.317 143.005 583.943 142.991C584.611 143.012 585.269 142.837 585.847 142.481C586.371 142.135 586.777 141.617 587.003 141.004V142.727H590V133.288H587.003H587ZM586.56 140.068C586.227 140.397 585.786 140.565 585.336 140.538C584.895 140.562 584.464 140.391 584.138 140.068C583.831 139.75 583.665 139.304 583.681 138.845C583.665 138.39 583.828 137.951 584.135 137.632C584.841 137.016 585.853 137.016 586.56 137.632C586.866 137.941 587.032 138.376 587.019 138.828C587.035 139.291 586.869 139.743 586.56 140.068ZM545.078 134.439C545.078 135.234 544.411 135.878 543.586 135.878C542.762 135.878 542.095 135.234 542.095 134.439C542.095 133.644 542.762 133 543.586 133C544.411 133 545.078 133.644 545.078 134.439ZM545.078 136.868V142.772H542.091V136.868C543.047 137.3 544.123 137.3 545.078 136.868Z" fill="#5865F2" fill-opacity="0.54"/>
<g filter="url(#filter1_f_205_116)">
<rect x="5" y="-22" width="146" height="146" rx="73" fill="#5865F2" fill-opacity="0.17"/>
</g>
<g filter="url(#filter2_d_205_116)">
<path d="M44.41 82.48C42.53 82.48 41.12 81.9 40.18 80.74C39.24 79.58 38.77 78 38.77 76V66.7H42.7V75.52C42.7 76.56 42.95 77.38 43.45 77.98C43.97 78.56 44.63 78.85 45.43 78.85C46.21 78.85 46.87 78.66 47.41 78.28C47.95 77.88 48.36 77.35 48.64 76.69C48.94 76.03 49.09 75.3 49.09 74.5V66.7H53.02V82H49.33V80.08H49.09C48.79 80.56 48.4 80.98 47.92 81.34C47.44 81.7 46.9 81.98 46.3 82.18C45.72 82.38 45.09 82.48 44.41 82.48ZM56.7904 82V66.7H60.4804V68.62H60.7204C61.1804 67.88 61.8304 67.3 62.6704 66.88C63.5104 66.44 64.4204 66.22 65.4004 66.22C67.2804 66.22 68.6904 66.79 69.6304 67.93C70.5704 69.07 71.0404 70.59 71.0404 72.49V82H67.1104V72.97C67.1104 71.97 66.8504 71.21 66.3304 70.69C65.8304 70.15 65.1404 69.88 64.2604 69.88C63.5404 69.88 62.9104 70.08 62.3704 70.48C61.8504 70.86 61.4404 71.38 61.1404 72.04C60.8604 72.68 60.7204 73.4 60.7204 74.2V82H56.7904ZM83.2108 82.48C82.4708 82.48 81.8008 82.37 81.2008 82.15C80.6008 81.93 80.0808 81.65 79.6408 81.31C79.2208 80.95 78.8808 80.57 78.6208 80.17H78.3808V82H74.6908V60.52H78.6208V66.4L78.3808 68.56H78.6208C78.8808 68.16 79.2208 67.78 79.6408 67.42C80.0808 67.06 80.6008 66.77 81.2008 66.55C81.8008 66.33 82.4708 66.22 83.2108 66.22C84.6108 66.22 85.8608 66.57 86.9608 67.27C88.0808 67.95 88.9608 68.9 89.6008 70.12C90.2608 71.34 90.5908 72.75 90.5908 74.35C90.5908 75.95 90.2608 77.36 89.6008 78.58C88.9608 79.8 88.0808 80.76 86.9608 81.46C85.8608 82.14 84.6108 82.48 83.2108 82.48ZM82.5208 78.85C83.2608 78.85 83.9408 78.67 84.5608 78.31C85.2008 77.93 85.7108 77.4 86.0908 76.72C86.4908 76.04 86.6908 75.25 86.6908 74.35C86.6908 73.43 86.4908 72.64 86.0908 71.98C85.7108 71.32 85.2008 70.81 84.5608 70.45C83.9408 70.07 83.2608 69.88 82.5208 69.88C81.8008 69.88 81.1208 70.07 80.4808 70.45C79.8608 70.81 79.3508 71.33 78.9508 72.01C78.5708 72.67 78.3808 73.45 78.3808 74.35C78.3808 75.25 78.5708 76.04 78.9508 76.72C79.3508 77.38 79.8608 77.9 80.4808 78.28C81.1208 78.66 81.8008 78.85 82.5208 78.85ZM99.0487 82.48C97.1687 82.48 95.7587 81.9 94.8187 80.74C93.8787 79.58 93.4087 78 93.4087 76V66.7H97.3387V75.52C97.3387 76.56 97.5887 77.38 98.0887 77.98C98.6087 78.56 99.2687 78.85 100.069 78.85C100.849 78.85 101.509 78.66 102.049 78.28C102.589 77.88 102.999 77.35 103.279 76.69C103.579 76.03 103.729 75.3 103.729 74.5V66.7H107.659V82H103.969V80.08H103.729C103.429 80.56 103.039 80.98 102.559 81.34C102.079 81.7 101.539 81.98 100.939 82.18C100.359 82.38 99.7287 82.48 99.0487 82.48ZM111.429 82V66.7H115.119V68.74H115.359C115.619 68.26 115.959 67.84 116.379 67.48C116.819 67.1 117.329 66.8 117.909 66.58C118.489 66.36 119.109 66.25 119.769 66.25C120.169 66.25 120.529 66.28 120.849 66.34C121.169 66.4 121.449 66.48 121.689 66.58V70.51C121.269 70.35 120.849 70.22 120.429 70.12C120.029 70 119.599 69.94 119.139 69.94C118.359 69.94 117.679 70.14 117.099 70.54C116.539 70.92 116.109 71.45 115.809 72.13C115.509 72.79 115.359 73.54 115.359 74.38V82H111.429ZM124.056 82V66.7H127.746V68.62H127.986C128.446 67.88 129.096 67.3 129.936 66.88C130.776 66.44 131.686 66.22 132.666 66.22C134.546 66.22 135.956 66.79 136.896 67.93C137.836 69.07 138.306 70.59 138.306 72.49V82H134.376V72.97C134.376 71.97 134.116 71.21 133.596 70.69C133.096 70.15 132.406 69.88 131.526 69.88C130.806 69.88 130.176 70.08 129.636 70.48C129.116 70.86 128.706 71.38 128.406 72.04C128.126 72.68 127.986 73.4 127.986 74.2V82H124.056ZM155.829 82.48C154.329 82.48 152.989 82.13 151.809 81.43C150.649 80.71 149.739 79.74 149.079 78.52C148.419 77.28 148.089 75.89 148.089 74.35C148.089 72.79 148.419 71.4 149.079 70.18C149.739 68.96 150.649 68 151.809 67.3C152.989 66.58 154.329 66.22 155.829 66.22C157.549 66.22 158.959 66.62 160.059 67.42C161.179 68.2 161.969 69.21 162.429 70.45L160.119 71.41C159.739 70.47 159.169 69.76 158.409 69.28C157.669 68.78 156.769 68.53 155.709 68.53C154.809 68.53 153.969 68.77 153.189 69.25C152.429 69.73 151.809 70.41 151.329 71.29C150.849 72.15 150.609 73.17 150.609 74.35C150.609 75.51 150.849 76.53 151.329 77.41C151.809 78.29 152.429 78.97 153.189 79.45C153.969 79.93 154.809 80.17 155.709 80.17C156.789 80.17 157.719 79.92 158.499 79.42C159.279 78.92 159.859 78.21 160.239 77.29L162.519 78.25C162.019 79.43 161.209 80.43 160.089 81.25C158.969 82.07 157.549 82.48 155.829 82.48ZM171.857 82.48C170.317 82.48 168.957 82.12 167.777 81.4C166.597 80.68 165.667 79.71 164.987 78.49C164.327 77.25 163.997 75.87 163.997 74.35C163.997 72.83 164.327 71.46 164.987 70.24C165.667 69 166.597 68.02 167.777 67.3C168.957 66.58 170.317 66.22 171.857 66.22C173.397 66.22 174.757 66.59 175.937 67.33C177.117 68.05 178.037 69.03 178.697 70.27C179.377 71.49 179.717 72.85 179.717 74.35C179.717 75.87 179.377 77.25 178.697 78.49C178.037 79.71 177.117 80.68 175.937 81.4C174.757 82.12 173.397 82.48 171.857 82.48ZM171.857 80.17C172.777 80.17 173.637 79.94 174.437 79.48C175.257 79.02 175.917 78.36 176.417 77.5C176.917 76.62 177.167 75.57 177.167 74.35C177.167 73.13 176.917 72.09 176.417 71.23C175.917 70.35 175.257 69.68 174.437 69.22C173.637 68.76 172.777 68.53 171.857 68.53C170.937 68.53 170.067 68.76 169.247 69.22C168.427 69.68 167.767 70.35 167.267 71.23C166.767 72.09 166.517 73.13 166.517 74.35C166.517 75.57 166.767 76.62 167.267 77.5C167.767 78.36 168.427 79.02 169.247 79.48C170.067 79.94 170.937 80.17 171.857 80.17ZM182.62 82V66.7H185.05V68.95H185.17C185.45 68.45 185.83 68 186.31 67.6C186.81 67.18 187.37 66.85 187.99 66.61C188.63 66.35 189.28 66.22 189.94 66.22C191.08 66.22 192.06 66.5 192.88 67.06C193.7 67.6 194.29 68.31 194.65 69.19C195.17 68.33 195.87 67.62 196.75 67.06C197.63 66.5 198.68 66.22 199.9 66.22C201.72 66.22 203.06 66.77 203.92 67.87C204.78 68.97 205.21 70.41 205.21 72.19V82H202.69V72.58C202.69 71.1 202.39 70.06 201.79 69.46C201.19 68.84 200.34 68.53 199.24 68.53C198.46 68.53 197.76 68.76 197.14 69.22C196.54 69.66 196.06 70.25 195.7 70.99C195.36 71.71 195.19 72.5 195.19 73.36V82H192.64V72.61C192.64 71.13 192.34 70.08 191.74 69.46C191.14 68.84 190.3 68.53 189.22 68.53C188.44 68.53 187.74 68.76 187.12 69.22C186.52 69.68 186.04 70.28 185.68 71.02C185.34 71.76 185.17 72.56 185.17 73.42V82H182.62ZM208.811 82V66.7H211.241V68.95H211.361C211.641 68.45 212.021 68 212.501 67.6C213.001 67.18 213.561 66.85 214.181 66.61C214.821 66.35 215.471 66.22 216.131 66.22C217.271 66.22 218.251 66.5 219.071 67.06C219.891 67.6 220.481 68.31 220.841 69.19C221.361 68.33 222.061 67.62 222.941 67.06C223.821 66.5 224.871 66.22 226.091 66.22C227.911 66.22 229.251 66.77 230.111 67.87C230.971 68.97 231.401 70.41 231.401 72.19V82H228.881V72.58C228.881 71.1 228.581 70.06 227.981 69.46C227.381 68.84 226.531 68.53 225.431 68.53C224.651 68.53 223.951 68.76 223.331 69.22C222.731 69.66 222.251 70.25 221.891 70.99C221.551 71.71 221.381 72.5 221.381 73.36V82H218.831V72.61C218.831 71.13 218.531 70.08 217.931 69.46C217.331 68.84 216.491 68.53 215.411 68.53C214.631 68.53 213.931 68.76 213.311 69.22C212.711 69.68 212.231 70.28 211.871 71.02C211.531 71.76 211.361 72.56 211.361 73.42V82H208.811ZM240.553 82.48C238.673 82.48 237.253 81.93 236.293 80.83C235.353 79.73 234.883 78.23 234.883 76.33V66.7H237.433V75.94C237.433 77.46 237.783 78.55 238.483 79.21C239.183 79.85 240.053 80.17 241.093 80.17C241.993 80.17 242.773 79.94 243.433 79.48C244.093 79 244.603 78.39 244.963 77.65C245.323 76.91 245.503 76.14 245.503 75.34V66.7H248.053V82H245.623V79.78H245.503C245.243 80.26 244.853 80.71 244.333 81.13C243.833 81.53 243.253 81.85 242.593 82.09C241.953 82.35 241.273 82.48 240.553 82.48ZM251.76 82V66.7H254.19V68.95H254.31C254.71 68.21 255.36 67.57 256.26 67.03C257.18 66.49 258.18 66.22 259.26 66.22C261.14 66.22 262.55 66.77 263.49 67.87C264.45 68.95 264.93 70.39 264.93 72.19V82H262.38V72.58C262.38 71.1 262.02 70.06 261.3 69.46C260.6 68.84 259.69 68.53 258.57 68.53C257.73 68.53 256.99 68.77 256.35 69.25C255.71 69.71 255.21 70.31 254.85 71.05C254.49 71.79 254.31 72.57 254.31 73.39V82H251.76ZM268.518 82V66.7H271.068V82H268.518ZM269.778 63.88C269.278 63.88 268.848 63.7 268.488 63.34C268.128 62.98 267.948 62.55 267.948 62.05C267.948 61.53 268.128 61.1 268.488 60.76C268.848 60.4 269.278 60.22 269.778 60.22C270.298 60.22 270.728 60.4 271.068 60.76C271.428 61.1 271.608 61.53 271.608 62.05C271.608 62.55 271.428 62.98 271.068 63.34C270.728 63.7 270.298 63.88 269.778 63.88ZM273.678 69.01V66.7H276.528V69.01H273.678ZM280.638 82.24C279.358 82.24 278.328 81.86 277.548 81.1C276.768 80.32 276.378 79.28 276.378 77.98V62.38H278.928V77.35C278.928 78.21 279.098 78.85 279.438 79.27C279.798 79.67 280.328 79.87 281.028 79.87C281.348 79.87 281.648 79.83 281.928 79.75C282.208 79.65 282.478 79.52 282.738 79.36V81.85C282.418 81.97 282.088 82.06 281.748 82.12C281.408 82.2 281.038 82.24 280.638 82.24ZM278.778 69.01V66.7H282.678V69.01H278.778ZM289.885 87.7C289.825 87.84 289.755 87.99 289.675 88.15C289.595 88.33 289.545 88.44 289.525 88.48H286.885C287.005 88.22 287.135 87.93 287.275 87.61C287.415 87.31 287.585 86.94 287.785 86.5C287.905 86.24 288.015 86 288.115 85.78C288.215 85.56 288.325 85.31 288.445 85.03C288.585 84.77 288.745 84.44 288.925 84.04L291.025 79.48L291.595 78.07L296.215 66.7H298.975L291.055 84.97C290.975 85.15 290.845 85.43 290.665 85.81C290.505 86.21 290.345 86.59 290.185 86.95C290.045 87.33 289.945 87.58 289.885 87.7ZM290.455 81.37L283.975 66.7H286.735L291.535 78.07H291.775L290.455 81.37Z" fill="#E0E3FF"/>
</g>
<rect x="37" y="108" width="72" height="25" rx="9" fill="#5865F2" fill-opacity="0.3"/>
<rect x="37" y="104" width="72" height="25" rx="9" fill="#5865F2"/>
<path d="M50.864 121V111.688H52.436V114.496L52.34 115.528H52.436C52.596 115.216 52.848 114.968 53.192 114.784C53.544 114.592 53.924 114.496 54.332 114.496C54.844 114.496 55.268 114.596 55.604 114.796C55.948 114.996 56.208 115.28 56.384 115.648C56.56 116.016 56.648 116.452 56.648 116.956V121H55.076V117.208C55.076 116.936 55.028 116.708 54.932 116.524C54.844 116.34 54.712 116.2 54.536 116.104C54.36 116.008 54.148 115.96 53.9 115.96C53.612 115.96 53.356 116.036 53.132 116.188C52.916 116.34 52.744 116.548 52.616 116.812C52.496 117.068 52.436 117.368 52.436 117.712V121H50.864ZM61.1251 121.192C60.4771 121.192 59.9131 121.052 59.4331 120.772C58.9611 120.484 58.5931 120.088 58.3291 119.584C58.0731 119.08 57.9451 118.5 57.9451 117.844C57.9451 117.188 58.0731 116.608 58.3291 116.104C58.5931 115.6 58.9611 115.208 59.4331 114.928C59.9131 114.64 60.4771 114.496 61.1251 114.496C61.7811 114.496 62.3451 114.64 62.8171 114.928C63.2891 115.208 63.6531 115.6 63.9091 116.104C64.1731 116.608 64.3051 117.188 64.3051 117.844C64.3051 118.5 64.1731 119.08 63.9091 119.584C63.6531 120.088 63.2891 120.484 62.8171 120.772C62.3451 121.052 61.7811 121.192 61.1251 121.192ZM61.1251 119.728C61.4451 119.728 61.7251 119.656 61.9651 119.512C62.2051 119.368 62.3931 119.156 62.5291 118.876C62.6651 118.596 62.7331 118.252 62.7331 117.844C62.7331 117.428 62.6651 117.084 62.5291 116.812C62.3931 116.532 62.2051 116.32 61.9651 116.176C61.7251 116.032 61.4451 115.96 61.1251 115.96C60.8131 115.96 60.5331 116.032 60.2851 116.176C60.0451 116.32 59.8571 116.532 59.7211 116.812C59.5851 117.084 59.5171 117.428 59.5171 117.844C59.5171 118.252 59.5851 118.596 59.7211 118.876C59.8571 119.156 60.0451 119.368 60.2851 119.512C60.5331 119.656 60.8131 119.728 61.1251 119.728ZM65.6648 123.592V114.688H67.1408V115.42H67.2368C67.3488 115.252 67.4928 115.1 67.6688 114.964C67.8448 114.82 68.0528 114.708 68.2928 114.628C68.5408 114.54 68.8168 114.496 69.1208 114.496C69.6568 114.496 70.1328 114.624 70.5488 114.88C70.9728 115.136 71.3088 115.512 71.5568 116.008C71.8048 116.504 71.9288 117.116 71.9288 117.844C71.9288 118.564 71.8048 119.176 71.5568 119.68C71.3088 120.176 70.9728 120.552 70.5488 120.808C70.1328 121.064 69.6568 121.192 69.1208 121.192C68.6408 121.192 68.2408 121.1 67.9208 120.916C67.6088 120.724 67.3808 120.504 67.2368 120.256H67.1408L67.2368 121.192V123.592H65.6648ZM68.7488 119.728C69.0528 119.728 69.3248 119.66 69.5648 119.524C69.8128 119.388 70.0048 119.18 70.1408 118.9C70.2848 118.62 70.3568 118.268 70.3568 117.844C70.3568 117.42 70.2848 117.068 70.1408 116.788C70.0048 116.508 69.8128 116.3 69.5648 116.164C69.3248 116.028 69.0528 115.96 68.7488 115.96C68.4448 115.96 68.1688 116.028 67.9208 116.164C67.6808 116.3 67.4888 116.508 67.3448 116.788C67.2088 117.068 67.1408 117.42 67.1408 117.844C67.1408 118.268 67.2088 118.62 67.3448 118.9C67.4888 119.18 67.6808 119.388 67.9208 119.524C68.1688 119.66 68.4448 119.728 68.7488 119.728ZM76.018 121.192C75.386 121.192 74.838 121.056 74.374 120.784C73.91 120.512 73.55 120.124 73.294 119.62C73.038 119.116 72.91 118.524 72.91 117.844C72.91 117.156 73.042 116.564 73.306 116.068C73.578 115.564 73.95 115.176 74.422 114.904C74.894 114.632 75.43 114.496 76.03 114.496C76.694 114.496 77.242 114.62 77.674 114.868C78.114 115.108 78.442 115.456 78.658 115.912C78.874 116.36 78.982 116.896 78.982 117.52C78.982 117.64 78.978 117.76 78.97 117.88C78.97 118 78.962 118.108 78.946 118.204H73.774V117.088H77.482C77.466 116.888 77.422 116.708 77.35 116.548C77.286 116.38 77.19 116.24 77.062 116.128C76.942 116.008 76.794 115.92 76.618 115.864C76.45 115.8 76.258 115.768 76.042 115.768C75.73 115.768 75.45 115.848 75.202 116.008C74.954 116.168 74.758 116.404 74.614 116.716C74.478 117.028 74.41 117.42 74.41 117.892C74.41 118.308 74.482 118.66 74.626 118.948C74.77 119.228 74.966 119.44 75.214 119.584C75.47 119.728 75.758 119.8 76.078 119.8C76.446 119.8 76.742 119.712 76.966 119.536C77.198 119.352 77.366 119.132 77.47 118.876L78.838 119.248C78.646 119.824 78.318 120.292 77.854 120.652C77.398 121.012 76.786 121.192 76.018 121.192ZM83.407 121V114.688H84.979V121H83.407ZM84.199 113.608C83.919 113.608 83.679 113.508 83.479 113.308C83.279 113.108 83.179 112.868 83.179 112.588C83.179 112.308 83.279 112.068 83.479 111.868C83.679 111.668 83.919 111.568 84.199 111.568C84.479 111.568 84.719 111.668 84.919 111.868C85.119 112.068 85.219 112.308 85.219 112.588C85.219 112.868 85.119 113.108 84.919 113.308C84.719 113.508 84.479 113.608 84.199 113.608ZM86.7117 121V114.688H88.1877V115.456H88.2837C88.4677 115.16 88.7237 114.928 89.0517 114.76C89.3797 114.584 89.7477 114.496 90.1557 114.496C90.8837 114.496 91.4357 114.716 91.8117 115.156C92.1877 115.588 92.3757 116.196 92.3757 116.98V121H90.8037V117.196C90.8037 116.796 90.7037 116.492 90.5037 116.284C90.3117 116.068 90.0397 115.96 89.6877 115.96C89.3997 115.96 89.1477 116.036 88.9317 116.188C88.7237 116.332 88.5637 116.528 88.4517 116.776C88.3397 117.024 88.2837 117.308 88.2837 117.628V121H86.7117ZM94.3356 117.856L94.1916 114.688V112.408H95.7996V114.688L95.6556 117.856H94.3356ZM94.9956 121.072C94.7076 121.072 94.4596 120.972 94.2516 120.772C94.0516 120.564 93.9516 120.312 93.9516 120.016C93.9516 119.736 94.0516 119.496 94.2516 119.296C94.4596 119.096 94.7076 118.996 94.9956 118.996C95.2836 118.996 95.5276 119.096 95.7276 119.296C95.9356 119.496 96.0396 119.74 96.0396 120.028C96.0396 120.316 95.9356 120.564 95.7276 120.772C95.5276 120.972 95.2836 121.072 94.9956 121.072Z" fill="#E0E3FF"/>
</g>
<defs>
<filter id="filter0_f_205_116" x="321.7" y="-78.3" width="442.6" height="442.6" filterUnits="userSpaceOnUse" color-interpolation-filters="sRGB">
<feFlood flood-opacity="0" result="BackgroundImageFix"/>
<feBlend mode="normal" in="SourceGraphic" in2="BackgroundImageFix" result="shape"/>
<feGaussianBlur stdDeviation="74.15" result="effect1_foregroundBlur_205_116"/>
</filter>
<filter id="filter1_f_205_116" x="-143.3" y="-170.3" width="442.6" height="442.6" filterUnits="userSpaceOnUse" color-interpolation-filters="sRGB">
<feFlood flood-opacity="0" result="BackgroundImageFix"/>
<feBlend mode="normal" in="SourceGraphic" in2="BackgroundImageFix" result="shape"/>
<feGaussianBlur stdDeviation="74.15" result="effect1_foregroundBlur_205_116"/>
</filter>
<filter id="filter2_d_205_116" x="34.77" y="60.2197" width="268.206" height="36.2607" filterUnits="userSpaceOnUse" color-interpolation-filters="sRGB">
<feFlood flood-opacity="0" result="BackgroundImageFix"/>
<feColorMatrix in="SourceAlpha" type="matrix" values="0 0 0 0 0 0 0 0 0 0 0 0 0 0 0 0 0 0 127 0" result="hardAlpha"/>
<feOffset dy="4"/>
<feGaussianBlur stdDeviation="2"/>
<feComposite in2="hardAlpha" operator="out"/>
<feColorMatrix type="matrix" values="0 0 0 0 0 0 0 0 0 0 0 0 0 0 0 0 0 0 0.25 0"/>
<feBlend mode="normal" in2="BackgroundImageFix" result="effect1_dropShadow_205_116"/>
<feBlend mode="normal" in="SourceGraphic" in2="effect1_dropShadow_205_116" result="shape"/>
</filter>
<linearGradient id="paint0_linear_205_116" x1="477" y1="-102" x2="477" y2="194" gradientUnits="userSpaceOnUse">
<stop stop-color="#5865F2"/>
<stop offset="1" stop-color="#333A8C" stop-opacity="0"/>
</linearGradient>
<clipPath id="clip0_205_116">
<rect width="610" height="161" fill="white"/>
</clipPath>
</defs>
</svg>
