<svg width="881" height="273" viewBox="0 0 881 273" fill="none" xmlns="http://www.w3.org/2000/svg">
<style>
#_ {
	animation: 1.995s linear 0s infinite normal forwards running _;
}
@keyframes _ {
	0% {
		opacity: 1;
	}
	15.04% {
		opacity: 0;
	}
	30.08% {
		opacity: 1;
	}
	100% {
		opacity: 1;
	}
	45.11% {
		opacity: 0;
	}
	60.15% {
		opacity: 1;
	}
	75.19% {
		opacity: 0;
	}
	90.23% {
		opacity: 1;
	}
}
</style>
<g id="Frame 38" clip-path="url(#clip0_245_2)">
<rect width="881" height="273" fill="#161616"/>
<g id="Group 14">
<g id="Vector">
<path d="M195.691 129.094C198.15 129.094 200.006 128.716 201.258 127.959C202.511 127.157 203.137 126.022 203.137 124.552C203.137 123.172 202.578 122.103 201.46 121.346C200.386 120.589 198.665 120.055 196.294 119.743L192.27 119.209C188.737 118.719 186.076 117.672 184.287 116.069C182.498 114.466 181.604 112.307 181.604 109.59C181.604 106.607 182.744 104.247 185.025 102.51C187.35 100.773 190.481 99.9048 194.416 99.9048C198.486 99.9048 201.795 100.884 204.344 102.844C206.893 104.803 208.213 107.364 208.302 110.525H202.667C202.578 108.7 201.795 107.252 200.319 106.184C198.844 105.115 196.876 104.581 194.416 104.581C192.135 104.581 190.369 105.004 189.117 105.85C187.909 106.651 187.306 107.809 187.306 109.323C187.306 110.703 187.82 111.772 188.848 112.529C189.922 113.242 191.599 113.776 193.88 114.132L197.972 114.667C201.639 115.156 204.367 116.181 206.155 117.739C207.989 119.298 208.906 121.413 208.906 124.085C208.906 127.068 207.698 129.451 205.283 131.232C202.913 132.969 199.716 133.837 195.691 133.837C191.353 133.837 187.842 132.768 185.159 130.631C182.476 128.493 181.089 125.688 181 122.215H186.702C186.836 124.352 187.686 126.044 189.251 127.291C190.816 128.493 192.963 129.094 195.691 129.094Z" fill="url(#paint0_linear_245_2)"/>
<path d="M230.894 127.892H236.529V133.169H230.693C226.4 133.169 223.247 132.345 221.234 130.698C219.267 129.005 218.283 126.311 218.283 122.615V105.449H213.319V104.313L222.912 94.4944H224.052V100.573H236.261V105.449H224.052V122.281C224.052 124.196 224.611 125.621 225.729 126.556C226.847 127.447 228.569 127.892 230.894 127.892Z" fill="url(#paint1_linear_245_2)"/>
<path d="M254.137 135.373L255.21 132.768H253.063L239.58 100.573H245.684L257.088 128.159L268.224 100.573H274.194L259.034 137.177C257.737 140.383 256.194 142.632 254.405 143.923C252.616 145.214 250.022 145.86 246.624 145.86H242.532V140.717H246.355C248.591 140.717 250.224 140.338 251.252 139.581C252.326 138.824 253.287 137.422 254.137 135.373Z" fill="url(#paint2_linear_245_2)"/>
<path d="M280.627 133.169V87.0801H286.396V133.169H280.627Z" fill="url(#paint3_linear_245_2)"/>
<path d="M322.289 122.281H327.991C327.231 125.71 325.419 128.493 322.557 130.631C319.74 132.768 316.252 133.837 312.093 133.837C307.039 133.837 302.903 132.256 299.683 129.094C296.463 125.888 294.875 121.791 294.92 116.804C294.92 111.817 296.463 107.764 299.548 104.647C302.679 101.486 306.748 99.9048 311.757 99.9048C316.542 99.9048 320.455 101.397 323.496 104.38C326.582 107.364 328.125 111.216 328.125 115.936C328.125 116.203 328.103 116.559 328.058 117.004C328.058 117.405 328.036 117.828 327.991 118.274H300.622C300.935 121.569 302.12 124.174 304.177 126.089C306.234 127.959 308.873 128.894 312.093 128.894C314.686 128.894 316.855 128.315 318.599 127.157C320.388 125.955 321.618 124.33 322.289 122.281ZM311.623 104.781C308.627 104.781 306.167 105.582 304.244 107.186C302.366 108.789 301.203 111.06 300.756 113.999H322.49C322.267 111.193 321.149 108.967 319.136 107.319C317.124 105.627 314.619 104.781 311.623 104.781Z" fill="url(#paint4_linear_245_2)"/>
<path d="M269.275 173.389V127.3H275.074V173.389H269.275Z" fill="url(#paint5_linear_245_2)"/>
<path d="M300.771 140.125C305.851 140.125 310.01 141.706 313.247 144.867C316.483 148.029 318.102 152.103 318.102 157.091C318.102 162.078 316.483 166.153 313.247 169.314C310.01 172.476 305.851 174.057 300.771 174.057C295.736 174.057 291.6 172.476 288.363 169.314C285.127 166.153 283.508 162.078 283.508 157.091C283.508 152.103 285.127 148.029 288.363 144.867C291.6 141.706 295.736 140.125 300.771 140.125ZM300.771 168.914C304.143 168.914 306.885 167.823 308.998 165.641C311.111 163.459 312.168 160.609 312.168 157.091C312.168 153.573 311.111 150.723 308.998 148.541C306.885 146.359 304.143 145.268 300.771 145.268C297.4 145.268 294.657 146.359 292.544 148.541C290.431 150.723 289.375 153.573 289.375 157.091C289.375 160.609 290.431 163.459 292.544 165.641C294.657 167.823 297.4 168.914 300.771 168.914Z" fill="url(#paint6_linear_245_2)"/>
<path d="M353.138 145.869L354.284 140.793H358.33V174.19C358.33 178.332 357.319 181.338 355.296 183.208C353.273 185.123 350.013 186.08 345.518 186.08H329.131L330.48 180.87H345.518C348.035 180.87 349.834 180.358 350.913 179.334C351.991 178.31 352.531 176.595 352.531 174.19V168.513C351.047 170.116 349.272 171.363 347.204 172.253C345.181 173.099 343 173.523 340.663 173.523C335.942 173.523 331.986 171.942 328.794 168.78C325.647 165.618 324.074 161.633 324.074 156.824C324.074 152.014 325.647 148.029 328.794 144.867C331.986 141.706 335.942 140.125 340.663 140.125C343.18 140.125 345.518 140.637 347.676 141.661C349.834 142.641 351.654 144.043 353.138 145.869ZM341.472 168.379C344.843 168.379 347.608 167.311 349.766 165.173C351.924 162.991 353.003 160.208 353.003 156.824C353.003 153.439 351.924 150.678 349.766 148.541C347.608 146.359 344.843 145.268 341.472 145.268C338.1 145.268 335.335 146.337 333.177 148.474C331.02 150.612 329.941 153.395 329.941 156.824C329.941 160.252 331.02 163.036 333.177 165.173C335.335 167.311 338.1 168.379 341.472 168.379Z" fill="url(#paint7_linear_245_2)"/>
<path d="M381.716 169.314C384.188 169.314 386.054 168.936 387.313 168.179C388.571 167.377 389.201 166.242 389.201 164.772C389.201 163.392 388.639 162.323 387.515 161.566C386.436 160.809 384.705 160.275 382.322 159.963L378.276 159.429C374.725 158.939 372.05 157.892 370.252 156.289C368.454 154.686 367.554 152.526 367.554 149.81C367.554 146.827 368.701 144.466 370.994 142.73C373.331 140.993 376.478 140.125 380.434 140.125C384.525 140.125 387.852 141.104 390.414 143.064C392.977 145.023 394.303 147.584 394.393 150.745H388.729C388.639 148.92 387.852 147.472 386.368 146.404C384.885 145.335 382.907 144.8 380.434 144.8C378.142 144.8 376.366 145.223 375.107 146.07C373.893 146.871 373.286 148.029 373.286 149.543C373.286 150.923 373.803 151.992 374.837 152.749C375.916 153.462 377.602 153.996 379.895 154.352L384.008 154.887C387.695 155.376 390.437 156.401 392.235 157.959C394.078 159.518 395 161.633 395 164.305C395 167.288 393.786 169.671 391.359 171.452C388.976 173.189 385.762 174.057 381.716 174.057C377.355 174.057 373.826 172.988 371.128 170.851C368.431 168.713 367.037 165.908 366.948 162.434H372.679C372.814 164.572 373.668 166.264 375.242 167.511C376.815 168.713 378.973 169.314 381.716 169.314Z" fill="url(#paint8_linear_245_2)"/>
</g>
</g>
<g id="Rectangle 27" filter="url(#filter0_f_245_2)">
<rect x="146" y="-67" width="150" height="150" rx="75" fill="#5865F2"/>
</g>
<g id="Rectangle_27" filter="url(#filter1_f_245_2)">
<rect x="266" y="198" width="150" height="150" rx="75" fill="#F258C4"/>
</g>
<path id="style console logs with" d="M588.578 131.346C587.829 131.346 587.178 131.245 586.625 131.042C586.072 130.839 585.607 130.573 585.229 130.244C584.851 129.908 584.543 129.554 584.305 129.183C584.067 128.805 583.947 128.616 583.947 128.616L585.701 127.598C585.701 127.598 585.799 127.748 585.995 128.049C586.191 128.35 586.405 128.599 586.636 128.795C586.867 128.991 587.157 129.155 587.507 129.288C587.857 129.421 588.274 129.488 588.757 129.488C589.373 129.488 589.877 129.369 590.269 129.131C590.661 128.886 590.895 128.553 590.972 128.133C591.042 127.748 590.941 127.437 590.668 127.199C590.402 126.954 589.719 126.681 588.62 126.38C587.199 126.002 586.265 125.529 585.817 124.962C585.376 124.395 585.229 123.702 585.376 122.883C585.537 121.973 586.016 121.252 586.814 120.72C587.619 120.181 588.617 119.912 589.807 119.912C590.5 119.912 591.098 119.999 591.602 120.174C592.106 120.349 592.519 120.566 592.841 120.825C593.163 121.084 593.433 121.364 593.65 121.665C593.867 121.959 593.975 122.106 593.975 122.106L592.243 123.114C592.243 123.114 592.162 123.009 592.001 122.799C591.84 122.589 591.658 122.411 591.455 122.264C591.259 122.117 591.014 121.998 590.72 121.907C590.433 121.816 590.097 121.77 589.712 121.77C589.152 121.77 588.669 121.886 588.263 122.117C587.864 122.341 587.63 122.645 587.56 123.03C587.504 123.352 587.577 123.625 587.78 123.849C587.99 124.073 588.617 124.325 589.66 124.605C591.221 125.018 592.232 125.512 592.694 126.086C593.163 126.653 593.324 127.356 593.177 128.196C593.002 129.169 592.491 129.939 591.644 130.506C590.797 131.066 589.775 131.346 588.578 131.346ZM598.791 131.346C597.79 131.346 597.041 131.049 596.544 130.454C596.047 129.852 595.886 129.047 596.061 128.039L597.951 117.266H600.24L598.403 127.755C598.298 128.322 598.34 128.735 598.529 128.994C598.718 129.253 599.036 129.383 599.484 129.383C599.61 129.383 599.757 129.369 599.925 129.341C600.093 129.313 600.282 129.264 600.492 129.194C600.702 129.124 600.807 129.089 600.807 129.089L600.45 131.063C600.45 131.063 600.352 131.091 600.156 131.147C599.967 131.21 599.75 131.259 599.505 131.294C599.26 131.329 599.022 131.346 598.791 131.346ZM595.316 122.159L595.652 120.258H602.33L601.994 122.159H595.316ZM602.321 135.536L606.07 129.645L605.828 131L603.014 120.258H605.335L606.952 127.01L607.12 127.892H607.183L607.655 126.999L611.509 120.258H613.955L604.694 135.536H602.321ZM613.458 131L616.104 115.964H618.393L615.736 131H613.458ZM623.494 131.346C621.765 131.346 620.459 130.786 619.577 129.666C618.695 128.539 618.408 127.115 618.716 125.393C618.989 123.797 619.689 122.484 620.816 121.455C621.943 120.426 623.277 119.912 624.817 119.912C626.322 119.912 627.505 120.405 628.366 121.392C629.234 122.379 629.566 123.573 629.363 124.973L629.174 126.065H619.808L620.092 124.532H627.179C627.263 123.72 627.078 123.069 626.623 122.579C626.168 122.082 625.531 121.833 624.712 121.833C623.767 121.833 622.951 122.173 622.265 122.852C621.579 123.524 621.138 124.423 620.942 125.55C620.739 126.733 620.89 127.678 621.394 128.385C621.905 129.092 622.671 129.446 623.693 129.446C624.176 129.446 624.614 129.372 625.006 129.225C625.398 129.078 625.737 128.889 626.024 128.658C626.318 128.42 626.644 128.067 627.001 127.598L628.523 128.658C628.117 129.267 627.676 129.764 627.2 130.149C626.731 130.534 626.182 130.828 625.552 131.032C624.929 131.241 624.243 131.346 623.494 131.346ZM640.167 131.346C638.466 131.346 637.167 130.783 636.271 129.656C635.382 128.529 635.092 127.094 635.4 125.351C635.68 123.734 636.39 122.425 637.531 121.424C638.679 120.416 640.027 119.912 641.574 119.912C642.372 119.912 643.058 120.031 643.632 120.269C644.213 120.507 644.706 120.846 645.112 121.287C645.525 121.721 645.868 122.274 646.141 122.946C646.134 122.946 646.131 122.946 646.131 122.946C646.138 122.946 646.141 122.946 646.141 122.946L644.115 123.765C643.891 123.254 643.67 122.883 643.453 122.652C643.236 122.421 642.963 122.239 642.634 122.106C642.312 121.973 641.931 121.907 641.49 121.907C640.545 121.907 639.715 122.239 639.001 122.904C638.294 123.569 637.846 124.451 637.657 125.55C637.454 126.656 637.608 127.566 638.119 128.28C638.637 128.994 639.393 129.351 640.387 129.351C640.821 129.351 641.203 129.292 641.532 129.173C641.868 129.054 642.183 128.879 642.477 128.648C642.778 128.41 643.114 128.018 643.485 127.472L645.322 128.375C644.881 129.117 644.419 129.684 643.936 130.076C643.453 130.468 642.897 130.776 642.267 131C641.637 131.231 640.937 131.346 640.167 131.346ZM651.858 131.346C650.164 131.346 648.859 130.776 647.942 129.635C647.032 128.487 646.717 127.069 646.997 125.382C647.291 123.758 648.026 122.442 649.202 121.434C650.378 120.419 651.75 119.912 653.318 119.912C654.998 119.912 656.307 120.479 657.245 121.613C658.183 122.747 658.508 124.164 658.221 125.865C657.927 127.461 657.185 128.774 655.995 129.803C654.812 130.832 653.433 131.346 651.858 131.346ZM652.037 129.351C652.989 129.351 653.832 129.012 654.567 128.333C655.309 127.647 655.775 126.772 655.964 125.708C656.167 124.574 655.995 123.657 655.449 122.957C654.903 122.257 654.137 121.907 653.15 121.907C652.184 121.907 651.337 122.243 650.609 122.915C649.888 123.58 649.436 124.451 649.254 125.529C649.058 126.649 649.226 127.566 649.758 128.28C650.29 128.994 651.05 129.351 652.037 129.351ZM659.293 131L661.183 120.258H663.367L663.031 122.117L662.8 121.833H663.146C663.573 121.238 664.126 120.769 664.805 120.426C665.491 120.083 666.216 119.912 666.979 119.912C668.141 119.912 669.023 120.293 669.625 121.056C670.234 121.812 670.426 122.813 670.202 124.059L668.984 131H666.695L667.85 124.479C667.99 123.667 667.899 123.034 667.577 122.579C667.255 122.117 666.72 121.886 665.971 121.886C665.166 121.886 664.448 122.173 663.818 122.747C663.195 123.314 662.803 124.052 662.642 124.962L661.571 131H659.293ZM675.716 131.346C674.967 131.346 674.316 131.245 673.763 131.042C673.21 130.839 672.744 130.573 672.366 130.244C671.988 129.908 671.68 129.554 671.442 129.183C671.204 128.805 671.085 128.616 671.085 128.616L672.839 127.598C672.839 127.598 672.937 127.748 673.133 128.049C673.329 128.35 673.542 128.599 673.773 128.795C674.004 128.991 674.295 129.155 674.645 129.288C674.995 129.421 675.411 129.488 675.894 129.488C676.51 129.488 677.014 129.369 677.406 129.131C677.798 128.886 678.033 128.553 678.11 128.133C678.18 127.748 678.078 127.437 677.805 127.199C677.539 126.954 676.857 126.681 675.758 126.38C674.337 126.002 673.402 125.529 672.954 124.962C672.513 124.395 672.366 123.702 672.513 122.883C672.674 121.973 673.154 121.252 673.952 120.72C674.757 120.181 675.754 119.912 676.944 119.912C677.637 119.912 678.236 119.999 678.74 120.174C679.244 120.349 679.657 120.566 679.979 120.825C680.301 121.084 680.57 121.364 680.787 121.665C681.004 121.959 681.113 122.106 681.113 122.106L679.38 123.114C679.38 123.114 679.3 123.009 679.139 122.799C678.978 122.589 678.796 122.411 678.593 122.264C678.397 122.117 678.152 121.998 677.858 121.907C677.571 121.816 677.235 121.77 676.85 121.77C676.29 121.77 675.807 121.886 675.401 122.117C675.002 122.341 674.767 122.645 674.697 123.03C674.641 123.352 674.715 123.625 674.918 123.849C675.128 124.073 675.754 124.325 676.797 124.605C678.358 125.018 679.37 125.512 679.832 126.086C680.301 126.653 680.462 127.356 680.315 128.196C680.14 129.169 679.629 129.939 678.782 130.506C677.935 131.066 676.913 131.346 675.716 131.346ZM686.927 131.346C685.233 131.346 683.927 130.776 683.01 129.635C682.1 128.487 681.785 127.069 682.065 125.382C682.359 123.758 683.094 122.442 684.27 121.434C685.446 120.419 686.818 119.912 688.386 119.912C690.066 119.912 691.375 120.479 692.313 121.613C693.251 122.747 693.577 124.164 693.29 125.865C692.996 127.461 692.254 128.774 691.064 129.803C689.881 130.832 688.502 131.346 686.927 131.346ZM687.105 129.351C688.057 129.351 688.901 129.012 689.636 128.333C690.378 127.647 690.843 126.772 691.032 125.708C691.235 124.574 691.064 123.657 690.518 122.957C689.972 122.257 689.205 121.907 688.218 121.907C687.252 121.907 686.405 122.243 685.677 122.915C684.956 123.58 684.505 124.451 684.323 125.529C684.127 126.649 684.295 127.566 684.827 128.28C685.359 128.994 686.118 129.351 687.105 129.351ZM694.361 131L697.007 115.964H699.296L696.639 131H694.361ZM704.397 131.346C702.668 131.346 701.363 130.786 700.481 129.666C699.599 128.539 699.312 127.115 699.62 125.393C699.893 123.797 700.593 122.484 701.72 121.455C702.847 120.426 704.18 119.912 705.72 119.912C707.225 119.912 708.408 120.405 709.269 121.392C710.137 122.379 710.47 123.573 710.267 124.973L710.078 126.065H700.712L700.995 124.532H708.083C708.167 123.72 707.981 123.069 707.526 122.579C707.071 122.082 706.434 121.833 705.615 121.833C704.67 121.833 703.855 122.173 703.169 122.852C702.483 123.524 702.042 124.423 701.846 125.55C701.643 126.733 701.793 127.678 702.297 128.385C702.808 129.092 703.575 129.446 704.597 129.446C705.08 129.446 705.517 129.372 705.909 129.225C706.301 129.078 706.641 128.889 706.928 128.658C707.222 128.42 707.547 128.067 707.904 127.598L709.427 128.658C709.021 129.267 708.58 129.764 708.104 130.149C707.635 130.534 707.085 130.828 706.455 131.032C705.832 131.241 705.146 131.346 704.397 131.346ZM715.915 131L718.561 115.964H720.85L718.193 131H715.915ZM726.035 131.346C724.341 131.346 723.035 130.776 722.118 129.635C721.208 128.487 720.893 127.069 721.173 125.382C721.467 123.758 722.202 122.442 723.378 121.434C724.554 120.419 725.926 119.912 727.494 119.912C729.174 119.912 730.483 120.479 731.421 121.613C732.359 122.747 732.685 124.164 732.398 125.865C732.104 127.461 731.362 128.774 730.172 129.803C728.989 130.832 727.61 131.346 726.035 131.346ZM726.213 129.351C727.165 129.351 728.009 129.012 728.744 128.333C729.486 127.647 729.951 126.772 730.14 125.708C730.343 124.574 730.172 123.657 729.626 122.957C729.08 122.257 728.313 121.907 727.326 121.907C726.36 121.907 725.513 122.243 724.785 122.915C724.064 123.58 723.613 124.451 723.431 125.529C723.235 126.649 723.403 127.566 723.935 128.28C724.467 128.994 725.226 129.351 726.213 129.351ZM737.942 135.862C737.186 135.862 736.514 135.76 735.926 135.557C735.338 135.361 734.827 135.074 734.393 134.696C733.959 134.325 733.627 133.94 733.396 133.541C733.172 133.149 733.06 132.953 733.06 132.953L735.023 131.924C735.023 131.924 735.118 132.092 735.307 132.428C735.496 132.764 735.709 133.037 735.947 133.247C736.185 133.464 736.476 133.639 736.819 133.772C737.169 133.905 737.575 133.972 738.037 133.972C739.003 133.972 739.79 133.678 740.399 133.09C741.008 132.509 741.411 131.672 741.607 130.58L741.806 129.446H741.743C741.288 129.992 740.739 130.415 740.095 130.716C739.458 131.011 738.754 131.158 737.984 131.158C736.528 131.158 735.401 130.58 734.603 129.425C733.812 128.27 733.567 126.884 733.868 125.267C734.148 123.65 734.813 122.355 735.863 121.382C736.913 120.402 738.145 119.912 739.559 119.912C740.357 119.912 741.085 120.083 741.743 120.426C742.401 120.769 742.877 121.217 743.171 121.77H743.77L743.129 122.379L743.507 120.258H745.702L743.875 130.622C743.574 132.337 742.912 133.639 741.89 134.528C740.875 135.417 739.559 135.862 737.942 135.862ZM738.772 129.183C739.696 129.183 740.511 128.854 741.218 128.196C741.925 127.538 742.37 126.677 742.552 125.613C742.748 124.528 742.597 123.636 742.1 122.936C741.603 122.229 740.872 121.875 739.906 121.875C738.975 121.875 738.159 122.211 737.459 122.883C736.759 123.548 736.315 124.406 736.126 125.456L736.115 125.477C735.961 126.59 736.129 127.486 736.619 128.165C737.109 128.844 737.827 129.183 738.772 129.183ZM750.631 131.346C749.882 131.346 749.231 131.245 748.678 131.042C748.125 130.839 747.659 130.573 747.281 130.244C746.903 129.908 746.595 129.554 746.357 129.183C746.119 128.805 746 128.616 746 128.616L747.754 127.598C747.754 127.598 747.852 127.748 748.048 128.049C748.244 128.35 748.457 128.599 748.688 128.795C748.919 128.991 749.21 129.155 749.56 129.288C749.91 129.421 750.326 129.488 750.809 129.488C751.425 129.488 751.929 129.369 752.321 129.131C752.713 128.886 752.948 128.553 753.025 128.133C753.095 127.748 752.993 127.437 752.72 127.199C752.454 126.954 751.772 126.681 750.673 126.38C749.252 126.002 748.317 125.529 747.869 124.962C747.428 124.395 747.281 123.702 747.428 122.883C747.589 121.973 748.069 121.252 748.867 120.72C749.672 120.181 750.669 119.912 751.859 119.912C752.552 119.912 753.151 119.999 753.655 120.174C754.159 120.349 754.572 120.566 754.894 120.825C755.216 121.084 755.485 121.364 755.702 121.665C755.919 121.959 756.028 122.106 756.028 122.106L754.295 123.114C754.295 123.114 754.215 123.009 754.054 122.799C753.893 122.589 753.711 122.411 753.508 122.264C753.312 122.117 753.067 121.998 752.773 121.907C752.486 121.816 752.15 121.77 751.765 121.77C751.205 121.77 750.722 121.886 750.316 122.117C749.917 122.341 749.682 122.645 749.612 123.03C749.556 123.352 749.63 123.625 749.833 123.849C750.043 124.073 750.669 124.325 751.712 124.605C753.273 125.018 754.285 125.512 754.747 126.086C755.216 126.653 755.377 127.356 755.23 128.196C755.055 129.169 754.544 129.939 753.697 130.506C752.85 131.066 751.828 131.346 750.631 131.346ZM586.604 157L585.061 146.258H587.276L588.137 153.304L588.221 154.238H588.284L588.683 153.367L592.127 146.258H594.301L595.288 153.304L595.382 154.238H595.445L595.834 153.325L599.173 146.258H601.43L596.054 157H593.902L592.841 149.734L592.778 148.957H592.705L592.337 149.734L588.767 157H586.604ZM601.064 157L602.954 146.258H605.243L603.342 157H601.064ZM604.718 144.232C604.326 144.232 603.99 144.095 603.71 143.822C603.437 143.542 603.3 143.206 603.3 142.814C603.3 142.408 603.437 142.076 603.71 141.817C603.99 141.551 604.326 141.418 604.718 141.418C605.124 141.418 605.46 141.551 605.726 141.817C605.992 142.076 606.125 142.408 606.125 142.814C606.125 143.206 605.992 143.542 605.726 143.822C605.46 144.095 605.124 144.232 604.718 144.232ZM610.317 157.346C609.316 157.346 608.567 157.049 608.07 156.454C607.573 155.852 607.412 155.047 607.587 154.039L609.477 143.266H611.766L609.928 153.755C609.823 154.322 609.865 154.735 610.054 154.994C610.243 155.253 610.562 155.383 611.01 155.383C611.136 155.383 611.283 155.369 611.451 155.341C611.619 155.313 611.808 155.264 612.018 155.194C612.228 155.124 612.333 155.089 612.333 155.089L611.976 157.063C611.976 157.063 611.878 157.091 611.682 157.147C611.493 157.21 611.276 157.259 611.031 157.294C610.786 157.329 610.548 157.346 610.317 157.346ZM606.841 148.159L607.177 146.258H613.855L613.519 148.159H606.841ZM614.052 157L616.698 141.964H618.987L617.948 147.833H618.011C618.417 147.252 618.952 146.787 619.617 146.437C620.282 146.087 620.993 145.912 621.749 145.912C622.904 145.912 623.782 146.293 624.384 147.056C624.993 147.812 625.186 148.81 624.962 150.049L623.744 157H621.455L622.61 150.479C622.75 149.667 622.659 149.034 622.337 148.579C622.015 148.117 621.479 147.886 620.73 147.886C619.925 147.886 619.208 148.173 618.578 148.747C617.948 149.314 617.556 150.052 617.402 150.962L616.331 157H614.052Z" fill="white"/>
<path id="ease." d="M637.639 157.368C635.854 157.368 634.492 156.797 633.554 155.656C632.623 154.508 632.312 153.062 632.62 151.319C632.9 149.702 633.621 148.386 634.783 147.371C635.945 146.349 637.317 145.838 638.899 145.838C640.495 145.838 641.755 146.349 642.679 147.371C643.61 148.393 643.956 149.65 643.718 151.141L643.529 152.233H634.006L634.31 150.584H640.768C640.838 149.912 640.691 149.377 640.327 148.978C639.97 148.579 639.459 148.379 638.794 148.379C638.01 148.379 637.345 148.659 636.799 149.219C636.253 149.772 635.892 150.528 635.717 151.487C635.535 152.551 635.658 153.388 636.085 153.997C636.519 154.606 637.184 154.91 638.08 154.91C638.5 154.91 638.878 154.851 639.214 154.732C639.557 154.606 639.868 154.448 640.148 154.259C640.428 154.063 640.743 153.769 641.093 153.377L642.794 154.963C642.339 155.516 641.86 155.967 641.356 156.317C640.852 156.66 640.288 156.919 639.665 157.095C639.042 157.277 638.367 157.368 637.639 157.368ZM647.667 157.368C646.519 157.368 645.644 157.014 645.042 156.307C644.44 155.6 644.233 154.711 644.422 153.64C644.611 152.555 645.136 151.722 645.997 151.141C646.858 150.56 647.975 150.269 649.347 150.269C649.879 150.269 650.407 150.322 650.932 150.427C651.457 150.532 651.902 150.668 652.266 150.836L652.392 150.248C652.511 149.632 652.388 149.142 652.024 148.778C651.667 148.407 651.118 148.222 650.376 148.222C649.928 148.222 649.536 148.271 649.2 148.369C648.871 148.46 648.563 148.586 648.276 148.747C647.989 148.901 647.719 149.069 647.467 149.251C647.222 149.433 647.1 149.524 647.1 149.524L645.787 147.707C645.787 147.707 645.98 147.574 646.365 147.308C646.75 147.042 647.187 146.797 647.677 146.573C648.167 146.349 648.689 146.171 649.242 146.038C649.802 145.905 650.425 145.838 651.111 145.838C652.707 145.838 653.904 146.258 654.702 147.098C655.507 147.931 655.787 149.062 655.542 150.49L654.387 157H651.247L651.604 154.942L651.772 155.677H651.405C650.999 156.181 650.463 156.59 649.798 156.905C649.14 157.213 648.43 157.368 647.667 157.368ZM649.011 155.246C649.732 155.246 650.372 154.977 650.932 154.438C651.499 153.899 651.867 153.206 652.035 152.359V152.348C651.797 152.208 651.499 152.089 651.142 151.991C650.792 151.893 650.404 151.844 649.977 151.844C649.284 151.844 648.713 151.995 648.265 152.296C647.824 152.59 647.558 153.003 647.467 153.535C647.376 154.039 647.471 154.452 647.751 154.774C648.038 155.089 648.458 155.246 649.011 155.246ZM661.358 157.368C660.574 157.368 659.899 157.28 659.332 157.105C658.772 156.93 658.278 156.699 657.851 156.412C657.431 156.125 657.057 155.806 656.728 155.457C656.406 155.106 656.245 154.931 656.245 154.931L658.387 153.335C658.387 153.335 658.509 153.468 658.754 153.734C658.999 153.993 659.244 154.207 659.489 154.375C659.734 154.536 660.032 154.672 660.382 154.784C660.732 154.889 661.124 154.942 661.558 154.942C662.062 154.942 662.468 154.854 662.776 154.679C663.084 154.504 663.266 154.263 663.322 153.955C663.371 153.682 663.29 153.458 663.08 153.283C662.877 153.108 662.296 152.898 661.337 152.653C659.804 152.275 658.793 151.781 658.303 151.172C657.82 150.556 657.652 149.818 657.799 148.957C657.974 147.991 658.495 147.231 659.363 146.678C660.231 146.118 661.323 145.838 662.639 145.838C663.339 145.838 663.952 145.915 664.477 146.069C665.002 146.216 665.443 146.402 665.8 146.626C666.157 146.85 666.479 147.102 666.766 147.382C667.053 147.662 667.196 147.802 667.196 147.802L665.138 149.398C665.138 149.398 665.037 149.307 664.834 149.125C664.638 148.936 664.424 148.778 664.193 148.652C663.969 148.519 663.71 148.414 663.416 148.337C663.122 148.26 662.804 148.222 662.461 148.222C662.013 148.222 661.638 148.302 661.337 148.463C661.036 148.624 660.861 148.845 660.812 149.125C660.77 149.356 660.826 149.552 660.98 149.713C661.134 149.874 661.652 150.066 662.534 150.29C664.214 150.703 665.31 151.218 665.821 151.834C666.332 152.443 666.507 153.188 666.346 154.07C666.171 155.092 665.628 155.897 664.718 156.485C663.808 157.073 662.688 157.368 661.358 157.368ZM672.891 157.368C671.106 157.368 669.745 156.797 668.807 155.656C667.876 154.508 667.564 153.062 667.872 151.319C668.152 149.702 668.873 148.386 670.035 147.371C671.197 146.349 672.569 145.838 674.151 145.838C675.747 145.838 677.007 146.349 677.931 147.371C678.862 148.393 679.209 149.65 678.971 151.141L678.782 152.233H669.258L669.563 150.584H676.02C676.09 149.912 675.943 149.377 675.579 148.978C675.222 148.579 674.711 148.379 674.046 148.379C673.262 148.379 672.597 148.659 672.051 149.219C671.505 149.772 671.145 150.528 670.97 151.487C670.788 152.551 670.91 153.388 671.337 153.997C671.771 154.606 672.436 154.91 673.332 154.91C673.752 154.91 674.13 154.851 674.466 154.732C674.809 154.606 675.121 154.448 675.401 154.259C675.681 154.063 675.996 153.769 676.346 153.377L678.047 154.963C677.592 155.516 677.112 155.967 676.608 156.317C676.104 156.66 675.541 156.919 674.918 157.095C674.295 157.277 673.619 157.368 672.891 157.368ZM681.796 157.179C681.229 157.179 680.746 156.986 680.347 156.601C679.955 156.209 679.759 155.729 679.759 155.162C679.759 154.602 679.955 154.13 680.347 153.745C680.746 153.36 681.229 153.167 681.796 153.167C682.363 153.167 682.843 153.36 683.235 153.745C683.627 154.13 683.823 154.602 683.823 155.162C683.823 155.729 683.627 156.209 683.235 156.601C682.843 156.986 682.363 157.179 681.796 157.179Z" fill="url(#paint9_linear_245_2)"/>
<path id="_" opacity="0.0833333" d="M395 182.08L395.778 177.08H416L415.242 182.08H395Z" fill="#EE59C6"/>
</g>
<defs>
<filter id="filter0_f_245_2" x="-218" y="-431" width="878" height="878" filterUnits="userSpaceOnUse" color-interpolation-filters="sRGB">
<feFlood flood-opacity="0" result="BackgroundImageFix"/>
<feBlend mode="normal" in="SourceGraphic" in2="BackgroundImageFix" result="shape"/>
<feGaussianBlur stdDeviation="182" result="effect1_foregroundBlur_245_2"/>
</filter>
<filter id="filter1_f_245_2" x="-98" y="-166" width="878" height="878" filterUnits="userSpaceOnUse" color-interpolation-filters="sRGB">
<feFlood flood-opacity="0" result="BackgroundImageFix"/>
<feBlend mode="normal" in="SourceGraphic" in2="BackgroundImageFix" result="shape"/>
<feGaussianBlur stdDeviation="182" result="effect1_foregroundBlur_245_2"/>
</filter>
<linearGradient id="paint0_linear_245_2" x1="365.129" y1="173.469" x2="243.068" y2="86.9432" gradientUnits="userSpaceOnUse">
<stop stop-color="#F258C4"/>
<stop offset="1" stop-color="#5865F2"/>
</linearGradient>
<linearGradient id="paint1_linear_245_2" x1="365.129" y1="173.469" x2="243.068" y2="86.9432" gradientUnits="userSpaceOnUse">
<stop stop-color="#F258C4"/>
<stop offset="1" stop-color="#5865F2"/>
</linearGradient>
<linearGradient id="paint2_linear_245_2" x1="365.129" y1="173.469" x2="243.068" y2="86.9432" gradientUnits="userSpaceOnUse">
<stop stop-color="#F258C4"/>
<stop offset="1" stop-color="#5865F2"/>
</linearGradient>
<linearGradient id="paint3_linear_245_2" x1="365.129" y1="173.469" x2="243.068" y2="86.9432" gradientUnits="userSpaceOnUse">
<stop stop-color="#F258C4"/>
<stop offset="1" stop-color="#5865F2"/>
</linearGradient>
<linearGradient id="paint4_linear_245_2" x1="365.129" y1="173.469" x2="243.068" y2="86.9432" gradientUnits="userSpaceOnUse">
<stop stop-color="#F258C4"/>
<stop offset="1" stop-color="#5865F2"/>
</linearGradient>
<linearGradient id="paint5_linear_245_2" x1="365.129" y1="173.469" x2="243.068" y2="86.9432" gradientUnits="userSpaceOnUse">
<stop stop-color="#F258C4"/>
<stop offset="1" stop-color="#5865F2"/>
</linearGradient>
<linearGradient id="paint6_linear_245_2" x1="365.129" y1="173.469" x2="243.068" y2="86.9432" gradientUnits="userSpaceOnUse">
<stop stop-color="#F258C4"/>
<stop offset="1" stop-color="#5865F2"/>
</linearGradient>
<linearGradient id="paint7_linear_245_2" x1="365.129" y1="173.469" x2="243.068" y2="86.9432" gradientUnits="userSpaceOnUse">
<stop stop-color="#F258C4"/>
<stop offset="1" stop-color="#5865F2"/>
</linearGradient>
<linearGradient id="paint8_linear_245_2" x1="365.129" y1="173.469" x2="243.068" y2="86.9432" gradientUnits="userSpaceOnUse">
<stop stop-color="#F258C4"/>
<stop offset="1" stop-color="#5865F2"/>
</linearGradient>
<linearGradient id="paint9_linear_245_2" x1="632" y1="144" x2="681.5" y2="157" gradientUnits="userSpaceOnUse">
<stop stop-color="#5865F2"/>
<stop offset="1" stop-color="#F258C4"/>
</linearGradient>
<clipPath id="clip0_245_2">
<rect width="881" height="273" fill="white"/>
</clipPath>
</defs>
</svg>
